<?xml version="1.0" encoding="UTF-8" standalone="no"?>
<!DOCTYPE svg PUBLIC "-//W3C//DTD SVG 1.1//EN" "http://www.w3.org/Graphics/SVG/1.1/DTD/svg11.dtd">
<svg xmlns="http://www.w3.org/2000/svg" xmlns:xlink="http://www.w3.org/1999/xlink" version="1.1" width="1802.7777pt" height="373.40559pt" viewBox="0 0 1802.7777 373.40559">
<g enable-background="new">
<clipPath id="cp0">
<path transform="matrix(0,2.7777777,2.7777777,0,0,-450.71388)" d="M 884.774 -230.248 L 154.29102 -230.248 L 154.29102 879.68209 L 884.774 879.68209 Z M 154.291 -230.248 " fill-rule="evenodd"/>
</clipPath>
<g clip-path="url(#cp0)">
<clipPath id="cp1">
<path transform="matrix(0,2.7777777,2.7777777,0,0,-450.71388)" d="M 162.257 649 L 296.68299 649 L 296.68299 0 L 162.257 0 Z "/>
</clipPath>
<g clip-path="url(#cp1)">
<path transform="matrix(0,2.7777777,2.7777777,0,0,-450.71388)" d="M 163.252 1.7617 L 183.16699 1.7617 L 183.16699 648.9997 L 163.252 648.9997 Z " fill="#cbcdcf"/>
<path transform="matrix(0,2.7777777,2.7777777,0,0,-450.71388)" d="M 162.257 1.7617 L 163.252 1.7617 L 163.252 648.9997 L 162.257 648.9997 Z " fill="#231f20"/>
<path transform="matrix(0,2.7777777,2.7777777,0,0,-450.71388)" d="M 182.172 1.7617 L 183.167 1.7617 L 183.167 648.9997 L 182.172 648.9997 Z " fill="#231f20"/>
<path transform="matrix(0,2.7777777,2.7777777,0,0,-450.71388)" d="M 202.087 83.413 L 203.082 83.413 L 203.082 649 L 202.087 649 Z " fill="#231f20"/>
<path transform="matrix(0,2.7777777,2.7777777,0,0,-450.71388)" d="M 238.93 1.7617 L 239.925 1.7617 L 239.925 648.9997 L 238.93 648.9997 Z " fill="#231f20"/>
<path transform="matrix(0,2.7777777,2.7777777,0,0,-450.71388)" d="M 275.772 83.413 L 276.768 83.413 L 276.768 649 L 275.772 649 Z " fill="#231f20"/>
<path transform="matrix(0,2.7777777,2.7777777,0,0,-450.71388)" d="M 295.687 1.7617 L 296.68305 1.7617 L 296.68305 648.9997 L 295.687 648.9997 Z " fill="#231f20"/>
<symbol id="font_2_0">
</symbol>
<use xlink:href="#font_2_0" transform="matrix(39.829999,0,0,-39.829999,233.08666,41.489259)" fill="#231f20"/>
<symbol id="font_3_23b8">
<path d="M .55078127 .6171875 C .55078127 .7786458 .5494792 .87630209 .546875 .91015627 L .63671877 .8671875 L .60546877 .84375 L .60546877 .6171875 L .73046877 .6171875 L .76171877 .65625 L .82421877 .60546877 L .79296877 .578125 L .79296877 .11328125 C .79296877 .05859375 .76432296 .020833334 .70703127 0 C .70182296 .041666669 .66015627 .069010417 .58203127 .08203125 L .58203127 .09765625 C .63671877 .095052089 .6770833 .092447917 .703125 .08984375 C .7265625 .08984375 .73828127 .104166667 .73828127 .1328125 L .73828127 .2890625 L .41796876 .2890625 L .41796876 .03125 L .359375 .00390625 C .36197917 .076822917 .36328126 .19270833 .36328126 .3515625 C .36328126 .5104167 .36197917 .61067709 .359375 .65234377 L .41796876 .6171875 L .55078127 .6171875 M .3359375 .8515625 C .40625 .8151042 .4466146 .78776046 .45703126 .76953127 C .4700521 .75390627 .4765625 .74088546 .4765625 .73046877 C .4765625 .71744796 .47135417 .703125 .4609375 .6875 C .453125 .671875 .4466146 .6640625 .44140626 .6640625 C .43359376 .6640625 .42578126 .67578127 .41796876 .69921877 C .4049479 .73567709 .375 .7838542 .328125 .84375 L .3359375 .8515625 M .7734375 .8671875 L .84375 .80859377 C .8255208 .80598959 .80078127 .78776046 .76953127 .75390627 C .73567709 .72005209 .6979167 .6848958 .65625 .6484375 L .64453127 .65625 C .71484377 .7526042 .7578125 .8229167 .7734375 .8671875 M .41796876 .4453125 L .41796876 .3125 L .73828127 .3125 L .73828127 .4453125 L .41796876 .4453125 M .41796876 .59375 L .41796876 .46875 L .73828127 .46875 L .73828127 .59375 L .41796876 .59375 M .3359375 .71875 C .24739583 .44791667 .19921875 .2955729 .19140625 .26171876 C .18359375 .22786458 .1796875 .1875 .1796875 .140625 C .1796875 .09375 .18098958 .05859375 .18359375 .03515625 C .18359375 .022135416 .17838542 .015625 .16796875 .015625 C .16276042 .015625 .15104167 .020833334 .1328125 .03125 C .1171875 .0390625 .109375 .053385419 .109375 .07421875 C .109375 .092447917 .111979167 .110677089 .1171875 .12890625 C .122395839 .14973958 .125 .16927083 .125 .1875 C .125 .20833333 .118489589 .22395833 .10546875 .234375 C .092447917 .24479167 .061197919 .25520835 .01171875 .265625 L .01171875 .28125 C .069010417 .27604167 .102864589 .2734375 .11328125 .2734375 C .123697917 .27604167 .13671875 .2877604 .15234375 .30859376 C .16796875 .33203126 .22395833 .4700521 .3203125 .72265627 L .3359375 .71875 M .0078125 .6484375 C .096354167 .609375 .140625 .57682296 .140625 .55078127 C .14322917 .52473959 .140625 .5052083 .1328125 .4921875 C .125 .48177085 .118489589 .4765625 .11328125 .4765625 C .102864589 .4765625 .09375 .48828126 .0859375 .51171877 C .0703125 .54557296 .041666669 .58723959 0 .63671877 L .0078125 .6484375 M .1015625 .8671875 C .17447917 .8333333 .21354167 .80859377 .21875 .79296877 C .2265625 .77734377 .23046875 .765625 .23046875 .7578125 C .23046875 .7447917 .22526042 .73046877 .21484375 .71484377 C .20442708 .70182296 .19791667 .6953125 .1953125 .6953125 C .1875 .6953125 .1796875 .70703127 .171875 .73046877 C .15885417 .76692709 .1328125 .80859377 .09375 .85546877 L .1015625 .8671875 Z "/>
</symbol>
<symbol id="font_3_169f">
<path d="M .35546876 .88151046 L .4375 .8463542 C .41927085 .8359375 .40234376 .82421877 .38671876 .81119796 C .37109376 .79817709 .3580729 .7838542 .34765626 .7682292 L .62109377 .7682292 L .65625 .81119796 L .71875 .7604167 L .6875 .73307296 L .6875 .49479167 C .6875 .44270835 .68880209 .390625 .69140627 .33854167 L .62890627 .31510417 L .62890627 .3580729 L .21875 .3580729 L .21875 .3268229 L .15625 .30729167 C .15885417 .36458335 .16015625 .4440104 .16015625 .54557296 C .16015625 .64973959 .15885417 .73567709 .15625 .80338546 L .21875 .7682292 L .32421876 .7682292 C .3450521 .8177083 .35546876 .85546877 .35546876 .88151046 M .21875 .7447917 L .21875 .63932296 L .62890627 .63932296 L .62890627 .7447917 L .21875 .7447917 M .21875 .61588546 L .21875 .51432296 L .62890627 .51432296 L .62890627 .61588546 L .21875 .61588546 M .21875 .4908854 L .21875 .3815104 L .62890627 .3815104 L .62890627 .4908854 L .21875 .4908854 M .3515625 .3268229 L .359375 .33854167 C .40104167 .3203125 .43359376 .3033854 .45703126 .2877604 C .48046876 .2721354 .4921875 .25390626 .4921875 .23307292 C .49479167 .21484375 .4908854 .19921875 .48046876 .18619792 C .4700521 .17578125 .4622396 .17057292 .45703126 .17057292 C .4466146 .17057292 .4388021 .18098958 .43359376 .20182292 C .4205729 .23567708 .39322917 .27734376 .3515625 .3268229 M .6953125 .24088542 L .703125 .25260417 C .7526042 .22395833 .78776046 .19921875 .80859377 .17838542 C .83203127 .16015625 .84244796 .13932292 .83984377 .11588542 C .83984377 .095052089 .83463546 .079427089 .82421877 .06901042 C .81380209 .05859375 .8072917 .053385419 .8046875 .053385419 C .7942708 .053385419 .78515627 .069010417 .77734377 .10026042 C .76432296 .13932292 .7369792 .18619792 .6953125 .24088542 M .109375 .24479167 L .125 .24479167 C .125 .16927083 .12109375 .118489589 .11328125 .09244792 C .10546875 .06640625 .09375 .052083333 .078125 .049479169 C .065104167 .044270833 .052083333 .041666669 .0390625 .041666669 C .026041666 .041666669 .015625 .044270833 .0078125 .049479169 C .0026041668 .0546875 0 .059895833 0 .06510417 C 0 .07291667 .010416667 .0859375 .03125 .10416667 C .059895833 .125 .0859375 .171875 .109375 .24479167 M .23046875 .08854167 C .23046875 .17447917 .22916667 .23958333 .2265625 .28385417 L .31640626 .24088542 L .28515626 .21744792 L .28515626 .10416667 C .2825521 .0625 .30078126 .044270833 .33984376 .049479169 L .5703125 .049479169 C .5911458 .046875 .6041667 .061197919 .609375 .09244792 C .6145833 .12630208 .6171875 .1640625 .6171875 .20572917 L .63671877 .20572917 C .63932296 .171875 .64192709 .14192708 .64453127 .11588542 C .64713546 .08984375 .6614583 .07291667 .6875 .06510417 C .6744792 .023437502 .63671877 .002604168 .57421877 .002604168 L .3125 .002604168 C .25520835 .0000000012417635 .22786458 .028645836 .23046875 .08854167 Z "/>
</symbol>
<use xlink:href="#font_3_23b8" transform="matrix(39.829999,0,0,-39.829999,265.53196,45.222925)" fill="#231f20"/>
<use xlink:href="#font_3_169f" transform="matrix(39.829999,0,0,-39.829999,307.95637,43.77079)" fill="#231f20"/>
<use xlink:href="#font_2_0" transform="matrix(39.829999,0,0,-39.829999,570.5344,41.489259)" fill="#231f20"/>
<symbol id="font_3_4224">
<path d="M .4375 .6484375 L .4375 .4375 L .73046877 .4375 L .73046877 .6484375 L .4375 .6484375 M .40625 .890625 L .41796876 .8984375 C .4518229 .875 .47916667 .85286459 .5 .83203127 C .5208333 .81119796 .53255209 .7916667 .53515627 .7734375 C .53776046 .7552083 .53255209 .73828127 .51953127 .72265627 C .50651046 .70963546 .4986979 .703125 .49609376 .703125 C .4856771 .703125 .4778646 .71875 .47265626 .75 C .4622396 .7916667 .44010417 .8385417 .40625 .890625 M .69140627 .91796877 L .78125 .86328127 L .7421875 .84765627 C .703125 .78515627 .6666667 .7265625 .6328125 .671875 L .72265627 .671875 L .75390627 .71484377 L .8203125 .66015627 L .78515627 .63671877 C .78515627 .50651046 .7864583 .42578126 .7890625 .39453126 L .73046877 .3671875 L .73046877 .4140625 L .66015627 .4140625 L .66015627 .1328125 C .66015627 .098958339 .6770833 .083333339 .7109375 .0859375 L .78515627 .0859375 C .81380209 .0859375 .82942709 .098958339 .83203127 .125 C .83463546 .15104167 .83723959 .1953125 .83984377 .2578125 L .85546877 .2578125 C .85807296 .22135417 .86067709 .18619792 .86328127 .15234375 C .86848959 .12109375 .8828125 .102864589 .90625 .09765625 C .8880208 .05859375 .85807296 .0390625 .81640627 .0390625 L .6953125 .0390625 C .6354167 .033854169 .6067708 .05859375 .609375 .11328125 L .609375 .4140625 L .54296877 .4140625 C .53776046 .29427085 .50911459 .20442708 .45703126 .14453125 C .4075521 .084635417 .32291667 .036458333 .203125 0 L .1953125 .01171875 C .2890625 .05078125 .3606771 .098958339 .41015626 .15625 C .4596354 .21614583 .4856771 .30208335 .48828126 .4140625 L .4375 .4140625 L .4375 .3828125 L .37890626 .36328126 C .3815104 .40234376 .3828125 .4609375 .3828125 .5390625 C .3828125 .6171875 .3815104 .67317709 .37890626 .70703127 L .4375 .671875 L .609375 .671875 C .6536458 .7760417 .68098959 .85807296 .69140627 .91796877 M .09765625 .8515625 L .10546875 .8671875 C .16536458 .84375 .20703125 .8229167 .23046875 .8046875 C .25390626 .7890625 .2643229 .76953127 .26171876 .74609377 C .2591146 .72265627 .25390626 .7083333 .24609375 .703125 C .24088542 .6979167 .23697917 .6953125 .234375 .6953125 C .2265625 .6953125 .21614583 .7083333 .203125 .734375 C .1875 .765625 .15234375 .8046875 .09765625 .8515625 M .2109375 .171875 L .36328126 .31640626 L .375 .3046875 C .32552085 .2421875 .28645835 .19401042 .2578125 .16015625 C .22916667 .123697917 .20572917 .091145839 .1875 .0625 L .13671875 .11328125 C .15234375 .13151042 .15885417 .15364583 .15625 .1796875 L .15625 .54296877 L .109375 .54296877 C .088541667 .54296877 .063802089 .5390625 .03515625 .53125 L 0 .56640627 L .15234375 .56640627 L .18359375 .61328127 L .24609375 .55859377 L .2109375 .52734377 L .2109375 .171875 Z "/>
</symbol>
<symbol id="font_3_1c3e">
<path d="M .2734375 .44921876 C .2734375 .3815104 .2747396 .33072917 .27734376 .296875 L .22265625 .26953126 L .22265625 .33984376 L .0546875 .33984376 L .0546875 .26171876 L 0 .234375 C .0026041668 .3125 .00390625 .4127604 .00390625 .53515627 C .00390625 .65755209 .0026041668 .75651046 0 .83203127 L .0546875 .80078127 L .21875 .80078127 L .24609375 .8359375 L .3046875 .78515627 L .2734375 .76171877 L .2734375 .44921876 M .0546875 .77734377 L .0546875 .5859375 L .22265625 .5859375 L .22265625 .77734377 L .0546875 .77734377 M .0546875 .5625 L .0546875 .36328126 L .22265625 .36328126 L .22265625 .5625 L .0546875 .5625 M .1328125 .01171875 C .1953125 .05078125 .24609375 .09375 .28515626 .140625 C .3268229 .1875 .35546876 .23567708 .37109376 .28515626 C .38671876 .3346354 .39453126 .41796876 .39453126 .53515627 C .3971354 .65494796 .3971354 .77473959 .39453126 .89453127 L .44921876 .85546877 L .6640625 .85546877 L .6953125 .89453127 L .7578125 .84765627 L .7265625 .82421877 L .7265625 .11328125 C .7291667 .06640625 .69921877 .03125 .63671877 .0078125 C .63671877 .044270833 .59244796 .07421875 .50390627 .09765625 L .50390627 .1171875 C .56901046 .104166667 .61328127 .098958339 .63671877 .1015625 C .66276046 .1015625 .67578127 .114583339 .67578127 .140625 L .67578127 .37890626 L .4453125 .37890626 C .4375 .28515626 .40364585 .20703125 .34375 .14453125 C .28645835 .084635417 .21875 .036458333 .140625 0 L .1328125 .01171875 M .44921876 .83203127 L .44921876 .625 L .67578127 .625 L .67578127 .83203127 L .44921876 .83203127 M .44921876 .6015625 C .44921876 .53125 .44791667 .46484376 .4453125 .40234376 L .67578127 .40234376 L .67578127 .6015625 L .44921876 .6015625 Z "/>
</symbol>
<symbol id="font_3_a01">
<path d="M .3125 .66015627 C .3203125 .70182296 .3268229 .7447917 .33203126 .7890625 C .33984376 .8359375 .3450521 .87890627 .34765626 .91796877 L .4296875 .8828125 L .40234376 .85546877 C .3841146 .75130209 .37239585 .68619796 .3671875 .66015627 L .7578125 .66015627 L .8125 .71484377 L .88671877 .63671877 L .36328126 .63671877 C .35546876 .58723959 .3450521 .5390625 .33203126 .4921875 L .66796877 .4921875 L .6953125 .53515627 L .76171877 .4765625 L .7265625 .44921876 C .6796875 .36328126 .62630209 .28645835 .56640627 .21875 C .65234377 .1484375 .76432296 .100260417 .90234377 .07421875 L .90234377 .0625 C .86328127 .0546875 .8385417 .036458333 .828125 .0078125 C .7057292 .052083333 .60807296 .109375 .53515627 .1796875 C .43359376 .09375 .3046875 .033854169 .1484375 0 L .14453125 .01171875 C .3059896 .06640625 .42447917 .13541667 .5 .21875 C .44270835 .29427085 .3971354 .37760417 .36328126 .46875 L .328125 .46875 C .29947917 .3828125 .2591146 .30078126 .20703125 .22265625 C .15755208 .14713542 .091145839 .08203125 .0078125 .02734375 L 0 .0390625 C .041666669 .075520839 .08203125 .12109375 .12109375 .17578125 C .16276042 .23046875 .19791667 .29166667 .2265625 .359375 C .2578125 .4296875 .28515626 .52213546 .30859376 .63671877 L .12890625 .63671877 L .09765625 .6015625 L .046875 .65625 L .078125 .67578127 C .114583339 .75911459 .13671875 .8229167 .14453125 .8671875 L .22265625 .82421877 L .19140625 .80078127 C .16536458 .73567709 .14583333 .68880209 .1328125 .66015627 L .3125 .66015627 M .3828125 .46875 C .42447917 .38541667 .47395835 .3138021 .53125 .25390626 C .5807292 .3111979 .62630209 .3828125 .66796877 .46875 L .3828125 .46875 M .546875 .8984375 C .6223958 .8671875 .671875 .8411458 .6953125 .8203125 C .71875 .8020833 .73046877 .7838542 .73046877 .765625 C .73046877 .7578125 .7265625 .74609377 .71875 .73046877 C .7135417 .71484377 .7083333 .70703127 .703125 .70703127 C .6953125 .70703127 .6848958 .71875 .671875 .7421875 C .6484375 .78125 .6041667 .82942709 .5390625 .88671877 L .546875 .8984375 Z "/>
</symbol>
<symbol id="font_3_82a">
<path d="M .68359377 .703125 L .68359377 .55078127 C .68359377 .52473959 .68619796 .48828126 .69140627 .44140626 L .62890627 .41796876 L .62890627 .46484376 L .3984375 .46484376 L .3984375 .0859375 L .66796877 .0859375 L .66796877 .2578125 C .66796877 .29427085 .6666667 .3346354 .6640625 .37890626 L .75390627 .328125 L .72265627 .3046875 L .72265627 .16015625 C .72265627 .11328125 .7239583 .06640625 .7265625 .01953125 L .66796877 0 L .66796877 .0625 L .08203125 .0625 L .0546875 .03515625 L 0 .078125 L .02734375 .10546875 L .02734375 .2578125 C .02734375 .296875 .026041666 .33984376 .0234375 .38671876 L .11328125 .33984376 L .08203125 .3125 L .08203125 .0859375 L .34375 .0859375 L .34375 .46484376 L .1171875 .46484376 L .0859375 .4375 L .03125 .48046876 L .05859375 .50390627 L .05859375 .6640625 C .05859375 .6953125 .057291669 .7291667 .0546875 .765625 L .1484375 .71875 L .11328125 .6953125 L .11328125 .48828126 L .34375 .48828126 L .34375 .74609377 C .34375 .79296877 .3424479 .8385417 .33984376 .8828125 L .4296875 .83984377 L .3984375 .8046875 L .3984375 .48828126 L .62890627 .48828126 L .62890627 .6640625 C .62890627 .6953125 .6276042 .7317708 .625 .7734375 L .71484377 .73046877 L .68359377 .703125 Z "/>
</symbol>
<symbol id="font_3_1be9">
<path d="M 0 .70703127 L .77734377 .70703127 L .8359375 .765625 L .91796877 .68359377 L .4375 .68359377 C .43489585 .63411459 .4283854 .57682296 .41796876 .51171877 L .671875 .51171877 L .7109375 .55078127 L .7734375 .4921875 L .734375 .46875 C .7083333 .26822917 .6901042 .14973958 .6796875 .11328125 C .6692708 .076822917 .65234377 .052083333 .62890627 .0390625 C .60807296 .0234375 .578125 .010416667 .5390625 0 C .5286458 .041666669 .4856771 .078125 .41015626 .109375 L .4140625 .125 C .484375 .104166667 .52994796 .09375 .55078127 .09375 C .57421877 .091145839 .5911458 .095052089 .6015625 .10546875 C .6145833 .115885417 .62630209 .1484375 .63671877 .203125 C .64713546 .26041667 .66015627 .35546876 .67578127 .48828126 L .4140625 .48828126 C .36979167 .26171876 .2421875 .100260417 .03125 .00390625 L .0234375 .01953125 C .2578125 .15234375 .375 .3736979 .375 .68359377 L .12890625 .68359377 C .095052089 .68359377 .063802089 .6796875 .03515625 .671875 L 0 .70703127 M .375 .8984375 C .44270835 .8723958 .48177085 .85026046 .4921875 .83203127 C .5052083 .81380209 .51171877 .7994792 .51171877 .7890625 C .51171877 .7786458 .50651046 .765625 .49609376 .75 C .4856771 .7369792 .47916667 .73046877 .4765625 .73046877 C .46614585 .73046877 .45572917 .7447917 .4453125 .7734375 C .4296875 .8125 .40364585 .85026046 .3671875 .88671877 L .375 .8984375 Z "/>
</symbol>
<symbol id="font_3_19d5">
<path d="M .35546876 .76171877 L .76953127 .76171877 L .8125 .8046875 L .87890627 .73828127 L .4765625 .73828127 C .44270835 .73828127 .4140625 .734375 .390625 .7265625 L .35546876 .76171877 M .44921876 .72265627 C .50651046 .68359377 .53776046 .65755209 .54296877 .64453127 C .55078127 .63151046 .5546875 .6223958 .5546875 .6171875 C .5546875 .6067708 .5494792 .59505209 .5390625 .58203127 C .5286458 .57161459 .5208333 .56640627 .515625 .56640627 C .5078125 .56640627 .50130209 .578125 .49609376 .6015625 C .48828126 .6328125 .46875 .67057296 .4375 .71484377 L .44921876 .72265627 M .5859375 .4765625 L .53125 .375 L .8125 .375 L .859375 .421875 L .92578127 .3515625 L .76171877 .3515625 C .72265627 .26822917 .6901042 .2109375 .6640625 .1796875 C .7161458 .16145833 .7604167 .14192708 .796875 .12109375 C .8333333 .102864589 .8541667 .087239589 .859375 .07421875 C .8671875 .05859375 .87109377 .045572919 .87109377 .03515625 C .87109377 .02734375 .86848959 .020833334 .86328127 .015625 C .86067709 .0078125 .8567708 .00390625 .8515625 .00390625 C .84375 .00390625 .83203127 .01171875 .81640627 .02734375 C .79296877 .053385419 .7682292 .07421875 .7421875 .08984375 C .71875 .10546875 .68359377 .123697917 .63671877 .14453125 C .59505209 .108072917 .5442708 .076822917 .484375 .05078125 C .42708335 .024739584 .34765626 .0078125 .24609375 0 L .24609375 .015625 C .30078126 .0234375 .35677085 .0390625 .4140625 .0625 C .47395835 .083333339 .53125 .1171875 .5859375 .1640625 C .5260417 .1875 .4609375 .20572917 .390625 .21875 C .41666667 .26302085 .44270835 .30729167 .46875 .3515625 L .328125 .3515625 L .29296876 .34375 L .26171876 .375 L .4765625 .375 C .5026042 .43489585 .5234375 .48828126 .5390625 .53515627 L .3671875 .53515627 L .33203126 .52734377 L .30078126 .55859377 L .62890627 .55859377 C .63932296 .58203127 .64973959 .60807296 .66015627 .63671877 C .67317709 .66536459 .6848958 .6979167 .6953125 .734375 L .7734375 .6796875 L .73828127 .671875 C .70182296 .6197917 .67317709 .58203127 .65234377 .55859377 L .796875 .55859377 L .84375 .60546877 L .9140625 .53515627 L .546875 .53515627 L .6171875 .4921875 L .5859375 .4765625 M .44921876 .23046875 C .50651046 .22005208 .56119796 .20833333 .61328127 .1953125 C .64713546 .23958333 .67578127 .29166667 .69921877 .3515625 L .5234375 .3515625 C .5 .3125 .4752604 .2721354 .44921876 .23046875 M .52734377 .91015627 C .57421877 .88411459 .6041667 .8645833 .6171875 .8515625 C .6302083 .8385417 .63671877 .828125 .63671877 .8203125 C .63671877 .8098958 .63151046 .79817709 .62109377 .78515627 C .61067709 .77213546 .6041667 .765625 .6015625 .765625 C .59375 .765625 .58723959 .7760417 .58203127 .796875 C .57161459 .828125 .5494792 .86328127 .515625 .90234377 L .52734377 .91015627 M .22265625 .46875 L .33203126 .515625 L .33984376 .50390627 L .22265625 .43359376 L .22265625 .1015625 C .22265625 .059895833 .19661458 .02734375 .14453125 .00390625 C .14973958 .032552083 .1171875 .061197919 .046875 .08984375 L .046875 .10546875 C .104166667 .095052089 .13932292 .091145839 .15234375 .09375 C .16536458 .09375 .171875 .104166667 .171875 .125 L .171875 .40625 C .1015625 .36458335 .061197919 .3359375 .05078125 .3203125 L 0 .38671876 C .046875 .3997396 .104166667 .4205729 .171875 .44921876 L .171875 .66796877 L .08984375 .66796877 L .04296875 .66015627 L .01171875 .69140627 L .171875 .69140627 C .171875 .79817709 .17057292 .87369796 .16796875 .91796877 L .25390626 .875 L .22265625 .84765627 L .22265625 .69140627 L .2734375 .69140627 L .31640626 .734375 L .3828125 .66796877 L .22265625 .66796877 L .22265625 .46875 Z "/>
</symbol>
<symbol id="font_3_1b66">
<path d="M .4453125 .6640625 C .47135417 .5078125 .51692709 .3828125 .58203127 .2890625 C .62369796 .3671875 .65755209 .4921875 .68359377 .6640625 L .4453125 .6640625 M .45703126 .92578127 L .5546875 .87890627 L .515625 .859375 C .49479167 .8098958 .47135417 .7526042 .4453125 .6875 L .74609377 .6875 L .796875 .73828127 L .87109377 .6640625 L .7421875 .6640625 C .7161458 .49739585 .6744792 .35677085 .6171875 .2421875 C .7083333 .14583333 .79817709 .095052089 .88671877 .08984375 L .88671877 .07421875 C .84505209 .071614589 .8151042 .053385419 .796875 .01953125 C .7109375 .069010417 .63932296 .13020833 .58203127 .203125 C .4934896 .1171875 .39453126 .052083333 .28515626 .0078125 L .27734376 .01953125 C .37890626 .071614589 .4700521 .14583333 .55078127 .2421875 C .48046876 .3671875 .44010417 .5052083 .4296875 .65625 C .39322917 .5703125 .3515625 .49479167 .3046875 .4296875 L .29296876 .4375 C .3658854 .578125 .4205729 .74088546 .45703126 .92578127 M .015625 .34765626 L .015625 .5859375 C .015625 .6380208 .014322917 .69140627 .01171875 .74609377 L .1015625 .703125 L .06640625 .67578127 L .06640625 .32421876 L .19921875 .37109376 C .19921875 .64453127 .19791667 .828125 .1953125 .921875 L .28515626 .87890627 L .25 .84765627 L .25 .03125 L .1953125 0 C .19791667 .106770839 .19921875 .22395833 .19921875 .3515625 C .118489589 .30729167 .06640625 .2669271 .04296875 .23046875 L 0 .2890625 C .013020833 .30208335 .018229166 .3216146 .015625 .34765626 Z "/>
</symbol>
<use xlink:href="#font_3_4224" transform="matrix(39.829999,0,0,-39.829999,602.6685,45.37851)" fill="#231f20"/>
<use xlink:href="#font_3_1c3e" transform="matrix(39.829999,0,0,-39.829999,647.4267,45.534097)" fill="#231f20"/>
<use xlink:href="#font_3_a01" transform="matrix(39.829999,0,0,-39.829999,1352.7195,45.37851)" fill="#231f20"/>
<use xlink:href="#font_3_82a" transform="matrix(39.829999,0,0,-39.829999,1397.011,44.756166)" fill="#231f20"/>
<use xlink:href="#font_3_1be9" transform="matrix(39.829999,0,0,-39.829999,1435.2346,45.222925)" fill="#231f20"/>
<use xlink:href="#font_3_19d5" transform="matrix(39.829999,0,0,-39.829999,1578.7534,45.222925)" fill="#231f20"/>
<use xlink:href="#font_3_1b66" transform="matrix(39.829999,0,0,-39.829999,1621.7963,45.534097)" fill="#231f20"/>
<use xlink:href="#font_3_1be9" transform="matrix(39.829999,0,0,-39.829999,1662.0424,45.222925)" fill="#231f20"/>
<symbol id="font_4_315c">
<path d="M .265625 .76953127 C .30729167 .74869796 .33072917 .73046877 .3359375 .71484377 C .34375 .70182296 .34765626 .6927083 .34765626 .6875 C .34765626 .6744792 .3424479 .66276046 .33203126 .65234377 C .3216146 .64453127 .3138021 .640625 .30859376 .640625 C .30078126 .640625 .296875 .64453127 .296875 .65234377 C .29427085 .66796877 .2890625 .6848958 .28125 .703125 C .2734375 .7239583 .26041667 .74609377 .2421875 .76953127 L .1953125 .76953127 C .17447917 .74869796 .15104167 .7265625 .125 .703125 C .1015625 .6796875 .071614589 .65625 .03515625 .6328125 L .02734375 .6484375 C .063802089 .6822917 .098958339 .72265627 .1328125 .76953127 C .16666667 .81901046 .19140625 .86848959 .20703125 .91796877 L .28515626 .8671875 C .26953126 .859375 .24479167 .83463546 .2109375 .79296877 L .37890626 .79296877 L .42578126 .83984377 L .4921875 .76953127 L .265625 .76953127 M .578125 .9140625 L .65625 .86328127 C .6380208 .85807296 .61328127 .83463546 .58203127 .79296877 L .78125 .79296877 L .828125 .83984377 L .89453127 .76953127 L .64453127 .76953127 C .67838546 .75130209 .69921877 .73567709 .70703127 .72265627 C .71744796 .71223959 .72265627 .703125 .72265627 .6953125 C .72265627 .6822917 .71744796 .6692708 .70703127 .65625 C .69661459 .6458333 .6901042 .640625 .6875 .640625 C .6822917 .640625 .6770833 .64713546 .671875 .66015627 C .6666667 .67578127 .6614583 .69140627 .65625 .70703127 C .6510417 .72265627 .63932296 .74348959 .62109377 .76953127 L .56640627 .76953127 C .54557296 .74609377 .52734377 .72526046 .51171877 .70703127 C .49609376 .69140627 .4700521 .6692708 .43359376 .640625 L .421875 .65234377 C .47135417 .70703127 .50651046 .7552083 .52734377 .796875 C .54817709 .8385417 .5651042 .8776042 .578125 .9140625 M .13671875 .34375 C .15234375 .390625 .16666667 .44791667 .1796875 .515625 L .23828125 .4765625 L .44921876 .4765625 L .44921876 .59375 L .234375 .59375 C .21354167 .59375 .18880208 .58984377 .16015625 .58203127 L .125 .6171875 L .70703127 .6171875 L .74609377 .65625 L .80078127 .6015625 L .76953127 .58203127 C .76953127 .50651046 .7708333 .45703126 .7734375 .43359376 L .71875 .41015626 L .71875 .453125 L .5 .453125 L .5 .33203126 L .78515627 .33203126 L .82421877 .37109376 L .87890627 .31640626 L .84375 .29296876 C .8333333 .22786458 .8255208 .18359375 .8203125 .16015625 C .8151042 .13932292 .8072917 .122395839 .796875 .109375 C .7890625 .098958339 .7786458 .091145839 .765625 .0859375 C .7526042 .078125 .734375 .071614589 .7109375 .06640625 C .7109375 .100260417 .6770833 .13151042 .609375 .16015625 L .609375 .17578125 C .6770833 .15755208 .71744796 .1484375 .73046877 .1484375 C .74609377 .15104167 .75651046 .15885417 .76171877 .171875 C .76953127 .1875 .7786458 .23307292 .7890625 .30859376 L .5 .30859376 L .5 .1171875 C .5 .0859375 .50130209 .053385419 .50390627 .01953125 L .4453125 0 C .44791667 .049479169 .44921876 .109375 .44921876 .1796875 L .44921876 .3046875 C .39453126 .23177083 .3294271 .17317708 .25390626 .12890625 C .17838542 .084635417 .095052089 .048177083 .00390625 .01953125 L 0 .0390625 C .0703125 .065104167 .13932292 .100260417 .20703125 .14453125 C .27734376 .18880208 .3359375 .24348958 .3828125 .30859376 L .1875 .30859376 L .16015625 .2734375 L .1015625 .3203125 L .13671875 .34375 M .5 .59375 L .5 .4765625 L .71875 .4765625 L .71875 .59375 L .5 .59375 M .2265625 .453125 C .21614583 .42447917 .20442708 .3841146 .19140625 .33203126 L .44921876 .33203126 L .44921876 .453125 L .2265625 .453125 Z "/>
</symbol>
<symbol id="font_4_430">
<path d="M 0 .03515625 L .7265625 .03515625 L .8046875 .09765625 L .890625 .01171875 L .140625 .01171875 C .098958339 .01171875 .063802089 .0078125 .03515625 0 L 0 .03515625 Z "/>
</symbol>
<symbol id="font_4_4c66">
<path d="M .57421877 .8671875 L .54296877 .84765627 C .58463546 .76953127 .6302083 .7083333 .6796875 .6640625 C .7317708 .6223958 .796875 .59244796 .875 .57421877 L .875 .5625 C .8463542 .5598958 .82421877 .5442708 .80859377 .515625 C .73567709 .5520833 .67838546 .59505209 .63671877 .64453127 C .59505209 .69661459 .5598958 .7578125 .53125 .828125 C .47916667 .7317708 .4296875 .6614583 .3828125 .6171875 C .33854167 .5729167 .2890625 .5364583 .234375 .5078125 L .23046875 .51953127 C .31640626 .58984377 .38020835 .6640625 .421875 .7421875 C .46614585 .8203125 .4921875 .8776042 .5 .9140625 L .57421877 .8671875 M .44921876 .50390627 C .44921876 .3736979 .4440104 .28385417 .43359376 .234375 C .4231771 .18489583 .40104167 .140625 .3671875 .1015625 C .33333335 .065104167 .2825521 .03125 .21484375 0 L .2109375 .01171875 C .2890625 .061197919 .33854167 .111979167 .359375 .1640625 C .3828125 .21875 .39453126 .28645835 .39453126 .3671875 C .3971354 .45052085 .3971354 .51692709 .39453126 .56640627 L .4765625 .5234375 L .44921876 .50390627 M .609375 .015625 C .6119792 .109375 .61328127 .203125 .61328127 .296875 C .61328127 .39322917 .6119792 .4830729 .609375 .56640627 L .6875 .51953127 L .6640625 .5 L .6640625 .1796875 C .6640625 .13541667 .66536459 .091145839 .66796877 .046875 L .609375 .015625 M .203125 .80078127 L .0546875 .80078127 L .0546875 .30859376 C .1171875 .2903646 .16015625 .28515626 .18359375 .29296876 C .20963542 .30078126 .22005208 .33072917 .21484375 .3828125 C .21223958 .4375 .18359375 .49609376 .12890625 .55859377 L .203125 .80078127 M 0 0 C .0026041668 .072916667 .00390625 .22395833 .00390625 .453125 C .00390625 .6822917 .0026041668 .8177083 0 .859375 L .05859375 .82421877 L .203125 .82421877 L .23828125 .859375 L .29296876 .8046875 L .2578125 .78515627 C .234375 .73828127 .19791667 .66276046 .1484375 .55859377 C .18489583 .52734377 .21354167 .49479167 .234375 .4609375 C .2578125 .42708335 .27083335 .39453126 .2734375 .36328126 C .27604167 .33203126 .26822917 .30208335 .25 .2734375 C .23177083 .24739583 .19661458 .2265625 .14453125 .2109375 C .13671875 .24479167 .106770839 .27083335 .0546875 .2890625 L .0546875 .02734375 L 0 0 Z "/>
</symbol>
<symbol id="font_4_21e5">
<path d="M .16015625 .265625 L .4375 .328125 L .4453125 .3125 L .16015625 .21875 C .16015625 .13802083 .16145833 .076822917 .1640625 .03515625 L .10546875 0 C .108072917 .0625 .109375 .13020833 .109375 .203125 C .067708339 .19010417 .044270833 .17838542 .0390625 .16796875 L 0 .23828125 C .018229166 .23828125 .0546875 .24479167 .109375 .2578125 L .109375 .59765627 C .109375 .72526046 .108072917 .80859377 .10546875 .84765627 L .1640625 .8125 C .1953125 .8177083 .23177083 .828125 .2734375 .84375 C .31510417 .859375 .34895835 .8776042 .375 .8984375 L .43359376 .83203127 C .40234376 .83203127 .36197917 .82682296 .3125 .81640627 C .26041667 .80598959 .20963542 .796875 .16015625 .7890625 L .16015625 .64453127 L .296875 .64453127 L .3359375 .68359377 L .3984375 .62109377 L .16015625 .62109377 L .16015625 .46484376 L .29296876 .46484376 L .33203126 .50390627 L .39453126 .44140626 L .16015625 .44140626 L .16015625 .265625 M .484375 .8671875 L .54296877 .83203127 L .6796875 .83203127 L .7109375 .8671875 L .765625 .81640627 L .734375 .79296877 L .734375 .63671877 C .734375 .61067709 .7473958 .59765627 .7734375 .59765627 L .80078127 .59765627 C .81640627 .60026046 .82942709 .60546877 .83984377 .61328127 C .85026046 .61848959 .86067709 .6145833 .87109377 .6015625 C .88151046 .5885417 .88671877 .57942709 .88671877 .57421877 C .88671877 .56119796 .8671875 .5546875 .828125 .5546875 L .75 .5546875 C .7057292 .5546875 .68359377 .57161459 .68359377 .60546877 L .68359377 .80859377 L .5390625 .80859377 C .5416667 .73046877 .5338542 .6666667 .515625 .6171875 C .49739585 .5677083 .453125 .52213546 .3828125 .48046876 L .37109376 .4921875 C .4205729 .53125 .45052085 .56901046 .4609375 .60546877 C .47395835 .64453127 .48177085 .6848958 .484375 .7265625 C .48697917 .7708333 .48697917 .8177083 .484375 .8671875 M .5 .45703126 C .515625 .4127604 .53255209 .37239585 .55078127 .3359375 C .57161459 .30208335 .59244796 .2721354 .61328127 .24609375 C .63411459 .2721354 .6536458 .3046875 .671875 .34375 C .6901042 .3828125 .70442709 .4205729 .71484377 .45703126 L .5 .45703126 M .58203127 .2109375 C .56380209 .23697917 .54557296 .26953126 .52734377 .30859376 C .51171877 .3502604 .49609376 .3997396 .48046876 .45703126 L .4375 .44921876 L .40625 .48046876 L .71484377 .48046876 L .75 .51953127 L .80859377 .46484376 L .7734375 .44140626 C .7578125 .3997396 .73828127 .35677085 .71484377 .3125 C .69401046 .27083335 .671875 .23567708 .6484375 .20703125 C .6953125 .16276042 .7421875 .12890625 .7890625 .10546875 C .8359375 .084635417 .87890627 .072916667 .91796877 .0703125 L .91796877 .0546875 C .88151046 .052083333 .85807296 .037760419 .84765627 .01171875 C .81640627 .01953125 .77994796 .036458333 .73828127 .0625 C .69921877 .0859375 .65755209 .122395839 .61328127 .171875 C .56119796 .13020833 .5026042 .096354167 .4375 .0703125 C .37239585 .041666669 .3046875 .01953125 .234375 .00390625 L .23046875 .01953125 C .2955729 .037760419 .359375 .063802089 .421875 .09765625 C .484375 .13151042 .53776046 .16927083 .58203127 .2109375 Z "/>
</symbol>
<use xlink:href="#font_4_315c" transform="matrix(39.829999,0,0,-39.829999,7.830612,153.4057)" fill="#231f20"/>
<use xlink:href="#font_4_430" transform="matrix(39.829999,0,0,-39.829999,47.175683,134.26865)" fill="#231f20"/>
<use xlink:href="#font_4_4c66" transform="matrix(39.829999,0,0,-39.829999,86.98751,153.09455)" fill="#231f20"/>
<use xlink:href="#font_4_21e5" transform="matrix(39.829999,0,0,-39.829999,124.15438,153.09455)" fill="#231f20"/>
<symbol id="font_5_0">
<path transform="matrix(.01,0,0,-.01,.285,.64199998)" d="M 0 0 C .4 -1.8 1.3 -4.8 1.3 -6 C 1.3 -7.7 .3 -8.7 -2.9 -8.7 C -6.7 -8.7 -6.7 -4.3 -7.5 -.5 L -8.8 5.4 C -13.8 9 -17.5 12 -20.3 15.5 C -19.9 16.9 -19 17.6 -17.2 17.6 C -15 14.7 -12.8 12.9 -10 10.6 L -20.3 56.5 C -20.9 59.3 -22.4 60.5 -25.6 61 L -27.5 61.3 C -28 61.4 -28.5 61.5 -28.5 62.1 L -28.5 64 L -28.3 64.2 C -28.3 64.2 -21.5 63.7 -17.9 63.7 C -14 63.7 -7.2 63.9 -7.2 63.9 L -7 63.7 L -7 61.7 C -7 61.2 -7.2 61 -7.6 60.9 L -9.5 60.6 C -11 60.4 -13.6 59.9 -12.8 56.5 L -8.4 38.1 C -6.9 39.7 -4 41.4 -1.1 41.4 C 6 41.4 11.8 37.4 16.2 32.1 C 21.6 25.5 24.3 18.7 24.3 11.5 C 24.3 3.1 21.5 -3.5 11.5 -3.5 C 6.4 -3.5 2.7 -1.6 0 0 Z M 16.1 13.1 C 16.1 17.9 14.1 24.9 10.3 30.7 C 7.7 34.9 3.7 37.9 -.1 37.9 C -2.7 37.9 -5.4 36.6 -7.5 33.7 L -.9 4.5 C 1.6 2.9 4.5 1.1 8.3 1.1 C 15.1 1.1 16.1 8.2 16.1 13.1 "/>
</symbol>
<symbol id="font_5_2">
<path transform="matrix(.01,0,0,-.01,.132,.295)" d="M 0 0 L .8 -3.5 C 1.7 -7.4 2.6 -10.9 2.6 -12.6 C 2.6 -14.1 1.7 -15.1 .4 -15.1 C -2.8 -15.1 -6.9 -14.4 -11.6 -13.8 C -12.3 -13 -12.1 -11.9 -11.5 -11 L -7.5 -10.7 C -6.3 -10.6 -5.7 -9.7 -5.7 -8.7 C -5.7 -7.8 -5.7 -6.4 -6.4 -3.6 L -11.9 21.3 C -12.4 23.4 -13.2 25.2 -13.2 26.8 C -13.2 28.4 -12.3 29.5 -9.4 29.5 C -5.9 29.5 -5.8 25.2 -4.8 21.3 L -1.9 9.6 C 2.9 .9 8.5 -8.4 10.8 -8.4 C 11.8 -8.4 12.3 -7.9 12.9 -7.2 C 13.6 -6.4 14.9 -5.1 16.3 -5.1 C 19 -5.1 20.8 -8 20.8 -10.7 C 20.8 -12.8 19.3 -15.4 15.6 -15.4 C 10.6 -15.4 4.8 -9.2 .4 .1 L 0 0 "/>
</symbol>
<symbol id="font_5_3">
<path transform="matrix(.01,0,0,-.01,.08399999,.20899999)" d="M 0 0 C 25.7 -5 25.7 -12.6 25.7 -16.4 C 25.7 -16.5 25.7 -16.5 25.7 -16.6 C 25.7 -19.1 23.4 -24 16.2 -24 C -1.2 -24 -8.4 -7 -8.4 5.7 C -8.4 14.2 -4.4 20.9 3.9 20.9 C 10.6 20.9 16.7 17.4 22.6 9.8 C 22.1 8.7 21.5 8.2 20.3 8.2 C 14.6 14 12.3 14.9 7.5 14.9 C 3 14.9 -.1 12.5 -.1 3.4 C -.1 2.9 -.1 .8 0 0 Z M 18.8 -17.1 C 18.8 -8.1 8.3 -4.8 .7 -3.8 C 4.2 -18 9.7 -20.9 13.9 -20.9 C 17.5 -20.9 18.8 -20 18.8 -17.1 "/>
</symbol>
<symbol id="font_5_4">
<path transform="matrix(.01,0,0,-.01,.332,.443)" d="M 0 0 C -2.7 -.3 -4 -.6 -8 -.6 C -18.7 -.6 -33.2 15.1 -33.2 30.8 C -33.2 36.4 -31.9 44.3 -23.5 44.3 C -18.2 44.3 -12.6 38.8 -6.6 29.9 L -6.4 30.1 L -7.7 34.3 C -8.4 36.6 -8.7 38.6 -8.7 39.8 C -8.7 41.7 -8 44.3 -4.6 44.3 C 1.6 44.3 5.6 40.3 8.2 34.6 C 7.7 33.7 7.2 33 5.9 33 C 3.2 36.7 1.3 38.3 .3 38.3 C 0 38.3 -.9 38.1 -.9 36.9 C -.9 36 -.3 33.2 .1 31.3 L 7 .2 C 6.3 .2 5.7 .2 5 .2 C 3.2 .3 1.5 .4 0 0 Z M -5 21.4 C -9.9 30.4 -17.6 38.8 -20.8 38.8 C -24.2 38.8 -25.2 34.8 -25.2 29.2 C -25.2 18.6 -16.9 2.5 -7.7 2.5 C -5.6 2.5 -3.4 3.2 -1.5 4.4 C -1.5 4.4 -2.5 15 -5 21.4 "/>
</symbol>
<use xlink:href="#font_5_0" transform="matrix(39.829999,0,0,-39.829999,232.32593,106.288318)" fill="#231f20"/>
<use xlink:href="#font_5_2" transform="matrix(39.829999,0,0,-39.829999,256.10444,97.20708)" fill="#231f20"/>
<use xlink:href="#font_5_3" transform="matrix(39.829999,0,0,-39.829999,269.7661,97.20708)" fill="#231f20"/>
<use xlink:href="#font_5_0" transform="matrix(39.829999,0,0,-39.829999,281.6753,106.288318)" fill="#231f20"/>
<use xlink:href="#font_5_4" transform="matrix(39.829999,0,0,-39.829999,305.0157,97.20708)" fill="#231f20"/>
<use xlink:href="#font_5_2" transform="matrix(39.829999,0,0,-39.829999,324.8112,97.20708)" fill="#231f20"/>
<use xlink:href="#font_5_3" transform="matrix(39.829999,0,0,-39.829999,338.47688,97.20708)" fill="#231f20"/>
<symbol id="font_6_0">
<path transform="matrix(.01,0,0,-.01,0,.45599998)" d="M 0 0 C 0 4.5 .4 27.6 21.2 45.6 C 22.2 45.4 23 44.7 23.3 43.9 C 20 40.1 8.3 26.3 8.3 0 C 8.3 -26.3 20.1 -40.1 23.3 -43.7 C 23 -44.7 22.3 -45.4 21.2 -45.5 C 9.3 -35.3 0 -18.6 0 0 "/>
</symbol>
<use xlink:href="#font_6_0" transform="matrix(39.829999,0,0,-39.829999,352.90727,104.9341)" fill="#231f20"/>
<use xlink:href="#font_5_3" transform="matrix(39.829999,0,0,-39.829999,366.3459,97.20708)" fill="#231f20"/>
<symbol id="font_6_2">
<path transform="matrix(.01,0,0,-.01,.23299998,.45499999)" d="M 0 0 C 0 -4.5 -.4 -27.6 -21.2 -45.6 C -22.2 -45.4 -23 -44.7 -23.3 -43.9 C -20 -40.1 -8.3 -26.3 -8.3 0 C -8.3 26.3 -20.1 40.1 -23.3 43.7 C -23 44.7 -22.3 45.4 -21.2 45.5 C -9.3 35.3 0 18.6 0 0 "/>
</symbol>
<use xlink:href="#font_6_2" transform="matrix(39.829999,0,0,-39.829999,379.8682,104.894268)" fill="#231f20"/>
<use xlink:href="#font_5_3" transform="matrix(39.829999,0,0,-39.829999,573.8363,97.20708)" fill="#231f20"/>
<symbol id="font_6_3">
<path transform="matrix(.01,0,0,-.01,0,.053)" d="M 0 0 C 0 2.9 2.4 5.3 5.3 5.3 C 8.2 5.3 10.6 2.9 10.6 0 C 10.6 -2.9 8.2 -5.3 5.3 -5.3 C 2.4 -5.3 0 -2.9 0 0 Z M 0 -29.8 C 0 -26.9 2.4 -24.5 5.3 -24.5 C 8.2 -24.5 10.6 -26.9 10.6 -29.8 C 10.6 -32.7 8.2 -35.1 5.3 -35.1 C 2.4 -35.1 0 -32.7 0 -29.8 "/>
</symbol>
<symbol id="font_6_4">
</symbol>
<use xlink:href="#font_6_3" transform="matrix(39.829999,0,0,-39.829999,589.31027,96.52997)" fill="#231f20"/>
<use xlink:href="#font_6_4" transform="matrix(39.829999,0,0,-39.829999,595.9181,104.9341)" fill="#231f20"/>
<symbol id="font_4_459e">
<path d="M .21484375 .484375 C .21484375 .5494792 .21354167 .6041667 .2109375 .6484375 L .30078126 .609375 L .265625 .58203127 L .265625 .484375 L .296875 .484375 L .34375 .53125 L .41015626 .4609375 L .265625 .4609375 L .265625 .3203125 L .42578126 .37109376 L .4296875 .35546876 L .265625 .28515626 C .265625 .18619792 .2669271 .100260417 .26953126 .02734375 L .2109375 0 C .21354167 .106770839 .21484375 .1953125 .21484375 .265625 C .11328125 .22395833 .057291669 .19270833 .046875 .171875 L 0 .25 C .044270833 .2578125 .115885417 .27604167 .21484375 .3046875 L .21484375 .4609375 L .109375 .4609375 L .08203125 .43359376 L .03515625 .484375 L .06640625 .5078125 L .13671875 .703125 L .109375 .703125 C .088541667 .703125 .063802089 .69921877 .03515625 .69140627 L 0 .7265625 L .14453125 .7265625 C .16015625 .7760417 .17708333 .83723959 .1953125 .91015627 L .28125 .8515625 L .234375 .828125 L .19921875 .7265625 L .31640626 .7265625 L .3671875 .77734377 L .4375 .703125 L .19140625 .703125 L .11328125 .484375 L .21484375 .484375 M .671875 .859375 L .63671877 .83203127 C .69921877 .68880209 .79296877 .6015625 .91796877 .5703125 L .91796877 .55859377 C .88151046 .55338546 .85546877 .53776046 .83984377 .51171877 C .73828127 .58723959 .6666667 .6875 .625 .8125 C .5651042 .6770833 .4856771 .5729167 .38671876 .5 L .37890626 .51171877 C .4231771 .55598959 .46354167 .61067709 .5 .67578127 C .5364583 .74348959 .5677083 .82161459 .59375 .91015627 L .671875 .859375 M .484375 .33984376 C .484375 .4205729 .4830729 .48828126 .48046876 .54296877 L .57421877 .49609376 L .53515627 .46875 L .53515627 .296875 C .62630209 .35677085 .6979167 .421875 .75 .4921875 L .8125 .41796876 L .76171877 .41015626 C .68619796 .3580729 .61067709 .3138021 .53515627 .27734376 L .53515627 .15234375 C .53255209 .09765625 .55598959 .072916667 .60546877 .078125 L .73828127 .078125 C .76432296 .078125 .7786458 .100260417 .78125 .14453125 C .7838542 .18880208 .78515627 .22526042 .78515627 .25390626 L .80078127 .25390626 C .80338546 .22005208 .80598959 .18619792 .80859377 .15234375 C .81380209 .118489589 .8307292 .09765625 .859375 .08984375 C .84375 .053385419 .81119796 .033854169 .76171877 .03125 L .57421877 .03125 C .51171877 .03125 .48177085 .059895833 .484375 .1171875 L .484375 .33984376 Z "/>
</symbol>
<symbol id="font_4_2151">
<path d="M .6953125 .52734377 L .7578125 .6640625 L .4375 .6640625 C .41666667 .6276042 .39453126 .58984377 .37109376 .55078127 C .34765626 .51432296 .30989585 .4700521 .2578125 .41796876 L .24609375 .4296875 C .3059896 .5052083 .35416667 .5911458 .390625 .6875 C .42708335 .7838542 .44921876 .86067709 .45703126 .91796877 L .55078127 .87109377 C .52994796 .86067709 .51432296 .84375 .50390627 .8203125 C .4934896 .796875 .47395835 .7526042 .4453125 .6875 L .75390627 .6875 L .796875 .73046877 L .8671875 .65625 C .8411458 .6510417 .81901046 .640625 .80078127 .625 C .78255209 .609375 .75130209 .57421877 .70703127 .51953127 L .6953125 .52734377 M .56640627 .5546875 C .55078127 .38020835 .5052083 .2513021 .4296875 .16796875 C .35416667 .087239589 .2643229 .03125 .16015625 0 L .15234375 .01171875 C .28515626 .071614589 .37760417 .1484375 .4296875 .2421875 C .48177085 .33854167 .50911459 .46875 .51171877 .6328125 L .6015625 .5859375 L .578125 .56640627 C .5963542 .43359376 .63151046 .32552085 .68359377 .2421875 C .73828127 .16145833 .80859377 .10546875 .89453127 .07421875 L .890625 .0625 C .8515625 .065104167 .8229167 .052083333 .8046875 .0234375 C .7395833 .072916667 .6848958 .14192708 .640625 .23046875 C .5989583 .3190104 .57421877 .42708335 .56640627 .5546875 M .05078125 .875 C .10546875 .8463542 .14322917 .8203125 .1640625 .796875 C .1875 .7734375 .19921875 .75390627 .19921875 .73828127 C .19921875 .72265627 .19270833 .70703127 .1796875 .69140627 C .16927083 .67578127 .16276042 .66796877 .16015625 .66796877 C .14973958 .66796877 .140625 .6848958 .1328125 .71875 C .119791667 .765625 .08984375 .81380209 .04296875 .86328127 L .05078125 .875 M 0 .359375 C .018229166 .35677085 .03515625 .35546876 .05078125 .35546876 C .07421875 .35546876 .092447917 .3606771 .10546875 .37109376 C .118489589 .3815104 .1796875 .515625 .2890625 .7734375 L .3046875 .765625 C .203125 .5 .14973958 .36197917 .14453125 .3515625 C .13932292 .34114585 .13671875 .3190104 .13671875 .28515626 C .13671875 .25390626 .140625 .2109375 .1484375 .15625 C .15625 .098958339 .14713542 .071614589 .12109375 .07421875 C .09765625 .076822917 .083333339 .084635417 .078125 .09765625 C .072916667 .110677089 .0703125 .122395839 .0703125 .1328125 C .0703125 .14322917 .072916667 .16276042 .078125 .19140625 C .0859375 .23307292 .088541667 .2643229 .0859375 .28515626 C .083333339 .30859376 .0546875 .328125 0 .34375 L 0 .359375 Z "/>
</symbol>
<symbol id="font_4_1a00">
<path d="M .46875 .69140627 L .46875 .57421877 L .71875 .57421877 L .71875 .69140627 L .46875 .69140627 M .4140625 .4921875 C .41666667 .5416667 .41796876 .6041667 .41796876 .6796875 C .41796876 .7578125 .41666667 .8255208 .4140625 .8828125 L .46875 .84765627 L .7109375 .84765627 L .73828127 .88671877 L .796875 .84375 L .76953127 .8203125 C .76953127 .6692708 .7708333 .57421877 .7734375 .53515627 L .71875 .5078125 L .71875 .55078127 L .46875 .55078127 L .46875 .515625 L .4140625 .4921875 M .27734376 .44921876 L .7890625 .44921876 L .83984377 .5 L .9140625 .42578126 L .625 .42578126 L .625 .2890625 L .76171877 .2890625 L .8046875 .33203126 L .87109377 .265625 L .625 .265625 L .625 .10546875 C .671875 .095052089 .72005209 .08984375 .76953127 .08984375 C .81119796 .08984375 .859375 .09375 .9140625 .1015625 L .9140625 .0859375 C .8671875 .0703125 .84375 .049479169 .84375 .0234375 C .703125 .026041666 .60546877 .044270833 .55078127 .078125 C .4986979 .111979167 .45052085 .1640625 .40625 .234375 C .36197917 .13802083 .29947917 .059895833 .21875 0 L .2109375 .01171875 C .25260417 .053385419 .2903646 .10546875 .32421876 .16796875 C .3580729 .23307292 .37760417 .30859376 .3828125 .39453126 L .46484376 .34375 L .43359376 .328125 C .42578126 .29947917 .41927085 .2747396 .4140625 .25390626 C .4609375 .19140625 .51432296 .14713542 .57421877 .12109375 L .57421877 .42578126 L .40625 .42578126 C .37239585 .42578126 .34114585 .421875 .3125 .4140625 L .27734376 .44921876 M .46875 .82421877 L .46875 .71484377 L .71875 .71484377 L .71875 .82421877 L .46875 .82421877 M .02734375 .109375 C .069010417 .104166667 .1015625 .100260417 .125 .09765625 C .15104167 .09765625 .16276042 .111979167 .16015625 .140625 L .16015625 .421875 C .12630208 .40104167 .095052089 .38020835 .06640625 .359375 L .046875 .33203126 L 0 .40234376 C .028645834 .41015626 .08203125 .4309896 .16015625 .46484376 L .16015625 .67578127 L .0859375 .67578127 L .0390625 .66796877 L .0078125 .69921877 L .16015625 .69921877 C .16015625 .79036459 .15885417 .8619792 .15625 .9140625 L .24609375 .87109377 L .2109375 .84375 L .2109375 .69921877 L .2578125 .69921877 L .30078126 .7421875 L .3671875 .67578127 L .2109375 .67578127 L .2109375 .48828126 L .34375 .55078127 L .3515625 .5390625 L .2109375 .44921876 L .2109375 .1171875 C .2109375 .0703125 .18489583 .036458333 .1328125 .015625 C .13541667 .041666669 .100260417 .067708339 .02734375 .09375 L .02734375 .109375 Z "/>
</symbol>
<symbol id="font_4_1e78">
<path d="M .37109376 .91796877 C .42578126 .89973959 .45833335 .88411459 .46875 .87109377 C .47916667 .86067709 .484375 .85026046 .484375 .83984377 C .484375 .82682296 .48046876 .8151042 .47265626 .8046875 C .4674479 .7942708 .4622396 .7890625 .45703126 .7890625 C .44921876 .7890625 .44140626 .7994792 .43359376 .8203125 C .41796876 .8515625 .39583335 .8802083 .3671875 .90625 L .37109376 .91796877 M .71875 .6796875 L .75390627 .7578125 L .3984375 .7578125 L .4453125 .72265627 L .4140625 .70703127 L .36328126 .640625 L .7265625 .640625 L .78125 .6953125 L .859375 .6171875 L .64453127 .6171875 C .60807296 .5677083 .5729167 .5286458 .5390625 .5 C .6145833 .484375 .6692708 .46875 .703125 .453125 C .7395833 .4375 .75651046 .41927085 .75390627 .3984375 C .75390627 .37760417 .75 .3671875 .7421875 .3671875 C .734375 .3671875 .7265625 .36979167 .71875 .375 C .6927083 .38802085 .66276046 .40234376 .62890627 .41796876 C .59765627 .4361979 .5572917 .453125 .5078125 .46875 C .41927085 .40885417 .27864585 .37239585 .0859375 .359375 L .0859375 .375 C .24739583 .39583335 .37109376 .43229167 .45703126 .484375 C .40234376 .49739585 .32421876 .5104167 .22265625 .5234375 C .24869792 .5546875 .2734375 .5859375 .296875 .6171875 L .11328125 .6171875 L .078125 .609375 L .046875 .640625 L .30859376 .640625 C .3450521 .6979167 .3671875 .7369792 .375 .7578125 L .1484375 .7578125 C .1484375 .71875 .140625 .6927083 .125 .6796875 C .111979167 .6692708 .100260417 .6640625 .08984375 .6640625 C .079427089 .6640625 .069010417 .6666667 .05859375 .671875 C .05078125 .6770833 .046875 .68098959 .046875 .68359377 C .046875 .69401046 .055989583 .70442709 .07421875 .71484377 C .100260417 .73307296 .119791667 .7682292 .1328125 .8203125 L .1484375 .8203125 L .1484375 .78125 L .75 .78125 L .78515627 .8203125 L .8515625 .7578125 C .8359375 .7578125 .8177083 .75 .796875 .734375 C .7786458 .7213542 .75651046 .7005208 .73046877 .671875 L .71875 .6796875 M .3515625 .6171875 C .33333335 .59375 .3125 .56640627 .2890625 .53515627 C .34635417 .52994796 .4127604 .52213546 .48828126 .51171877 C .51953127 .54036459 .5494792 .5755208 .578125 .6171875 L .3515625 .6171875 M .42578126 0 C .4283854 .088541667 .4296875 .1796875 .4296875 .2734375 C .328125 .15104167 .18619792 .063802089 .00390625 .01171875 L 0 .02734375 C .15625 .087239589 .27864585 .17317708 .3671875 .28515626 L .09765625 .28515626 L .0546875 .27734376 L .0234375 .30859376 L .4296875 .30859376 C .4296875 .3372396 .4283854 .37109376 .42578126 .41015626 L .51953127 .37109376 L .484375 .34765626 L .484375 .30859376 L .75390627 .30859376 L .8125 .3671875 L .89453127 .28515626 L .515625 .28515626 C .609375 .17317708 .73828127 .111979167 .90234377 .1015625 L .90234377 .0859375 C .86328127 .078125 .8385417 .059895833 .828125 .03125 C .6744792 .080729167 .56380209 .16536458 .49609376 .28515626 L .484375 .28515626 C .484375 .16536458 .4856771 .080729167 .48828126 .03125 L .42578126 0 Z "/>
</symbol>
<symbol id="font_4_3635">
<path d="M .30859376 .37890626 L .30859376 .26953126 L .64453127 .26953126 L .64453127 .3984375 L .34375 .3984375 L .30859376 .37890626 M .30859376 .24609375 L .30859376 .1015625 L .64453127 .1015625 L .64453127 .24609375 L .30859376 .24609375 M .37109376 .8984375 L .46484376 .859375 L .4296875 .828125 L .4296875 .74609377 L .484375 .74609377 L .5390625 .80078127 L .609375 .72265627 L .4296875 .72265627 L .4296875 .58203127 L .48828126 .58203127 C .51171877 .60546877 .5442708 .640625 .5859375 .6875 C .6276042 .7369792 .6692708 .79557296 .7109375 .86328127 L .77734377 .80078127 L .7421875 .78515627 C .6744792 .70703127 .61328127 .63932296 .55859377 .58203127 L .765625 .58203127 L .828125 .640625 L .90625 .55859377 L .53515627 .55859377 C .4778646 .50651046 .4231771 .4609375 .37109376 .421875 L .63671877 .421875 L .66796877 .46484376 L .734375 .41796876 L .69921877 .38671876 C .69921877 .2825521 .69921877 .20572917 .69921877 .15625 C .69921877 .106770839 .7005208 .06640625 .703125 .03515625 L .64453127 .01171875 L .64453127 .078125 L .30859376 .078125 L .30859376 .0234375 L .25 0 C .25260417 .0234375 .25390626 .065104167 .25390626 .125 C .25390626 .18489583 .25390626 .2565104 .25390626 .33984376 C .16796875 .2903646 .0859375 .2513021 .0078125 .22265625 L 0 .234375 C .096354167 .28385417 .18098958 .3346354 .25390626 .38671876 C .25390626 .4049479 .25260417 .4283854 .25 .45703126 L .30859376 .42578126 C .3684896 .4700521 .421875 .51432296 .46875 .55859377 L .1328125 .55859377 C .098958339 .55859377 .067708339 .5546875 .0390625 .546875 L .00390625 .58203127 L .375 .58203127 L .375 .72265627 L .25 .72265627 C .21614583 .72265627 .18489583 .71875 .15625 .7109375 L .12109375 .74609377 L .375 .74609377 C .375 .81640627 .3736979 .8671875 .37109376 .8984375 Z "/>
</symbol>
<symbol id="font_4_19d5">
<path d="M .35546876 .76171877 L .76953127 .76171877 L .8125 .8046875 L .87890627 .73828127 L .4765625 .73828127 C .44270835 .73828127 .4140625 .734375 .390625 .7265625 L .35546876 .76171877 M .44921876 .72265627 C .50651046 .68359377 .53776046 .65755209 .54296877 .64453127 C .55078127 .63151046 .5546875 .6223958 .5546875 .6171875 C .5546875 .6067708 .5494792 .59505209 .5390625 .58203127 C .5286458 .57161459 .5208333 .56640627 .515625 .56640627 C .5078125 .56640627 .50130209 .578125 .49609376 .6015625 C .48828126 .6328125 .46875 .67057296 .4375 .71484377 L .44921876 .72265627 M .5859375 .4765625 L .53125 .375 L .8125 .375 L .859375 .421875 L .92578127 .3515625 L .76171877 .3515625 C .72265627 .26822917 .6901042 .2109375 .6640625 .1796875 C .7161458 .16145833 .7604167 .14192708 .796875 .12109375 C .8333333 .102864589 .8541667 .087239589 .859375 .07421875 C .8671875 .05859375 .87109377 .045572919 .87109377 .03515625 C .87109377 .02734375 .86848959 .020833334 .86328127 .015625 C .86067709 .0078125 .8567708 .00390625 .8515625 .00390625 C .84375 .00390625 .83203127 .01171875 .81640627 .02734375 C .79296877 .053385419 .7682292 .07421875 .7421875 .08984375 C .71875 .10546875 .68359377 .123697917 .63671877 .14453125 C .59505209 .108072917 .5442708 .076822917 .484375 .05078125 C .42708335 .024739584 .34765626 .0078125 .24609375 0 L .24609375 .015625 C .30078126 .0234375 .35677085 .0390625 .4140625 .0625 C .47395835 .083333339 .53125 .1171875 .5859375 .1640625 C .5260417 .1875 .4609375 .20572917 .390625 .21875 C .41666667 .26302085 .44270835 .30729167 .46875 .3515625 L .328125 .3515625 L .29296876 .34375 L .26171876 .375 L .4765625 .375 C .5026042 .43489585 .5234375 .48828126 .5390625 .53515627 L .3671875 .53515627 L .33203126 .52734377 L .30078126 .55859377 L .62890627 .55859377 C .63932296 .58203127 .64973959 .60807296 .66015627 .63671877 C .67317709 .66536459 .6848958 .6979167 .6953125 .734375 L .7734375 .6796875 L .73828127 .671875 C .70182296 .6197917 .67317709 .58203127 .65234377 .55859377 L .796875 .55859377 L .84375 .60546877 L .9140625 .53515627 L .546875 .53515627 L .6171875 .4921875 L .5859375 .4765625 M .44921876 .23046875 C .50651046 .22005208 .56119796 .20833333 .61328127 .1953125 C .64713546 .23958333 .67578127 .29166667 .69921877 .3515625 L .5234375 .3515625 C .5 .3125 .4752604 .2721354 .44921876 .23046875 M .52734377 .91015627 C .57421877 .88411459 .6041667 .8645833 .6171875 .8515625 C .6302083 .8385417 .63671877 .828125 .63671877 .8203125 C .63671877 .8098958 .63151046 .79817709 .62109377 .78515627 C .61067709 .77213546 .6041667 .765625 .6015625 .765625 C .59375 .765625 .58723959 .7760417 .58203127 .796875 C .57161459 .828125 .5494792 .86328127 .515625 .90234377 L .52734377 .91015627 M .22265625 .46875 L .33203126 .515625 L .33984376 .50390627 L .22265625 .43359376 L .22265625 .1015625 C .22265625 .059895833 .19661458 .02734375 .14453125 .00390625 C .14973958 .032552083 .1171875 .061197919 .046875 .08984375 L .046875 .10546875 C .104166667 .095052089 .13932292 .091145839 .15234375 .09375 C .16536458 .09375 .171875 .104166667 .171875 .125 L .171875 .40625 C .1015625 .36458335 .061197919 .3359375 .05078125 .3203125 L 0 .38671876 C .046875 .3997396 .104166667 .4205729 .171875 .44921876 L .171875 .66796877 L .08984375 .66796877 L .04296875 .66015627 L .01171875 .69140627 L .171875 .69140627 C .171875 .79817709 .17057292 .87369796 .16796875 .91796877 L .25390626 .875 L .22265625 .84765627 L .22265625 .69140627 L .2734375 .69140627 L .31640626 .734375 L .3828125 .66796877 L .22265625 .66796877 L .22265625 .46875 Z "/>
</symbol>
<symbol id="font_4_a07">
<path d="M .09375 .79296877 C .2109375 .80078127 .33203126 .81380209 .45703126 .83203127 C .58203127 .85286459 .66796877 .87630209 .71484377 .90234377 L .77734377 .82421877 C .65755209 .81380209 .5494792 .8046875 .453125 .796875 C .35416667 .7864583 .234375 .77994796 .09375 .77734377 L .09375 .79296877 M .5703125 .57421877 C .6041667 .63411459 .63411459 .7057292 .66015627 .7890625 L .75 .73046877 L .70703127 .71484377 C .66276046 .66015627 .62630209 .61328127 .59765627 .57421877 L .7734375 .57421877 L .80859377 .6171875 L .88671877 .5390625 C .83984377 .5338542 .79036459 .49609376 .73828127 .42578126 L .7265625 .43359376 L .77734377 .55078127 L .1171875 .55078127 C .122395839 .49609376 .1171875 .4609375 .1015625 .4453125 C .0859375 .4296875 .067708339 .4231771 .046875 .42578126 C .028645834 .4309896 .01953125 .4375 .01953125 .4453125 C .01953125 .453125 .02734375 .46614585 .04296875 .484375 C .069010417 .515625 .087239589 .5625 .09765625 .625 L .11328125 .625 L .1171875 .57421877 L .20703125 .57421877 C .20442708 .58984377 .19921875 .61067709 .19140625 .63671877 C .18359375 .66536459 .16536458 .69921877 .13671875 .73828127 L .1484375 .74609377 C .1875 .72526046 .21614583 .70442709 .234375 .68359377 C .25520835 .66276046 .265625 .6458333 .265625 .6328125 C .265625 .6145833 .25520835 .59505209 .234375 .57421877 L .4140625 .57421877 C .40885417 .61067709 .40234376 .640625 .39453126 .6640625 C .38671876 .6875 .37239585 .71744796 .3515625 .75390627 L .36328126 .76171877 C .3971354 .74088546 .4231771 .71875 .44140626 .6953125 C .4622396 .671875 .47265626 .65234377 .47265626 .63671877 C .47265626 .61588546 .4609375 .59505209 .4375 .57421877 L .5703125 .57421877 M .140625 .4296875 L .5859375 .4296875 L .625 .46875 L .6953125 .40234376 L .6484375 .3828125 C .6015625 .30989585 .54557296 .24348958 .48046876 .18359375 C .59244796 .110677089 .7317708 .079427089 .8984375 .08984375 L .8984375 .07421875 C .8463542 .061197919 .8177083 .040364583 .8125 .01171875 C .6744792 .02734375 .5494792 .075520839 .4375 .15625 C .3125 .072916667 .16796875 .020833334 .00390625 0 L 0 .015625 C .1640625 .052083333 .296875 .109375 .3984375 .1875 C .33854167 .25260417 .29296876 .32552085 .26171876 .40625 L .20703125 .40625 L .171875 .3984375 L .140625 .4296875 M .28125 .40625 C .32291667 .33333335 .375 .26953126 .4375 .21484375 C .5026042 .2721354 .55338546 .3359375 .58984377 .40625 L .28125 .40625 Z "/>
</symbol>
<use xlink:href="#font_4_459e" transform="matrix(39.829999,0,0,-39.829999,607.4354,100.54284)" fill="#231f20"/>
<use xlink:href="#font_4_2151" transform="matrix(39.829999,0,0,-39.829999,647.24728,100.85401)" fill="#231f20"/>
<use xlink:href="#font_4_1a00" transform="matrix(39.829999,0,0,-39.829999,1352.2488,100.698429)" fill="#231f20"/>
<use xlink:href="#font_4_1e78" transform="matrix(39.829999,0,0,-39.829999,1391.1271,100.698429)" fill="#231f20"/>
<use xlink:href="#font_4_3635" transform="matrix(39.829999,0,0,-39.829999,1429.8497,100.54284)" fill="#231f20"/>
<use xlink:href="#font_4_19d5" transform="matrix(39.829999,0,0,-39.829999,1578.7455,100.54284)" fill="#231f20"/>
<use xlink:href="#font_4_a07" transform="matrix(39.829999,0,0,-39.829999,1618.4057,100.38725)" fill="#231f20"/>
<use xlink:href="#font_4_3635" transform="matrix(39.829999,0,0,-39.829999,1656.6616,100.54284)" fill="#231f20"/>
<symbol id="font_5_5">
<path transform="matrix(.01,0,0,-.01,0,.172)" d="M 0 0 C 0 5.3 1.3 17.2 14 17.2 C 17.2 17.2 20.3 16.8 23.2 15.3 C 31.9 10.9 38.7 .3 38.7 -11.5 C 38.7 -18.7 36.9 -27.7 24.6 -27.7 C 7.9 -27.7 0 -12 0 0 Z M 8.3 -.8 C 8.3 -9.8 12.2 -24.4 22.8 -24.4 C 25.8 -24.4 27.4 -22.8 28.9 -20 C 30.1 -17.5 30.4 -13.8 30.4 -10.8 C 30.4 -6.8 29.8 1.8 26.1 7.4 C 23.3 11.7 19.3 13.5 15.5 13.5 C 12.6 13.5 8.3 9.7 8.3 -.8 "/>
</symbol>
<symbol id="font_5_6">
<path transform="matrix(.01,0,0,-.01,.07,.33099998)" d="M 0 0 L -5.7 24.9 C -6.2 26.9 -7 29.4 -7 30.4 C -7 32 -6.1 33.1 -2.9 33.1 C .9 33.1 .7 28.7 1.7 24.9 L 5.7 8.8 C 13.5 -2.5 19.1 -5.8 22.3 -5.8 C 24.3 -5.8 24.9 -5.1 24.9 -2.1 C 24.9 -.9 24.8 1.5 24.1 4.6 L 19.3 24.9 C 18.8 26.9 18 29.4 18 30.4 C 18 32 18.9 33.1 22.1 33.1 C 25.9 33.1 25.8 28.7 26.7 24.9 L 30.5 9.2 C 39 -2.7 42.9 -5.8 46.1 -5.8 C 48 -5.8 49 -5.1 49 -2.1 C 49 -1 48.9 1.9 48.1 5 L 44.2 20.7 C 43.2 24.8 42.4 28.9 42.4 29.8 C 42.4 31.8 44.2 33.1 45.6 33.1 C 51.5 33.1 57 30.2 60.4 22 C 60.2 21.1 59.5 20.6 58.2 20.6 C 55.8 24.4 53 27.1 51.2 27.1 C 50.7 27.1 50.5 26.5 50.5 26 C 50.5 25.6 50.7 23.1 51 22 L 55.7 4.2 C 56.3 1.9 56.7 -1.2 56.7 -3.1 C 56.7 -9.4 53.7 -11.8 50.6 -11.8 C 43.5 -11.8 38 -5.7 32.2 1.6 C 32.5 0 32.6 -1.8 32.6 -3.1 C 32.6 -10.1 29.6 -11.8 26.8 -11.8 C 19.6 -11.8 13.1 -6.5 7.2 1.1 L 7 1 L 7.2 .1 C 8.2 -3.8 9.5 -7.7 9.5 -9.4 C 9.5 -10.8 8.7 -11.5 7.4 -11.5 C 4.2 -11.5 -.3 -10.8 -5 -10.2 C -5.7 -9.4 -5.5 -8.3 -4.9 -7.4 L -.9 -7.1 C .3 -7 .9 -6.1 .9 -5.1 C .9 -4.2 .6 -2.8 0 0 "/>
</symbol>
<symbol id="font_5_7">
<path transform="matrix(.01,0,0,-.01,.138,.32999999)" d="M 0 0 C .9 -3.9 2.1 -7.8 2.1 -9.5 C 2.1 -10.9 1.3 -11.6 0 -11.6 C -3.2 -11.6 -7.7 -10.9 -12.4 -10.3 C -13.1 -9.5 -12.9 -8.4 -12.3 -7.5 L -8.3 -7.2 C -7.1 -7.1 -6.5 -6.2 -6.5 -5.2 C -6.5 -4.3 -6.7 -2.9 -7.4 -.1 L -12.1 20.5 C -12.8 23.7 -13.8 27.8 -13.8 29.7 C -13.8 31.6 -12.7 33 -9.7 33 C -4.9 33 -.4 29.6 4.2 23.7 C 3.9 22.8 3.3 22 1.9 22 C -.7 25 -3.6 27 -4.6 27 C -5.3 27 -5.6 26.5 -5.6 25.3 C -5.6 24.4 -5.1 22.2 -4.5 19.6 L 0 0 Z M -4.4 -25 C -4.4 -22.4 -2.2 -20.2 .4 -20.2 C 3 -20.2 5.2 -22.4 5.2 -25 C 5.2 -27.6 3 -29.8 .4 -29.8 C -2.2 -29.8 -4.4 -27.6 -4.4 -25 "/>
</symbol>
<symbol id="font_5_8">
<path transform="matrix(.01,0,0,-.01,.114999998,0)" d="M 0 0 L 1.5 0 C 11.3 0 17.2 -5.4 17.2 -12.8 C 17.2 -17.5 14.5 -22.1 5.3 -28.2 C 2.3 -30.2 1.3 -32 1.3 -34.5 C 1.3 -38 3.3 -41.6 7.6 -41.6 C 10.1 -41.6 11.8 -40.8 12.1 -38.7 C 12.4 -36.3 14.1 -33.5 16.7 -33.5 C 19.5 -33.5 20.3 -35.3 20.3 -36.9 C 20.3 -40.5 15.1 -44.9 8.9 -44.9 C .2 -44.9 -5.1 -38.5 -5.1 -32.4 C -5.1 -28.4 -2.9 -24.1 3.6 -19.7 C 8.9 -16.1 9.7 -12.8 9.7 -10.7 C 9.7 -5.2 5.7 -3.3 1.2 -3.3 C -1.4 -3.3 -2.8 -3.8 -3.1 -6 C -3.4 -8.3 -4.8 -11.3 -7.8 -11.3 C -10.7 -11.3 -11.5 -8.9 -11.5 -7.8 C -11.5 -4.1 -6.9 -.4 0 0 "/>
</symbol>
<use xlink:href="#font_5_0" transform="matrix(39.829999,0,0,-39.829999,232.32593,186.50194)" fill="#231f20"/>
<use xlink:href="#font_5_2" transform="matrix(39.829999,0,0,-39.829999,256.10444,177.4207)" fill="#231f20"/>
<use xlink:href="#font_5_5" transform="matrix(39.829999,0,0,-39.829999,269.567,177.4207)" fill="#231f20"/>
<use xlink:href="#font_5_6" transform="matrix(39.829999,0,0,-39.829999,288.72523,177.4207)" fill="#231f20"/>
<use xlink:href="#font_5_7" transform="matrix(39.829999,0,0,-39.829999,319.71296,177.4207)" fill="#231f20"/>
<use xlink:href="#font_5_8" transform="matrix(39.829999,0,0,-39.829999,328.79423,177.4207)" fill="#231f20"/>
<use xlink:href="#font_5_3" transform="matrix(39.829999,0,0,-39.829999,343.81013,177.4207)" fill="#231f20"/>
<use xlink:href="#font_6_0" transform="matrix(39.829999,0,0,-39.829999,358.2684,185.14772)" fill="#231f20"/>
<use xlink:href="#font_5_3" transform="matrix(39.829999,0,0,-39.829999,371.70704,177.4207)" fill="#231f20"/>
<symbol id="font_6_5">
<path transform="matrix(.01,0,0,-.01,.060999998,.22799999)" d="M 0 0 C -3.1 0 -5.3 2.1 -5.3 4.9 C -5.3 8 -2.7 9 -.9 9.3 C 1 9.5 2.7 10.1 2.7 12.4 C 2.7 14.5 -.9 19.1 -6.1 20.4 C -6.1 21.4 -5.9 22.1 -5.2 22.8 C .8 21.7 6.6 16.9 6.6 9.9 C 6.6 3.9 4 0 0 0 "/>
</symbol>
<use xlink:href="#font_6_5" transform="matrix(39.829999,0,0,-39.829999,386.1056,182.3198)" fill="#231f20"/>
<use xlink:href="#font_6_4" transform="matrix(39.829999,0,0,-39.829999,393.15553,185.14772)" fill="#231f20"/>
<symbol id="font_5_9">
<path transform="matrix(.01,0,0,-.01,.266,.62799999)" d="M 0 0 C -2 11.4 -3.1 17.4 -4.1 24.9 C -5.4 34.7 -7.3 50.8 -10.9 56.5 C -12 58.2 -14 59.5 -15.5 59.5 C -16.9 59.5 -17.3 58.8 -17.9 57.8 C -18.8 56.5 -20.7 54.6 -22.9 54.6 C -25.7 54.6 -26.6 56.5 -26.6 58.2 C -26.6 60.4 -24.2 62.8 -17.4 62.8 C -13.3 62.8 -8.9 60.8 -5.8 56.5 C -3 52.6 -.8 45 3.1 26 C 4.7 18.2 6.3 10.1 7.8 1.7 L 8.1 0 L 17.4 0 C 18.3 0 19.8 -.4 20 -1.2 C 20 -1.2 20.5 -3.3 20.5 -3.4 C 20.5 -3.7 20.3 -3.9 19.8 -3.9 L 8.8 -3.9 L 9.9 -9.6 C 10.6 -13.4 11.7 -16.8 12.9 -19.5 C 15.4 -25.7 19.5 -27.5 21.2 -27.5 C 23.5 -27.5 24.6 -27 25.1 -24.9 C 25.5 -22.7 26.3 -20 29.7 -20 C 32.8 -20 33.5 -22.4 33.5 -23.4 C 33.5 -27.4 29.1 -30.8 22 -30.8 C 19.2 -30.8 13.1 -29.3 8.9 -24.4 C 5.4 -20.3 2.8 -12.6 1 -3.9 L -5.6 -3.6 C -7.5 -3.5 -8.2 -2.7 -8.4 -1.9 C -8.5 -1.6 -8.8 -.4 -8.8 -.2 C -8.8 0 -8.5 0 -8.2 0 L 0 0 "/>
</symbol>
<use xlink:href="#font_5_9" transform="matrix(39.829999,0,0,-39.829999,400.04209,186.50194)" fill="#231f20"/>
<use xlink:href="#font_6_5" transform="matrix(39.829999,0,0,-39.829999,417.39604,182.3198)" fill="#231f20"/>
<use xlink:href="#font_6_4" transform="matrix(39.829999,0,0,-39.829999,424.44596,185.14772)" fill="#231f20"/>
<symbol id="font_5_a">
<path transform="matrix(.01,0,0,-.01,.22299999,.088)" d="M 0 0 L -3.4 -23.3 C -4.8 -32.6 -6 -36.3 -9.7 -36.3 C -13 -36.3 -18.8 -30.4 -22.3 -25.1 C -22.1 -24.1 -21.3 -23.4 -20.2 -23.3 C -17.4 -26 -15.1 -28.1 -13.2 -28.1 C -12.2 -28.1 -11.7 -26.4 -10.9 -22 L -6.7 2.4 C -5.9 6.8 -4.9 8.8 -3.5 8.8 C -2.4 8.8 -1.1 7.2 .8 5.1 C 3.9 1.7 7.7 -3.1 9.2 -5.2 C 11.3 -8.2 15.9 -14.3 18.7 -20.9 C 20.2 -24.4 21.4 -28 21.4 -31.6 C 21.4 -34.4 20.1 -36.3 16.2 -36.3 C 13.3 -36.3 11.6 -35 11.6 -32.6 C 11.6 -32 11.8 -31 12.1 -30.6 C 13.6 -28.3 14.2 -26.2 14.2 -24.6 C 14.2 -20.2 10.5 -12.4 6.7 -7.3 C 5.4 -5.6 1.8 -.9 .4 .2 L 0 0 "/>
</symbol>
<use xlink:href="#font_5_a" transform="matrix(39.829999,0,0,-39.829999,437.70933,177.50037)" fill="#231f20"/>
<use xlink:href="#font_6_2" transform="matrix(39.829999,0,0,-39.829999,454.07945,185.1079)" fill="#231f20"/>
<use xlink:href="#font_5_3" transform="matrix(39.829999,0,0,-39.829999,573.8443,152.52696)" fill="#231f20"/>
<use xlink:href="#font_6_3" transform="matrix(39.829999,0,0,-39.829999,589.31826,151.84986)" fill="#231f20"/>
<use xlink:href="#font_6_4" transform="matrix(39.829999,0,0,-39.829999,595.926,160.25399)" fill="#231f20"/>
<use xlink:href="#font_4_459e" transform="matrix(39.829999,0,0,-39.829999,607.44338,155.86273)" fill="#231f20"/>
<use xlink:href="#font_4_2151" transform="matrix(39.829999,0,0,-39.829999,647.2592,156.17389)" fill="#231f20"/>
<use xlink:href="#font_5_9" transform="matrix(39.829999,0,0,-39.829999,567.43167,208.63152)" fill="#231f20"/>
<use xlink:href="#font_6_5" transform="matrix(39.829999,0,0,-39.829999,584.7856,204.44937)" fill="#231f20"/>
<use xlink:href="#font_6_4" transform="matrix(39.829999,0,0,-39.829999,591.8355,207.2773)" fill="#231f20"/>
<use xlink:href="#font_5_a" transform="matrix(39.829999,0,0,-39.829999,605.0949,199.62995)" fill="#231f20"/>
<use xlink:href="#font_6_3" transform="matrix(39.829999,0,0,-39.829999,623.4167,198.87317)" fill="#231f20"/>
<use xlink:href="#font_6_4" transform="matrix(39.829999,0,0,-39.829999,630.02847,207.2773)" fill="#231f20"/>
<symbol id="font_4_1d30">
<path d="M .19140625 .52734377 L .19140625 .4453125 L .375 .4453125 L .375 .52734377 L .19140625 .52734377 M .19140625 .421875 L .19140625 .33203126 L .375 .33203126 L .375 .421875 L .19140625 .421875 M .19140625 .30859376 L .19140625 .18359375 L .375 .21484375 L .375 .30859376 L .19140625 .30859376 M .54296877 .43359376 C .55338546 .3971354 .5677083 .3606771 .5859375 .32421876 C .6041667 .2877604 .62369796 .2578125 .64453127 .234375 C .66536459 .265625 .68359377 .2981771 .69921877 .33203126 C .71744796 .3658854 .73307296 .3997396 .74609377 .43359376 L .54296877 .43359376 M 0 .55078127 L .74609377 .55078127 L .80859377 .61328127 L .89453127 .52734377 L .42578126 .52734377 L .42578126 .2265625 L .5390625 .25 L .54296877 .234375 L .42578126 .19921875 L .42578126 .03125 L .375 0 L .375 .18359375 C .22916667 .14713542 .140625 .122395839 .109375 .109375 C .078125 .098958339 .059895833 .088541667 .0546875 .078125 L .0078125 .15234375 C .044270833 .15755208 .087239589 .1640625 .13671875 .171875 L .13671875 .52734377 L .08203125 .52734377 L .03125 .51953127 L 0 .55078127 M .44140626 .45703126 L .7421875 .45703126 L .7734375 .49609376 L .8359375 .44140626 L .80078127 .421875 C .76171877 .33333335 .72005209 .2591146 .67578127 .19921875 C .71744796 .16015625 .75390627 .1328125 .78515627 .1171875 C .81640627 .1015625 .8541667 .092447917 .8984375 .08984375 L .8984375 .07421875 C .8567708 .069010417 .8307292 .053385419 .8203125 .02734375 C .7916667 .040364583 .7630208 .05859375 .734375 .08203125 C .7057292 .102864589 .67578127 .13020833 .64453127 .1640625 C .59244796 .111979167 .5234375 .061197919 .4375 .01171875 L .42578126 .0234375 C .50130209 .075520839 .5651042 .1328125 .6171875 .1953125 C .59375 .23177083 .57421877 .26822917 .55859377 .3046875 C .54557296 .34375 .5338542 .38671876 .5234375 .43359376 L .47265626 .42578126 L .44140626 .45703126 M .24609375 .8515625 L .24609375 .765625 L .66796877 .765625 L .66796877 .8515625 L .24609375 .8515625 M .24609375 .7421875 L .24609375 .65625 L .66796877 .65625 L .66796877 .7421875 L .24609375 .7421875 M .1875 .90625 L .24609375 .875 L .66015627 .875 L .6875 .91796877 L .75390627 .87109377 L .72265627 .84375 C .72265627 .7161458 .7239583 .63932296 .7265625 .61328127 L .66796877 .5859375 L .66796877 .6328125 L .24609375 .6328125 L .24609375 .6015625 L .1875 .58203127 C .19010417 .63151046 .19140625 .6848958 .19140625 .7421875 C .19140625 .8020833 .19010417 .8567708 .1875 .90625 Z "/>
</symbol>
<symbol id="font_4_4601">
<path d="M .2734375 .1484375 C .359375 .25 .3984375 .3815104 .390625 .54296877 C .390625 .66015627 .3893229 .74348959 .38671876 .79296877 L .4453125 .75390627 C .5 .76171877 .56119796 .7734375 .62890627 .7890625 C .69921877 .8072917 .74609377 .82682296 .76953127 .84765627 L .82421877 .7734375 L .78515627 .77734377 C .64192709 .75390627 .52734377 .7395833 .44140626 .734375 L .44140626 .546875 L .7890625 .546875 L .8359375 .59375 L .90234377 .5234375 L .69921877 .5234375 C .69921877 .328125 .7005208 .19661458 .703125 .12890625 L .64453127 .1015625 C .64713546 .16927083 .6484375 .30989585 .6484375 .5234375 L .44140626 .5234375 C .44921876 .35677085 .39583335 .22786458 .28125 .13671875 L .2734375 .1484375 M .09375 .8359375 L .1015625 .84375 C .1484375 .8151042 .18229167 .79036459 .203125 .76953127 C .22395833 .75130209 .23307292 .73307296 .23046875 .71484377 C .22786458 .69921877 .22135417 .6875 .2109375 .6796875 C .203125 .671875 .19661458 .66796877 .19140625 .66796877 C .18098958 .66796877 .171875 .68359377 .1640625 .71484377 C .15364583 .75390627 .13020833 .7942708 .09375 .8359375 M .2109375 .17578125 C .234375 .15234375 .2669271 .12760417 .30859376 .1015625 C .3502604 .078125 .41015626 .065104167 .48828126 .0625 C .56901046 .059895833 .64453127 .059895833 .71484377 .0625 C .78776046 .065104167 .85807296 .069010417 .92578127 .07421875 L .92578127 .05859375 C .87109377 .045572919 .84375 .026041666 .84375 0 C .7239583 0 .625 .0013020834 .546875 .00390625 C .46875 .0065104167 .4075521 .016927084 .36328126 .03515625 C .3216146 .05078125 .28515626 .07421875 .25390626 .10546875 C .22005208 .13671875 .19921875 .15364583 .19140625 .15625 C .18359375 .16145833 .16666667 .14973958 .140625 .12109375 C .114583339 .092447917 .087239589 .055989583 .05859375 .01171875 L .00390625 .0625 C .055989583 .098958339 .108072917 .13671875 .16015625 .17578125 L .16015625 .51171877 L .12890625 .51171877 C .095052089 .51171877 .063802089 .5078125 .03515625 .5 L 0 .53515627 L .1484375 .53515627 L .19140625 .578125 L .24609375 .5234375 L .2109375 .5 L .2109375 .17578125 Z "/>
</symbol>
<symbol id="font_4_2cb4">
<path d="M .0546875 .67578127 L .0546875 .42578126 L .2578125 .42578126 L .2578125 .67578127 L .0546875 .67578127 M .0546875 .40234376 L .0546875 .12890625 L .2578125 .12890625 L .2578125 .40234376 L .0546875 .40234376 M .30859376 .65234377 C .30859376 .34765626 .30989585 .1484375 .3125 .0546875 L .2578125 .0234375 L .2578125 .10546875 L .0546875 .10546875 L .0546875 .0390625 L 0 .0078125 C .0026041668 .13020833 .00390625 .2513021 .00390625 .37109376 C .00390625 .4934896 .0026041668 .6145833 0 .734375 L .05859375 .69921877 L .09765625 .69921877 C .123697917 .78776046 .13802083 .85546877 .140625 .90234377 L .2265625 .85546877 C .20052083 .84244796 .16536458 .79036459 .12109375 .69921877 L .25 .69921877 L .2890625 .73828127 L .34765626 .6796875 L .30859376 .65234377 M .5 .8984375 L .5859375 .84765627 C .5651042 .83463546 .53255209 .78125 .48828126 .6875 L .69921877 .6875 L .7421875 .73046877 L .80078127 .671875 L .765625 .64453127 C .7604167 .33984376 .7526042 .16666667 .7421875 .125 C .734375 .0859375 .7213542 .05859375 .703125 .04296875 C .6875 .02734375 .6614583 .013020833 .625 0 C .6119792 .041666669 .56901046 .072916667 .49609376 .09375 L .49609376 .11328125 C .56119796 .100260417 .60807296 .09375 .63671877 .09375 C .66536459 .09375 .6822917 .115885417 .6875 .16015625 C .6953125 .20442708 .70182296 .37239585 .70703127 .6640625 L .48046876 .6640625 C .43359376 .5885417 .3841146 .52473959 .33203126 .47265626 L .3203125 .48046876 C .375 .56380209 .4153646 .6380208 .44140626 .703125 C .4674479 .7682292 .48697917 .8333333 .5 .8984375 M .4296875 .515625 C .4921875 .46875 .5286458 .43359376 .5390625 .41015626 C .5494792 .3893229 .5546875 .3736979 .5546875 .36328126 C .5546875 .3450521 .5494792 .3294271 .5390625 .31640626 C .5286458 .3033854 .5208333 .296875 .515625 .296875 C .5052083 .296875 .49739585 .31510417 .4921875 .3515625 C .48177085 .40364585 .45833335 .4544271 .421875 .50390627 L .4296875 .515625 Z "/>
</symbol>
<symbol id="font_4_2c8">
<path d="M .0546875 .061197919 C .0703125 .079427089 .083333339 .10546875 .09375 .13932292 C .0703125 .13932292 .053385419 .14322917 .04296875 .15104167 C .032552083 .15885417 .024739584 .16927083 .01953125 .18229167 C .016927084 .1953125 .016927084 .20703125 .01953125 .21744792 C .022135416 .23046875 .03125 .2421875 .046875 .25260417 C .0625 .265625 .08203125 .26953126 .10546875 .2643229 C .12890625 .2591146 .14322917 .24869792 .1484375 .23307292 C .15364583 .22005208 .15625 .20703125 .15625 .19401042 C .15625 .17838542 .15234375 .15755208 .14453125 .13151042 C .13671875 .108072917 .118489589 .08072917 .08984375 .049479169 C .063802089 .020833334 .041666669 .0052083346 .0234375 .002604168 C .0078125 .0000000012417635 0 .0000000012417635 0 .002604168 C 0 .0052083346 .00390625 .009114585 .01171875 .014322918 C .02734375 .02734375 .041666669 .04296875 .0546875 .061197919 Z "/>
</symbol>
<symbol id="font_4_66c">
<path d="M .19921875 .203125 C .19921875 .111979167 .20052083 .05078125 .203125 .01953125 L .14453125 0 C .14713542 .09375 .1484375 .15625 .1484375 .1875 L .1484375 .57421877 C .1015625 .4986979 .055989583 .4375 .01171875 .390625 L 0 .3984375 C .049479169 .47395835 .09375 .55859377 .1328125 .65234377 C .171875 .74609377 .20182292 .8333333 .22265625 .9140625 L .3046875 .86328127 L .265625 .83984377 C .22395833 .74348959 .19661458 .67838546 .18359375 .64453127 L .23046875 .6171875 L .19921875 .59375 L .19921875 .203125 M .41015626 .60546877 L .41015626 .48828126 L .7109375 .48828126 L .7109375 .60546877 L .41015626 .60546877 M .41015626 .46484376 L .41015626 .34765626 L .7109375 .34765626 L .7109375 .46484376 L .41015626 .46484376 M .41015626 .32421876 L .41015626 .20703125 L .7109375 .20703125 L .7109375 .32421876 L .41015626 .32421876 M .41015626 .18359375 L .41015626 .06640625 L .7109375 .06640625 L .7109375 .18359375 L .41015626 .18359375 M .515625 .765625 C .5182292 .8255208 .5182292 .87630209 .515625 .91796877 L .60546877 .875 L .57421877 .8515625 L .5703125 .765625 L .74609377 .765625 L .796875 .81640627 L .87109377 .7421875 L .5703125 .7421875 L .56640627 .62890627 L .703125 .62890627 L .73828127 .66796877 L .796875 .6171875 L .76171877 .59375 L .76171877 .06640625 L .796875 .06640625 L .84765627 .1171875 L .921875 .04296875 L .34375 .04296875 C .30989585 .04296875 .27864585 .0390625 .25 .03125 L .21484375 .06640625 L .359375 .06640625 L .359375 .5 C .359375 .53125 .3580729 .58463546 .35546876 .66015627 L .41015626 .62890627 L .51171877 .62890627 L .515625 .7421875 L .3984375 .7421875 C .36458335 .7421875 .33333335 .73828127 .3046875 .73046877 L .26953126 .765625 L .515625 .765625 Z "/>
</symbol>
<symbol id="font_4_2c4">
<path d="M .22395832 .059895837 C .26562498 .028645834 .28385417 .010416667 .2786458 .005208334 C .27343748 .00000000062088176 .24869789 .011718751 .20442707 .040364587 C .16015624 .071614589 .11718748 .111979167 .07552081 .16145833 C .036458315 .2109375 .013020813 .27604167 .0052083136 .35677085 C -.000000019868216 .4375 .016927064 .50911459 .055989565 .57161459 C .09505206 .63671877 .14062499 .6875 .19270832 .7239583 C .24739582 .7630208 .27473957 .7786458 .27473957 .7708333 C .27734373 .765625 .26041667 .74869796 .22395832 .72005209 C .18749999 .68880209 .15104164 .6458333 .11458331 .5911458 C .08072915 .5364583 .06380206 .46614585 .06380206 .38020835 C .06380206 .29427085 .08072915 .2265625 .11458331 .17708333 C .14843749 .13020833 .18489582 .091145839 .22395832 .059895837 Z "/>
</symbol>
<symbol id="font_4_a1f">
<path d="M 0 .796875 L .76953127 .796875 L .828125 .85546877 L .91015627 .7734375 L .72265627 .7734375 L .72265627 .13671875 C .72526046 .069010417 .69661459 .0234375 .63671877 0 C .63151046 .036458333 .58723959 .06640625 .50390627 .08984375 L .50390627 .109375 C .54296877 .104166667 .5807292 .100260417 .6171875 .09765625 C .65625 .095052089 .67317709 .11328125 .66796877 .15234375 L .66796877 .7734375 L .12890625 .7734375 C .095052089 .7734375 .063802089 .76953127 .03515625 .76171877 L 0 .796875 M .140625 .1875 C .14322917 .27864585 .14453125 .3580729 .14453125 .42578126 C .14453125 .49609376 .14322917 .56901046 .140625 .64453127 L .203125 .61328127 L .41796876 .61328127 L .44140626 .65234377 L .5078125 .6015625 L .4765625 .57421877 L .4765625 .40625 C .4765625 .36197917 .4778646 .30989585 .48046876 .25 L .421875 .2265625 L .421875 .296875 L .19921875 .296875 L .19921875 .20703125 L .140625 .1875 M .19921875 .58984377 L .19921875 .3203125 L .421875 .3203125 L .421875 .58984377 L .19921875 .58984377 Z "/>
</symbol>
<symbol id="font_4_46a">
<path d="M .14453125 .85546877 C .23567708 .80078127 .28385417 .7604167 .2890625 .734375 C .29427085 .7109375 .29166667 .6927083 .28125 .6796875 C .27083335 .6666667 .26302085 .66015627 .2578125 .66015627 C .24739583 .66015627 .23828125 .67317709 .23046875 .69921877 C .21484375 .73828127 .18229167 .7864583 .1328125 .84375 L .14453125 .85546877 M .42578126 .9140625 L .53125 .86328127 L .4921875 .8359375 C .484375 .7604167 .4752604 .6848958 .46484376 .609375 L .796875 .609375 L .828125 .66015627 L .8984375 .60546877 L .86328127 .57421877 C .84505209 .33984376 .8307292 .19921875 .8203125 .15234375 C .8125 .108072917 .79557296 .07421875 .76953127 .05078125 C .74348959 .02734375 .7109375 .010416667 .671875 0 C .65625 .044270833 .60286459 .075520839 .51171877 .09375 L .51171877 .11328125 C .60026046 .100260417 .6588542 .09375 .6875 .09375 C .7161458 .096354167 .7369792 .110677089 .75 .13671875 C .7630208 .16276042 .78125 .3125 .8046875 .5859375 L .4609375 .5859375 C .42708335 .421875 .3658854 .29296876 .27734376 .19921875 C .18880208 .10546875 .098958339 .0390625 .0078125 0 L 0 .01171875 C .096354167 .07421875 .18098958 .15364583 .25390626 .25 C .3268229 .34895835 .375 .4609375 .3984375 .5859375 L .16796875 .5859375 C .13411458 .5859375 .102864589 .58203127 .07421875 .57421877 L .0390625 .609375 L .40234376 .609375 C .41796876 .7005208 .42578126 .8020833 .42578126 .9140625 M .47265626 .46875 C .59244796 .4140625 .6588542 .3763021 .671875 .35546876 C .6848958 .3372396 .69140627 .3203125 .69140627 .3046875 C .69140627 .29166667 .68880209 .27864585 .68359377 .265625 C .67838546 .25260417 .67317709 .24609375 .66796877 .24609375 C .66015627 .24609375 .64713546 .26041667 .62890627 .2890625 C .60286459 .33072917 .54817709 .38541667 .46484376 .453125 L .47265626 .46875 Z "/>
</symbol>
<use xlink:href="#font_4_1d30" transform="matrix(39.829999,0,0,-39.829999,642.0086,203.1972)" fill="#231f20"/>
<use xlink:href="#font_4_4601" transform="matrix(39.829999,0,0,-39.829999,680.113,201.33019)" fill="#231f20"/>
<use xlink:href="#font_4_19d5" transform="matrix(39.829999,0,0,-39.829999,718.83969,202.88605)" fill="#231f20"/>
<use xlink:href="#font_4_a07" transform="matrix(39.829999,0,0,-39.829999,758.49996,202.73046)" fill="#231f20"/>
<use xlink:href="#font_4_2cb4" transform="matrix(39.829999,0,0,-39.829999,799.71609,202.57488)" fill="#231f20"/>
<use xlink:href="#font_4_459e" transform="matrix(39.829999,0,0,-39.829999,835.1754,202.88605)" fill="#231f20"/>
<use xlink:href="#font_4_2151" transform="matrix(39.829999,0,0,-39.829999,874.9913,203.1972)" fill="#231f20"/>
<use xlink:href="#font_4_2c8" transform="matrix(39.829999,0,0,-39.829999,915.8962,200.65598)" fill="#231f20"/>
<use xlink:href="#font_4_66c" transform="matrix(39.829999,0,0,-39.829999,951.3556,203.1972)" fill="#231f20"/>
<use xlink:href="#font_4_2c4" transform="matrix(39.829999,0,0,-39.829999,1011.1901,200.29294)" fill="#231f20"/>
<use xlink:href="#font_4_a1f" transform="matrix(39.829999,0,0,-39.829999,1029.1203,202.41928)" fill="#231f20"/>
<use xlink:href="#font_4_46a" transform="matrix(39.829999,0,0,-39.829999,1068.0025,202.88605)" fill="#231f20"/>
<symbol id="font_5_b">
<path transform="matrix(.01,0,0,-.01,.344,.13399999)" d="M 0 0 L 3.8 -15.9 C 4.6 -19.4 5.1 -21.7 5.1 -23.5 C 5.1 -29.5 2.4 -31.5 -1.5 -31.5 C -6.7 -31.5 -11 -29.4 -20.2 -18.6 L -20.3 -18.7 L -20 -19.6 C -18.7 -23.3 -17.8 -27.6 -17.8 -29.1 C -17.8 -30.5 -18.6 -31.2 -19.9 -31.2 C -23.1 -31.2 -27.8 -30.6 -32.5 -29.9 C -33.2 -29.1 -33 -28 -32.4 -27.1 L -28.4 -26.8 C -27.2 -26.7 -26.6 -25.8 -26.6 -24.8 C -26.6 -24 -26.9 -22.5 -27.5 -19.7 L -33.1 5.2 C -33.6 7.2 -34.4 9.7 -34.4 10.7 C -34.4 12.3 -33.3 13.4 -30.1 13.4 C -26.3 13.4 -26.4 9 -25.5 5.2 L -21.7 -11.4 C -15.4 -19.6 -9.9 -25.5 -6.3 -25.5 C -4.2 -25.5 -2.8 -25 -2.8 -21.9 C -2.8 -20.7 -3.4 -17.9 -4.1 -15.1 L -7.9 .9 C -8.7 4.1 -9.6 8.2 -9.6 10.1 C -9.6 12 -8.5 13.4 -5.5 13.4 C -.7 13.4 4.1 10 8.7 4.1 C 8.4 3.2 7.8 2.4 6.4 2.4 C 3.8 5.4 .9 7.4 -.1 7.4 C -.8 7.4 -1.1 6.9 -1.1 5.7 C -1.1 4.8 -.6 2.6 0 0 "/>
</symbol>
<symbol id="font_5_c">
<path transform="matrix(.01,0,0,-.01,.19299999,.593)" d="M 0 0 C 1.5 -6.5 2.5 -10.5 2.5 -10.5 C 2.5 -11.2 2.2 -11.5 1.3 -11.5 C -1.4 -10.5 -8.6 -9.2 -12.7 -8.9 L -13 -6.5 C -13 -6.2 -12.9 -6 -12.5 -6 L -9.4 -5.8 C -8.1 -5.8 -7.3 -5.2 -7.3 -3 C -7.3 -1.9 -7.5 -.2 -8 2 L -17.9 46.4 C -18.6 49.6 -19.3 53 -19.3 54.9 C -19.3 56.8 -18.8 59.3 -15.1 59.3 C -10.6 59.3 -5.1 56.7 -.6 49.2 C -1 48.2 -1.5 47.5 -2.8 47.5 C -5.8 51.1 -9 53.3 -10.2 53.3 C -11 53.3 -11.4 52.7 -11.4 51.9 C -11.4 51.1 -11.1 49.6 -10.2 45.6 L 0 0 "/>
</symbol>
<use xlink:href="#font_5_b" transform="matrix(39.829999,0,0,-39.829999,1108.2195,199.55028)" fill="#231f20"/>
<use xlink:href="#font_5_7" transform="matrix(39.829999,0,0,-39.829999,1129.5684,199.55028)" fill="#231f20"/>
<use xlink:href="#font_5_c" transform="matrix(39.829999,0,0,-39.829999,1140.0038,199.55028)" fill="#231f20"/>
<symbol id="font_4_2c5">
<path d="M .21875 .16796875 C .17708333 .11328125 .13020833 .0703125 .078125 .0390625 C .028645834 .010416667 .0026041668 0 0 .0078125 C 0 .013020833 .01953125 .029947916 .05859375 .05859375 C .095052089 .084635417 .1328125 .12760417 .171875 .1875 C .21354167 .25 .23177083 .3216146 .2265625 .40234376 C .22135417 .4830729 .20052083 .5494792 .1640625 .6015625 C .13020833 .65625 .095052089 .69921877 .05859375 .73046877 C .01953125 .76171877 0 .77994796 0 .78515627 C .0026041668 .79296877 .02734375 .77994796 .07421875 .74609377 C .123697917 .71484377 .171875 .6666667 .21875 .6015625 C .265625 .5390625 .2877604 .46484376 .28515626 .37890626 C .28515626 .29296876 .26302085 .22265625 .21875 .16796875 Z "/>
</symbol>
<symbol id="font_4_4bc">
<path d="M .09765625 .578125 L .671875 .578125 L .7265625 .6328125 L .8046875 .5546875 L .22265625 .5546875 C .19140625 .5546875 .16145833 .55078127 .1328125 .54296877 L .09765625 .578125 M 0 .03515625 L .7265625 .03515625 L .796875 .10546875 L .890625 .01171875 L .1328125 .01171875 C .096354167 .01171875 .063802089 .0078125 .03515625 0 L 0 .03515625 Z "/>
</symbol>
<use xlink:href="#font_4_2c5" transform="matrix(39.829999,0,0,-39.829999,1152.655,200.39667)" fill="#231f20"/>
<use xlink:href="#font_4_19d5" transform="matrix(39.829999,0,0,-39.829999,1351.9454,180.75647)" fill="#231f20"/>
<use xlink:href="#font_4_a07" transform="matrix(39.829999,0,0,-39.829999,1391.6017,180.60088)" fill="#231f20"/>
<use xlink:href="#font_4_3635" transform="matrix(39.829999,0,0,-39.829999,1429.8578,180.75647)" fill="#231f20"/>
<use xlink:href="#font_4_1a00" transform="matrix(39.829999,0,0,-39.829999,1579.0646,180.91205)" fill="#231f20"/>
<use xlink:href="#font_4_1e78" transform="matrix(39.829999,0,0,-39.829999,1617.9469,180.91205)" fill="#231f20"/>
<use xlink:href="#font_4_3635" transform="matrix(39.829999,0,0,-39.829999,1656.6697,180.75647)" fill="#231f20"/>
<use xlink:href="#font_4_315c" transform="matrix(39.829999,0,0,-39.829999,7.8345968,311.06874)" fill="#231f20"/>
<use xlink:href="#font_4_4bc" transform="matrix(39.829999,0,0,-39.829999,47.179666,305.7788)" fill="#231f20"/>
<use xlink:href="#font_4_4c66" transform="matrix(39.829999,0,0,-39.829999,86.99149,310.75758)" fill="#231f20"/>
<use xlink:href="#font_4_21e5" transform="matrix(39.829999,0,0,-39.829999,124.15836,310.75758)" fill="#231f20"/>
<use xlink:href="#font_5_0" transform="matrix(39.829999,0,0,-39.829999,232.32991,288.84513)" fill="#231f20"/>
<use xlink:href="#font_5_2" transform="matrix(39.829999,0,0,-39.829999,256.10844,279.7639)" fill="#231f20"/>
<use xlink:href="#font_5_5" transform="matrix(39.829999,0,0,-39.829999,269.57099,279.76393)" fill="#231f20"/>
<use xlink:href="#font_5_0" transform="matrix(39.829999,0,0,-39.829999,283.51148,288.84513)" fill="#231f20"/>
<use xlink:href="#font_5_5" transform="matrix(39.829999,0,0,-39.829999,307.13069,279.76393)" fill="#231f20"/>
<use xlink:href="#font_5_8" transform="matrix(39.829999,0,0,-39.829999,324.17793,279.7639)" fill="#231f20"/>
<use xlink:href="#font_5_3" transform="matrix(39.829999,0,0,-39.829999,339.19383,279.76393)" fill="#231f20"/>
<use xlink:href="#font_6_0" transform="matrix(39.829999,0,0,-39.829999,353.64814,287.4909)" fill="#231f20"/>
<use xlink:href="#font_5_3" transform="matrix(39.829999,0,0,-39.829999,367.08677,279.76393)" fill="#231f20"/>
<use xlink:href="#font_6_5" transform="matrix(39.829999,0,0,-39.829999,381.48533,284.663)" fill="#231f20"/>
<use xlink:href="#font_6_4" transform="matrix(39.829999,0,0,-39.829999,388.53526,287.4909)" fill="#231f20"/>
<use xlink:href="#font_5_a" transform="matrix(39.829999,0,0,-39.829999,401.7986,279.84358)" fill="#231f20"/>
<use xlink:href="#font_6_2" transform="matrix(39.829999,0,0,-39.829999,418.16874,287.45109)" fill="#231f20"/>
<use xlink:href="#font_5_3" transform="matrix(39.829999,0,0,-39.829999,573.84829,254.87017)" fill="#231f20"/>
<use xlink:href="#font_6_3" transform="matrix(39.829999,0,0,-39.829999,589.3222,254.19306)" fill="#231f20"/>
<use xlink:href="#font_6_4" transform="matrix(39.829999,0,0,-39.829999,595.93008,262.59718)" fill="#231f20"/>
<use xlink:href="#font_4_459e" transform="matrix(39.829999,0,0,-39.829999,607.4474,258.20594)" fill="#231f20"/>
<use xlink:href="#font_4_2151" transform="matrix(39.829999,0,0,-39.829999,647.2632,258.5171)" fill="#231f20"/>
<use xlink:href="#font_5_a" transform="matrix(39.829999,0,0,-39.829999,573.8084,301.97315)" fill="#231f20"/>
<use xlink:href="#font_6_3" transform="matrix(39.829999,0,0,-39.829999,592.13027,301.21638)" fill="#231f20"/>
<use xlink:href="#font_6_4" transform="matrix(39.829999,0,0,-39.829999,598.742,309.62049)" fill="#231f20"/>
<use xlink:href="#font_4_1a00" transform="matrix(39.829999,0,0,-39.829999,610.41098,305.38484)" fill="#231f20"/>
<use xlink:href="#font_4_1e78" transform="matrix(39.829999,0,0,-39.829999,649.28927,305.38484)" fill="#231f20"/>
<use xlink:href="#font_4_66c" transform="matrix(39.829999,0,0,-39.829999,687.70089,305.5404)" fill="#231f20"/>
<use xlink:href="#font_4_1a00" transform="matrix(39.829999,0,0,-39.829999,1352.2566,283.25526)" fill="#231f20"/>
<use xlink:href="#font_4_1e78" transform="matrix(39.829999,0,0,-39.829999,1391.135,283.25526)" fill="#231f20"/>
<use xlink:href="#font_4_3635" transform="matrix(39.829999,0,0,-39.829999,1429.8578,283.09968)" fill="#231f20"/>
<use xlink:href="#font_4_19d5" transform="matrix(39.829999,0,0,-39.829999,1578.7534,283.09968)" fill="#231f20"/>
<use xlink:href="#font_4_a07" transform="matrix(39.829999,0,0,-39.829999,1618.4136,282.9441)" fill="#231f20"/>
<use xlink:href="#font_4_3635" transform="matrix(39.829999,0,0,-39.829999,1656.6697,283.09968)" fill="#231f20"/>
<symbol id="font_5_d">
<path transform="matrix(.01,0,0,-.01,.126,0)" d="M 0 0 C 7.2 0 13.7 -5.2 18.5 -11.9 C 18.2 -12.9 17.2 -13.6 16.3 -13.6 C 12.4 -9.2 8.4 -5.9 3.1 -5.9 C 1.4 -5.9 -.5 -6.3 -1.9 -8.2 C -3.4 -10.1 -4.4 -12.1 -4.4 -18.1 C -4.4 -33 2.6 -41.8 10.3 -41.8 C 11.7 -41.8 14.5 -41.3 14.5 -38 C 14.5 -37.4 14.3 -36.6 14 -36.1 C 13.7 -35.7 13.5 -34.6 13.5 -34 C 13.5 -32.4 14.5 -30.8 16.2 -30.8 C 18.9 -30.8 21.4 -32.8 21.4 -35.3 C 21.4 -39.2 21.1 -44.9 10.2 -44.9 C 6.2 -44.9 -.2 -42.3 -4.4 -37.9 C -9.3 -32.6 -12.6 -24.9 -12.6 -15.9 C -12.6 -12.6 -11.9 -8.1 -9.6 -4.8 C -7.5 -1.9 -4.1 0 0 0 "/>
</symbol>
<symbol id="font_5_e">
<path transform="matrix(.01,0,0,-.01,.085,.439)" d="M 0 0 L -5.3 .3 C -7.2 .4 -7.9 1.2 -8.1 2 C -8.2 2.3 -8.5 3.5 -8.5 3.7 C -8.5 3.9 -8.2 3.9 -7.9 3.9 L -.9 3.9 L -7 31.1 C -7.7 34.3 -8.4 37.4 -8.4 39.3 C -8.4 42.9 -6.6 43.9 -3.5 43.9 C 1 43.9 7.6 39.8 11 33.6 C 10.7 32.3 10 31.7 8.8 31.7 C 4.2 36.9 2.4 37.9 .8 37.9 C .5 37.9 -.5 37.7 -.5 36.5 C -.5 35.6 -.2 33.6 .6 30.2 L 6.5 3.9 L 16.3 3.9 C 17.5 3.4 18.4 .8 17.3 0 L 7.4 0 L 8.4 -4.5 C 8.8 -6.4 9.7 -9.3 9.7 -10.5 C 9.7 -12.2 8.9 -13.2 5.7 -13.2 C 2.1 -13.2 2.3 -8.7 1.3 -5 L 0 0 "/>
</symbol>
<use xlink:href="#font_5_4" transform="matrix(39.829999,0,0,-39.829999,236.19745,357.20936)" fill="#231f20"/>
<use xlink:href="#font_5_d" transform="matrix(39.829999,0,0,-39.829999,255.75399,357.20933)" fill="#231f20"/>
<use xlink:href="#font_5_d" transform="matrix(39.829999,0,0,-39.829999,271.24787,357.20933)" fill="#231f20"/>
<use xlink:href="#font_5_3" transform="matrix(39.829999,0,0,-39.829999,286.74174,357.20936)" fill="#231f20"/>
<use xlink:href="#font_5_0" transform="matrix(39.829999,0,0,-39.829999,298.6509,366.29057)" fill="#231f20"/>
<use xlink:href="#font_5_e" transform="matrix(39.829999,0,0,-39.829999,322.90739,357.20933)" fill="#231f20"/>
<use xlink:href="#font_6_0" transform="matrix(39.829999,0,0,-39.829999,332.9047,364.93635)" fill="#231f20"/>
<use xlink:href="#font_5_3" transform="matrix(39.829999,0,0,-39.829999,346.34333,357.20936)" fill="#231f20"/>
<use xlink:href="#font_6_2" transform="matrix(39.829999,0,0,-39.829999,359.86564,364.8965)" fill="#231f20"/>
<use xlink:href="#font_5_3" transform="matrix(39.829999,0,0,-39.829999,573.84439,357.20936)" fill="#231f20"/>
<use xlink:href="#font_6_3" transform="matrix(39.829999,0,0,-39.829999,589.3183,356.53224)" fill="#231f20"/>
<use xlink:href="#font_6_4" transform="matrix(39.829999,0,0,-39.829999,595.92617,364.93635)" fill="#231f20"/>
<use xlink:href="#font_4_459e" transform="matrix(39.829999,0,0,-39.829999,607.4435,360.5451)" fill="#231f20"/>
<use xlink:href="#font_4_2151" transform="matrix(39.829999,0,0,-39.829999,647.2553,360.85627)" fill="#231f20"/>
<use xlink:href="#font_4_19d5" transform="matrix(39.829999,0,0,-39.829999,1351.9457,360.5451)" fill="#231f20"/>
<use xlink:href="#font_4_a07" transform="matrix(39.829999,0,0,-39.829999,1391.6018,360.38954)" fill="#231f20"/>
<use xlink:href="#font_4_3635" transform="matrix(39.829999,0,0,-39.829999,1429.8579,360.5451)" fill="#231f20"/>
<use xlink:href="#font_4_1a00" transform="matrix(39.829999,0,0,-39.829999,1579.0648,360.70069)" fill="#231f20"/>
<use xlink:href="#font_4_1e78" transform="matrix(39.829999,0,0,-39.829999,1617.947,360.70069)" fill="#231f20"/>
<use xlink:href="#font_4_3635" transform="matrix(39.829999,0,0,-39.829999,1656.6698,360.5451)" fill="#231f20"/>
</g>
</g>
</g>
</svg>
