<!DOCTYPE svg PUBLIC "-//W3C//DTD SVG 1.1//EN" "http://www.w3.org/Graphics/SVG/1.1/DTD/svg11.dtd">
<!-- PDFTron PDFNet Generated! Version: 7.1.0.74195 -->
<svg id="svgRoot" version="1.1" baseProfile="Full" width="276.6px" height="120.5px" viewBox="0 0 276.6 120.5" xmlns="http://www.w3.org/2000/svg" xmlns:xlink="http://www.w3.org/1999/xlink" xmlns:cs="http://www.pdftron.com/pdf2svg" xml:space="preserve">
<defs>
</defs>
<style type="text/css">
<![CDATA[
.ps03 { stroke:#231F20;fill:none; }
.ps07 { stroke:#D52027;fill:none; }
.ps01 { stroke:none;fill:#231F20;fill-rule:nonzero; }
.ps05 { stroke:none;fill:#B6E0F7;fill-rule:nonzero; }
.ps02 { stroke:none;fill:#C5E2BD;fill-rule:nonzero; }
.ps08 { stroke:none;fill:#D52027;fill-rule:evenodd; }
.ps06 { stroke:none;fill:#FBCECF;fill-rule:nonzero; }
.ps04 { stroke:none;fill:#FBF8C1;fill-rule:nonzero; }
.ps00 { stroke:none;fill:none; }
.ps14 { stroke-width:0.401;stroke-linecap:butt;stroke-linejoin:round;stroke-miterlimit:4;stroke-dasharray:none; }
.ps10 { stroke-width:1.002;stroke-linecap:butt;stroke-linejoin:miter;stroke-miterlimit:4;stroke-dasharray:none; }
.ps12 { stroke-width:1.036;stroke-linecap:butt;stroke-linejoin:miter;stroke-miterlimit:4;stroke-dasharray:none; }
.ps13 { stroke-width:1.069;stroke-linecap:butt;stroke-linejoin:miter;stroke-miterlimit:4;stroke-dasharray:none; }
.ps11 { stroke-width:1.203;stroke-linecap:butt;stroke-linejoin:miter;stroke-miterlimit:4;stroke-dasharray:2.4058,1.2029; }
.ps15 { stroke-width:1.671;stroke-linecap:butt;stroke-linejoin:miter;stroke-miterlimit:4;stroke-dasharray:none; }
]]>
</style>
<clipPath id="clp1" clip-rule="nonzero">
<rect x="0" y="0" width="276.6" height="120.5"/>
</clipPath>
<g clip-path="url(#clp1)" transform="matrix(1 0 0 -1 -0 120.54)">
<g id="q1" class="">
<clipPath id="clp2" clip-rule="nonzero">
<path d="M0.029999 120.54 L276.55 120.54 L276.55 0 L0.029999 0 Z"/>
</clipPath>
<g clip-path="url(#clp2)">
<g id="q2" class="ps00">
<g id="xfrm3" transform="matrix(1 0 0 1 4.39 104.1)">
<path d="M0 0 L0 -0.89 C-0.35 -0.73 -0.68 -0.61 -0.99 -0.52 C-1.29 -0.44 -1.59 -0.39 -1.89 -0.39 C-2.39 -0.39 -2.78 -0.49 -3.06 -0.69 C-3.33 -0.89 -3.46 -1.17 -3.46 -1.52 C-3.46 -1.83 -3.37 -2.06 -3.19 -2.21 C-3.01 -2.36 -2.67 -2.49 -2.16 -2.58 L-1.59 -2.69 C-0.92 -2.83 -0.41 -3.06 -0.08 -3.39 C0.25 -3.72 0.41 -4.16 0.41 -4.72 C0.41 -5.38 0.19 -5.88 -0.26 -6.22 C-0.69 -6.56 -1.35 -6.73 -2.19 -6.73 C-2.53 -6.73 -2.87 -6.69 -3.24 -6.62 C-3.59 -6.54 -3.97 -6.44 -4.36 -6.29 L-4.36 -5.34 C-3.99 -5.56 -3.62 -5.71 -3.26 -5.82 C-2.89 -5.93 -2.55 -5.98 -2.19 -5.98 C-1.68 -5.98 -1.27 -5.88 -0.98 -5.67 C-0.69 -5.46 -0.55 -5.17 -0.55 -4.78 C-0.55 -4.45 -0.66 -4.19 -0.86 -3.99 C-1.07 -3.81 -1.39 -3.67 -1.87 -3.57 L-2.44 -3.46 C-3.12 -3.33 -3.62 -3.11 -3.93 -2.82 C-4.24 -2.53 -4.39 -2.12 -4.39 -1.59 C-4.39 -0.99 -4.18 -0.52 -3.76 -0.17 C-3.33 0.17 -2.74 0.35 -1.99 0.35 C-1.68 0.35 -1.35 0.32 -1.02 0.26 C-0.69 0.19 -0.35 0.12 0 0" class="ps01"/>
</g>
</g>
</g>
</g>
<g id="q4" class="">
<g id="xfrm5" transform="matrix(1 0 0 1 6.481 98.281)">
<path d="M0 0 L1.51 0 L1.51 5.19 L-0.13 4.87 L-0.13 5.72 L1.49 6.04 L2.42 6.04 L2.42 0 L3.93 0 L3.93 -0.78 L0 -0.78 L0 0" class="ps01"/>
</g>
</g>
<g id="q6" class="">
<clipPath id="clp3" clip-rule="nonzero">
<path d="M0.029999 120.54 L276.55 120.54 L276.55 0 L0.029999 0 Z"/>
</clipPath>
<g clip-path="url(#clp3)">
<g id="q7" class="ps00">
<g id="xfrm8" transform="matrix(1 0 0 1 4.39 64.006)">
<path d="M0 0 L0 -0.89 C-0.35 -0.73 -0.68 -0.61 -0.99 -0.52 C-1.29 -0.44 -1.59 -0.39 -1.89 -0.39 C-2.39 -0.39 -2.78 -0.49 -3.06 -0.69 C-3.33 -0.89 -3.46 -1.17 -3.46 -1.53 C-3.46 -1.83 -3.37 -2.06 -3.19 -2.21 C-3.01 -2.36 -2.67 -2.49 -2.16 -2.58 L-1.59 -2.69 C-0.92 -2.83 -0.41 -3.06 -0.08 -3.39 C0.25 -3.72 0.41 -4.16 0.41 -4.71 C0.41 -5.38 0.19 -5.88 -0.26 -6.22 C-0.69 -6.56 -1.35 -6.73 -2.19 -6.73 C-2.53 -6.73 -2.87 -6.69 -3.24 -6.62 C-3.59 -6.55 -3.97 -6.44 -4.36 -6.29 L-4.36 -5.35 C-3.99 -5.55 -3.62 -5.71 -3.26 -5.82 C-2.89 -5.93 -2.55 -5.98 -2.19 -5.98 C-1.68 -5.98 -1.27 -5.88 -0.98 -5.67 C-0.69 -5.46 -0.55 -5.17 -0.55 -4.78 C-0.55 -4.45 -0.66 -4.18 -0.86 -3.99 C-1.07 -3.81 -1.39 -3.67 -1.87 -3.57 L-2.44 -3.46 C-3.12 -3.33 -3.62 -3.11 -3.93 -2.82 C-4.24 -2.53 -4.39 -2.12 -4.39 -1.59 C-4.39 -0.99 -4.18 -0.52 -3.76 -0.17 C-3.33 0.17 -2.74 0.35 -1.99 0.35 C-1.68 0.35 -1.35 0.32 -1.02 0.26 C-0.69 0.19 -0.35 0.12 0 0" class="ps01"/>
</g>
</g>
</g>
</g>
<g id="q9" class="">
<g id="xfrm10" transform="matrix(1 0 0 1 9.118 61.087)">
<path d="M0 0 C0.44 -0.09 0.79 -0.29 1.03 -0.59 C1.28 -0.89 1.41 -1.26 1.41 -1.69 C1.41 -2.37 1.18 -2.89 0.71 -3.26 C0.25 -3.63 -0.41 -3.81 -1.26 -3.81 C-1.55 -3.81 -1.84 -3.78 -2.15 -3.72 C-2.45 -3.67 -2.76 -3.59 -3.08 -3.47 L-3.08 -2.58 C-2.83 -2.73 -2.55 -2.84 -2.24 -2.92 C-1.94 -2.99 -1.62 -3.03 -1.29 -3.03 C-0.71 -3.03 -0.27 -2.92 0.03 -2.69 C0.34 -2.46 0.49 -2.13 0.49 -1.69 C0.49 -1.29 0.35 -0.98 0.06 -0.75 C-0.22 -0.52 -0.61 -0.41 -1.11 -0.41 L-1.91 -0.41 L-1.91 0.35 L-1.07 0.35 C-0.62 0.35 -0.27 0.44 -0.03 0.62 C0.21 0.79 0.33 1.06 0.33 1.39 C0.33 1.75 0.19 2.02 -0.05 2.21 C-0.29 2.39 -0.65 2.49 -1.11 2.49 C-1.36 2.49 -1.64 2.46 -1.92 2.41 C-2.21 2.35 -2.53 2.27 -2.88 2.15 L-2.88 2.97 C-2.53 3.07 -2.19 3.15 -1.89 3.19 C-1.59 3.24 -1.29 3.27 -1.03 3.27 C-0.33 3.27 0.23 3.11 0.63 2.79 C1.04 2.47 1.25 2.04 1.25 1.49 C1.25 1.12 1.14 0.79 0.92 0.54 C0.71 0.28 0.39 0.09 0 0" class="ps01"/>
</g>
</g>
<g id="q11" class="">
<clipPath id="clp4" clip-rule="nonzero">
<path d="M0.029999 120.54 L276.55 120.54 L276.55 0 L0.029999 0 Z"/>
</clipPath>
<g clip-path="url(#clp4)">
<g id="q12" class="ps00">
<g id="xfrm13" transform="matrix(1 0 0 1 4.39 84.052)">
<path d="M0 0 L0 -0.89 C-0.35 -0.73 -0.68 -0.61 -0.99 -0.52 C-1.29 -0.44 -1.59 -0.39 -1.89 -0.39 C-2.39 -0.39 -2.78 -0.49 -3.06 -0.69 C-3.33 -0.89 -3.46 -1.17 -3.46 -1.52 C-3.46 -1.83 -3.37 -2.06 -3.19 -2.21 C-3.01 -2.36 -2.67 -2.49 -2.16 -2.58 L-1.59 -2.69 C-0.92 -2.83 -0.41 -3.06 -0.08 -3.39 C0.25 -3.72 0.41 -4.16 0.41 -4.72 C0.41 -5.38 0.19 -5.88 -0.26 -6.22 C-0.69 -6.56 -1.35 -6.73 -2.19 -6.73 C-2.53 -6.73 -2.87 -6.69 -3.24 -6.62 C-3.59 -6.54 -3.97 -6.44 -4.36 -6.29 L-4.36 -5.34 C-3.99 -5.56 -3.62 -5.71 -3.26 -5.82 C-2.89 -5.93 -2.55 -5.98 -2.19 -5.98 C-1.68 -5.98 -1.27 -5.88 -0.98 -5.67 C-0.69 -5.46 -0.55 -5.17 -0.55 -4.78 C-0.55 -4.45 -0.66 -4.19 -0.86 -3.99 C-1.07 -3.81 -1.39 -3.67 -1.87 -3.57 L-2.44 -3.46 C-3.12 -3.33 -3.62 -3.11 -3.93 -2.82 C-4.24 -2.53 -4.39 -2.12 -4.39 -1.59 C-4.39 -0.99 -4.18 -0.52 -3.76 -0.17 C-3.33 0.17 -2.74 0.35 -1.99 0.35 C-1.68 0.35 -1.35 0.32 -1.02 0.26 C-0.69 0.19 -0.35 0.12 0 0" class="ps01"/>
</g>
</g>
</g>
</g>
<g id="q14" class="">
<g id="xfrm15" transform="matrix(1 0 0 1 7.116 78.233)">
<path d="M0 0 L3.22 0 L3.22 -0.78 L-1.11 -0.78 L-1.11 0 C-0.76 0.36 -0.28 0.85 0.32 1.46 C0.93 2.07 1.31 2.46 1.46 2.64 C1.76 2.97 1.96 3.25 2.08 3.48 C2.19 3.71 2.26 3.94 2.26 4.16 C2.26 4.52 2.13 4.82 1.87 5.05 C1.62 5.28 1.29 5.39 0.88 5.39 C0.59 5.39 0.29 5.34 -0.04 5.24 C-0.36 5.14 -0.69 4.99 -1.06 4.78 L-1.06 5.72 C-0.69 5.86 -0.35 5.98 -0.02 6.05 C0.29 6.13 0.59 6.17 0.86 6.17 C1.57 6.17 2.13 5.99 2.56 5.64 C2.97 5.28 3.18 4.81 3.18 4.22 C3.18 3.94 3.13 3.67 3.02 3.42 C2.92 3.17 2.73 2.88 2.45 2.54 C2.38 2.45 2.13 2.19 1.73 1.77 C1.32 1.35 0.74 0.76 0 0" class="ps01"/>
</g>
</g>
<g id="q16" class="">
<clipPath id="clp5" clip-rule="nonzero">
<path d="M0.029999 120.54 L276.55 120.54 L276.55 0 L0.029999 0 Z"/>
</clipPath>
<g clip-path="url(#clp5)">
<g id="q17" class="ps00">
<g id="xfrm18" transform="matrix(1 0 0 1 4.39 23.907)">
<path d="M0 0 L0 -0.89 C-0.35 -0.73 -0.68 -0.61 -0.99 -0.52 C-1.29 -0.44 -1.59 -0.39 -1.89 -0.39 C-2.39 -0.39 -2.78 -0.49 -3.06 -0.69 C-3.33 -0.89 -3.46 -1.17 -3.46 -1.52 C-3.46 -1.83 -3.37 -2.06 -3.19 -2.21 C-3.01 -2.36 -2.67 -2.49 -2.16 -2.58 L-1.59 -2.69 C-0.92 -2.83 -0.41 -3.06 -0.08 -3.39 C0.25 -3.72 0.41 -4.16 0.41 -4.72 C0.41 -5.38 0.19 -5.88 -0.26 -6.22 C-0.69 -6.56 -1.35 -6.73 -2.19 -6.73 C-2.53 -6.73 -2.87 -6.69 -3.24 -6.62 C-3.59 -6.55 -3.97 -6.44 -4.36 -6.29 L-4.36 -5.34 C-3.99 -5.56 -3.62 -5.71 -3.26 -5.82 C-2.89 -5.93 -2.55 -5.98 -2.19 -5.98 C-1.68 -5.98 -1.27 -5.88 -0.98 -5.67 C-0.69 -5.46 -0.55 -5.17 -0.55 -4.78 C-0.55 -4.45 -0.66 -4.19 -0.86 -3.99 C-1.07 -3.81 -1.39 -3.67 -1.87 -3.57 L-2.44 -3.46 C-3.12 -3.33 -3.62 -3.11 -3.93 -2.82 C-4.24 -2.53 -4.39 -2.12 -4.39 -1.59 C-4.39 -0.99 -4.18 -0.52 -3.76 -0.17 C-3.33 0.17 -2.74 0.35 -1.99 0.35 C-1.68 0.35 -1.35 0.32 -1.02 0.26 C-0.69 0.19 -0.35 0.12 0 0" class="ps01"/>
</g>
</g>
</g>
</g>
<g id="q19" class="">
<g id="xfrm20" transform="matrix(1 0 0 1 6.331 24.131)">
<path d="M0 0 L3.62 0 L3.62 -0.78 L0.85 -0.78 L0.85 -2.45 C0.98 -2.39 1.11 -2.37 1.25 -2.35 C1.38 -2.32 1.51 -2.31 1.65 -2.31 C2.41 -2.31 3.01 -2.52 3.46 -2.94 C3.89 -3.35 4.12 -3.92 4.12 -4.63 C4.12 -5.37 3.89 -5.94 3.44 -6.35 C2.98 -6.75 2.34 -6.95 1.51 -6.95 C1.22 -6.95 0.93 -6.93 0.63 -6.88 C0.33 -6.83 0.03 -6.76 -0.29 -6.66 L-0.29 -5.73 C-0.01 -5.88 0.27 -5.99 0.56 -6.07 C0.85 -6.14 1.16 -6.18 1.49 -6.18 C2.02 -6.18 2.43 -6.04 2.74 -5.76 C3.05 -5.48 3.19 -5.11 3.19 -4.63 C3.19 -4.16 3.05 -3.78 2.74 -3.49 C2.43 -3.23 2.02 -3.09 1.49 -3.09 C1.24 -3.09 0.99 -3.12 0.75 -3.17 C0.51 -3.23 0.26 -3.31 0 -3.43 L0 0" class="ps01"/>
</g>
</g>
<g id="q21" class="">
<clipPath id="clp6" clip-rule="nonzero">
<path d="M0.029999 120.54 L276.55 120.54 L276.55 0 L0.029999 0 Z"/>
</clipPath>
<g clip-path="url(#clp6)">
<g id="q22" class="ps00">
<g id="xfrm23" transform="matrix(1 0 0 1 4.39 43.955)">
<path d="M0 0 L0 -0.89 C-0.35 -0.73 -0.68 -0.61 -0.99 -0.52 C-1.29 -0.44 -1.59 -0.39 -1.89 -0.39 C-2.39 -0.39 -2.78 -0.49 -3.06 -0.69 C-3.33 -0.89 -3.46 -1.17 -3.46 -1.52 C-3.46 -1.83 -3.37 -2.06 -3.19 -2.21 C-3.01 -2.36 -2.67 -2.49 -2.16 -2.58 L-1.59 -2.69 C-0.92 -2.83 -0.41 -3.06 -0.08 -3.39 C0.25 -3.72 0.41 -4.16 0.41 -4.72 C0.41 -5.38 0.19 -5.88 -0.26 -6.22 C-0.69 -6.56 -1.35 -6.73 -2.19 -6.73 C-2.53 -6.73 -2.87 -6.69 -3.24 -6.62 C-3.59 -6.54 -3.97 -6.44 -4.36 -6.29 L-4.36 -5.34 C-3.99 -5.56 -3.62 -5.71 -3.26 -5.82 C-2.89 -5.93 -2.55 -5.98 -2.19 -5.98 C-1.68 -5.98 -1.27 -5.88 -0.98 -5.67 C-0.69 -5.46 -0.55 -5.17 -0.55 -4.78 C-0.55 -4.45 -0.66 -4.19 -0.86 -3.99 C-1.07 -3.81 -1.39 -3.67 -1.87 -3.57 L-2.44 -3.46 C-3.12 -3.33 -3.62 -3.11 -3.93 -2.82 C-4.24 -2.53 -4.39 -2.12 -4.39 -1.59 C-4.39 -0.99 -4.18 -0.52 -3.76 -0.17 C-3.33 0.17 -2.74 0.35 -1.99 0.35 C-1.68 0.35 -1.35 0.32 -1.02 0.26 C-0.69 0.19 -0.35 0.12 0 0" class="ps01"/>
</g>
</g>
</g>
</g>
<g id="q24" class="">
<g id="xfrm25" transform="matrix(1 0 0 1 8.856 43.375)">
<path d="M0 0 L-2.33 -3.64 L0 -3.64 L0 0M-0.24 0.79 L0.92 0.79 L0.92 -3.64 L1.89 -3.64 L1.89 -4.41 L0.92 -4.41 L0.92 -6.02 L0 -6.02 L0 -4.41 L-3.08 -4.41 L-3.08 -3.52 L-0.24 0.79" class="ps01"/>
</g>
</g>
<path d="M20.033 94.169 L33.403 94.169 L33.403 107.53 L20.033 107.53 Z" class="ps02"/>
<path d="M20.033 94.169 L33.403 94.169 L33.403 107.53 L20.033 107.53 Z" class="ps03 ps10"/>
<g id="q26" class="ps03 ps10">
<g id="xfrm27" transform="matrix(1 0 0 1 25.486 97.91)">
<path d="M0 0 L1.76 0 L1.76 6.04 L-0.15 5.66 L-0.15 6.64 L1.74 7.02 L2.81 7.02 L2.81 0 L4.56 0 L4.56 -0.89 L0 -0.89" class="ps01"/>
</g>
</g>
<path d="M33.399 94.169 L46.759 94.169 L46.759 107.53 L33.399 107.53 Z" class="ps04 ps10"/>
<path d="M33.399 94.169 L46.759 94.169 L46.759 107.53 L33.399 107.53 Z" class="ps03 ps10"/>
<g id="q28" class="ps03 ps10">
<g id="xfrm29" transform="matrix(1 0 0 1 39.589 97.91)">
<path d="M0 0 L3.74 0 L3.74 -0.89 L-1.29 -0.89 L-1.29 0 C-0.88 0.42 -0.33 0.99 0.37 1.69 C1.08 2.41 1.52 2.86 1.69 3.07 C2.04 3.45 2.28 3.78 2.41 4.04 C2.55 4.31 2.62 4.57 2.62 4.83 C2.62 5.25 2.47 5.59 2.18 5.86 C1.88 6.13 1.49 6.26 1.02 6.26 C0.69 6.26 0.33 6.19 -0.04 6.08 C-0.41 5.97 -0.81 5.79 -1.23 5.55 L-1.23 6.64 C-0.79 6.81 -0.39 6.94 -0.03 7.02 C0.35 7.11 0.69 7.16 1 7.16 C1.82 7.16 2.47 6.96 2.96 6.55 C3.45 6.14 3.69 5.59 3.69 4.89 C3.69 4.58 3.64 4.26 3.52 3.98 C3.39 3.68 3.17 3.34 2.85 2.94 C2.76 2.84 2.48 2.55 2 2.06 C1.53 1.56 0.86 0.88 0 0" class="ps01"/>
</g>
</g>
<path d="M20.033 74.121 L33.403 74.121 L33.403 87.481 L20.033 87.481 Z" class="ps02 ps10"/>
<path d="M20.033 74.121 L33.403 74.121 L33.403 87.481 L20.033 87.481 Z" class="ps03 ps10"/>
<g id="q30" class="ps03 ps10">
<g id="xfrm31" transform="matrix(1 0 0 1 25.486 77.862)">
<path d="M0 0 L1.76 0 L1.76 6.04 L-0.15 5.66 L-0.15 6.64 L1.74 7.02 L2.81 7.02 L2.81 0 L4.56 0 L4.56 -0.89 L0 -0.89" class="ps01"/>
</g>
</g>
<path d="M20.033 54.072 L33.403 54.072 L33.403 67.442 L20.033 67.442 Z" class="ps02 ps10"/>
<path d="M20.033 54.072 L33.403 54.072 L33.403 67.442 L20.033 67.442 Z" class="ps03 ps10"/>
<g id="q32" class="ps03 ps10">
<g id="xfrm33" transform="matrix(1 0 0 1 25.486 57.813)">
<path d="M0 0 L1.76 0 L1.76 6.04 L-0.15 5.66 L-0.15 6.64 L1.74 7.02 L2.81 7.02 L2.81 0 L4.56 0 L4.56 -0.89 L0 -0.89" class="ps01"/>
</g>
</g>
<path d="M20.033 34.024 L33.403 34.024 L33.403 47.384 L20.033 47.384 Z" class="ps02 ps10"/>
<path d="M20.033 34.024 L33.403 34.024 L33.403 47.384 L20.033 47.384 Z" class="ps03 ps10"/>
<g id="q34" class="ps03 ps10">
<g id="xfrm35" transform="matrix(1 0 0 1 25.486 37.765)">
<path d="M0 0 L1.76 0 L1.76 6.04 L-0.15 5.66 L-0.15 6.64 L1.74 7.02 L2.81 7.02 L2.81 0 L4.56 0 L4.56 -0.89 L0 -0.89" class="ps01"/>
</g>
</g>
<path d="M20.033 13.976 L33.403 13.976 L33.403 27.336 L20.033 27.336 Z" class="ps02 ps10"/>
<path d="M20.033 13.976 L33.403 13.976 L33.403 27.336 L20.033 27.336 Z" class="ps03 ps10"/>
<g id="q36" class="ps03 ps10">
<g id="xfrm37" transform="matrix(1 0 0 1 25.486 17.717)">
<path d="M0 0 L1.76 0 L1.76 6.04 L-0.15 5.66 L-0.15 6.64 L1.74 7.02 L2.81 7.02 L2.81 0 L4.56 0 L4.56 -0.89 L0 -0.89" class="ps01"/>
</g>
</g>
<g id="q38" class="ps03 ps10">
<g id="xfrm39" transform="matrix(1 0 0 1 25.23 114.48)">
<path d="M0 0 L1.48 0 L1.48 5.11 L-0.13 4.78 L-0.13 5.61 L1.47 5.93 L2.38 5.93 L2.38 0 L3.86 0 L3.86 -0.76 L0 -0.76" class="ps01"/>
</g>
</g>
<g id="q40" class="ps03 ps10">
<g id="xfrm41" transform="matrix(1 0 0 1 38.976 114.48)">
<path d="M0 0 L3.16 0 L3.16 -0.76 L-1.09 -0.76 L-1.09 0 C-0.75 0.36 -0.28 0.83 0.31 1.43 C0.91 2.03 1.28 2.42 1.44 2.59 C1.73 2.92 1.93 3.19 2.04 3.42 C2.16 3.65 2.22 3.87 2.22 4.09 C2.22 4.44 2.09 4.73 1.84 4.95 C1.59 5.18 1.27 5.29 0.87 5.29 C0.58 5.29 0.28 5.24 -0.03 5.14 C-0.35 5.05 -0.68 4.89 -1.04 4.69 L-1.04 5.61 C-0.68 5.76 -0.34 5.87 -0.02 5.95 C0.29 6.02 0.59 6.06 0.85 6.06 C1.54 6.06 2.09 5.88 2.51 5.54 C2.92 5.19 3.13 4.73 3.13 4.14 C3.13 3.87 3.07 3.61 2.97 3.36 C2.87 3.11 2.68 2.82 2.41 2.49 C2.33 2.39 2.09 2.15 1.69 1.74 C1.29 1.32 0.73 0.75 0 0" class="ps01"/>
</g>
</g>
<path d="M33.551 74.121 L46.921 74.121 L46.921 87.481 L33.551 87.481 Z" class="ps04 ps10"/>
<path d="M33.551 74.121 L46.921 74.121 L46.921 87.481 L33.551 87.481 Z" class="ps03 ps10"/>
<g id="q42" class="ps03 ps10">
<g id="xfrm43" transform="matrix(1 0 0 1 39.744 77.862)">
<path d="M0 0 L3.74 0 L3.74 -0.89 L-1.29 -0.89 L-1.29 0 C-0.88 0.42 -0.33 0.99 0.37 1.69 C1.08 2.41 1.52 2.86 1.69 3.07 C2.04 3.45 2.28 3.78 2.41 4.04 C2.55 4.31 2.62 4.57 2.62 4.83 C2.62 5.25 2.48 5.59 2.18 5.86 C1.88 6.13 1.49 6.26 1.02 6.26 C0.69 6.26 0.33 6.19 -0.04 6.08 C-0.41 5.97 -0.81 5.79 -1.23 5.55 L-1.23 6.64 C-0.79 6.81 -0.39 6.94 -0.03 7.02 C0.35 7.11 0.69 7.16 1 7.16 C1.82 7.16 2.48 6.96 2.96 6.55 C3.45 6.14 3.69 5.59 3.69 4.89 C3.69 4.58 3.64 4.26 3.52 3.98 C3.39 3.68 3.17 3.34 2.85 2.94 C2.76 2.84 2.48 2.55 2 2.06 C1.53 1.56 0.86 0.88 0 0" class="ps01"/>
</g>
</g>
<path d="M63.471 94.169 L76.831 94.169 L76.831 107.53 L63.471 107.53 Z" class="ps02 ps10"/>
<path d="M63.471 94.169 L76.831 94.169 L76.831 107.53 L63.471 107.53 Z" class="ps03 ps10"/>
<g id="q44" class="ps03 ps10">
<g id="xfrm45" transform="matrix(1 0 0 1 68.923 97.91)">
<path d="M0 0 L1.76 0 L1.76 6.04 L-0.15 5.66 L-0.15 6.64 L1.74 7.02 L2.81 7.02 L2.81 0 L4.56 0 L4.56 -0.89 L0 -0.89" class="ps01"/>
</g>
</g>
<path d="M76.836 94.169 L90.206 94.169 L90.206 107.53 L76.836 107.53 Z" class="ps04 ps10"/>
<path d="M76.836 94.169 L90.206 94.169 L90.206 107.53 L76.836 107.53 Z" class="ps03 ps10"/>
<g id="q46" class="ps03 ps10">
<g id="xfrm47" transform="matrix(1 0 0 1 83.026 97.91)">
<path d="M0 0 L3.74 0 L3.74 -0.89 L-1.29 -0.89 L-1.29 0 C-0.88 0.42 -0.33 0.99 0.37 1.69 C1.08 2.41 1.52 2.86 1.69 3.07 C2.04 3.45 2.28 3.78 2.41 4.04 C2.55 4.31 2.62 4.57 2.62 4.83 C2.62 5.25 2.48 5.59 2.18 5.86 C1.88 6.13 1.49 6.26 1.02 6.26 C0.69 6.26 0.33 6.19 -0.04 6.08 C-0.41 5.97 -0.81 5.79 -1.23 5.55 L-1.23 6.64 C-0.79 6.81 -0.39 6.94 -0.03 7.02 C0.35 7.11 0.69 7.16 1 7.16 C1.82 7.16 2.48 6.96 2.96 6.55 C3.45 6.14 3.69 5.59 3.69 4.89 C3.69 4.58 3.64 4.26 3.52 3.98 C3.39 3.68 3.17 3.34 2.85 2.94 C2.76 2.84 2.48 2.55 2 2.06 C1.53 1.56 0.86 0.88 0 0" class="ps01"/>
</g>
</g>
<path d="M63.471 74.121 L76.831 74.121 L76.831 87.481 L63.471 87.481 Z" class="ps02 ps10"/>
<path d="M63.471 74.121 L76.831 74.121 L76.831 87.481 L63.471 87.481 Z" class="ps03 ps10"/>
<g id="q48" class="ps03 ps10">
<g id="xfrm49" transform="matrix(1 0 0 1 68.923 77.862)">
<path d="M0 0 L1.76 0 L1.76 6.04 L-0.15 5.66 L-0.15 6.64 L1.74 7.02 L2.81 7.02 L2.81 0 L4.56 0 L4.56 -0.89 L0 -0.89" class="ps01"/>
</g>
</g>
<path d="M63.471 54.072 L76.831 54.072 L76.831 67.442 L63.471 67.442 Z" class="ps02 ps10"/>
<path d="M63.471 54.072 L76.831 54.072 L76.831 67.442 L63.471 67.442 Z" class="ps03 ps10"/>
<g id="q50" class="ps03 ps10">
<g id="xfrm51" transform="matrix(1 0 0 1 68.923 57.813)">
<path d="M0 0 L1.76 0 L1.76 6.04 L-0.15 5.66 L-0.15 6.64 L1.74 7.02 L2.81 7.02 L2.81 0 L4.56 0 L4.56 -0.89 L0 -0.89" class="ps01"/>
</g>
</g>
<path d="M63.471 34.024 L76.831 34.024 L76.831 47.384 L63.471 47.384 Z" class="ps02 ps10"/>
<path d="M63.471 34.024 L76.831 34.024 L76.831 47.384 L63.471 47.384 Z" class="ps03 ps10"/>
<g id="q52" class="ps03 ps10">
<g id="xfrm53" transform="matrix(1 0 0 1 68.923 37.765)">
<path d="M0 0 L1.76 0 L1.76 6.04 L-0.15 5.66 L-0.15 6.64 L1.74 7.02 L2.81 7.02 L2.81 0 L4.56 0 L4.56 -0.89 L0 -0.89" class="ps01"/>
</g>
</g>
<path d="M76.836 13.976 L90.206 13.976 L90.206 27.336 L76.836 27.336 Z" class="ps05 ps10"/>
<path d="M76.836 13.976 L90.206 13.976 L90.206 27.336 L76.836 27.336 Z" class="ps03 ps10"/>
<g id="q54" class="ps03 ps10">
<g id="xfrm55" transform="matrix(1 0 0 1 85.35 21.084)">
<path d="M0 0 C0.51 -0.11 0.91 -0.34 1.19 -0.69 C1.49 -1.03 1.63 -1.45 1.63 -1.96 C1.63 -2.75 1.36 -3.35 0.82 -3.79 C0.29 -4.21 -0.48 -4.42 -1.46 -4.42 C-1.79 -4.42 -2.13 -4.39 -2.49 -4.32 C-2.84 -4.26 -3.19 -4.16 -3.58 -4.03 L-3.58 -2.99 C-3.28 -3.17 -2.96 -3.29 -2.61 -3.39 C-2.25 -3.48 -1.88 -3.52 -1.49 -3.52 C-0.83 -3.52 -0.31 -3.39 0.04 -3.13 C0.39 -2.86 0.57 -2.47 0.57 -1.96 C0.57 -1.49 0.39 -1.13 0.08 -0.87 C-0.25 -0.61 -0.69 -0.48 -1.29 -0.48 L-2.21 -0.48 L-2.21 0.41 L-1.25 0.41 C-0.72 0.41 -0.32 0.51 -0.04 0.72 C0.24 0.93 0.39 1.24 0.39 1.63 C0.39 2.04 0.24 2.35 -0.05 2.57 C-0.34 2.78 -0.75 2.89 -1.29 2.89 C-1.58 2.89 -1.89 2.86 -2.23 2.79 C-2.57 2.73 -2.94 2.63 -3.34 2.49 L-3.34 3.45 C-2.94 3.57 -2.55 3.65 -2.19 3.71 C-1.84 3.76 -1.51 3.79 -1.19 3.79 C-0.38 3.79 0.26 3.61 0.74 3.24 C1.21 2.87 1.45 2.37 1.45 1.74 C1.45 1.29 1.32 0.93 1.07 0.63 C0.82 0.33 0.46 0.12 0 0" class="ps01"/>
</g>
</g>
<path d="M63.471 13.976 L76.831 13.976 L76.831 27.336 L63.471 27.336 Z" class="ps02 ps10"/>
<path d="M63.471 13.976 L76.831 13.976 L76.831 27.336 L63.471 27.336 Z" class="ps03 ps10"/>
<g id="q56" class="ps03 ps10">
<g id="xfrm57" transform="matrix(1 0 0 1 68.923 17.717)">
<path d="M0 0 L1.76 0 L1.76 6.04 L-0.15 5.66 L-0.15 6.64 L1.74 7.02 L2.81 7.02 L2.81 0 L4.56 0 L4.56 -0.89 L0 -0.89" class="ps01"/>
</g>
</g>
<g id="q58" class="ps03 ps10">
<g id="xfrm59" transform="matrix(1 0 0 1 68.618 114.48)">
<path d="M0 0 L1.48 0 L1.48 5.11 L-0.13 4.78 L-0.13 5.61 L1.47 5.93 L2.38 5.93 L2.38 0 L3.86 0 L3.86 -0.76 L0 -0.76" class="ps01"/>
</g>
</g>
<g id="q60" class="ps03 ps10">
<g id="xfrm61" transform="matrix(1 0 0 1 82.397 114.48)">
<path d="M0 0 L3.17 0 L3.17 -0.76 L-1.09 -0.76 L-1.09 0 C-0.75 0.36 -0.28 0.83 0.31 1.43 C0.91 2.03 1.28 2.42 1.44 2.59 C1.73 2.92 1.93 3.19 2.04 3.42 C2.16 3.65 2.22 3.87 2.22 4.09 C2.22 4.44 2.09 4.73 1.84 4.95 C1.59 5.18 1.27 5.29 0.87 5.29 C0.58 5.29 0.28 5.24 -0.03 5.14 C-0.34 5.05 -0.68 4.89 -1.04 4.69 L-1.04 5.61 C-0.68 5.76 -0.34 5.87 -0.02 5.95 C0.29 6.02 0.59 6.06 0.85 6.06 C1.54 6.06 2.09 5.88 2.51 5.54 C2.92 5.19 3.13 4.73 3.13 4.14 C3.13 3.87 3.08 3.61 2.97 3.36 C2.87 3.11 2.68 2.82 2.41 2.49 C2.34 2.39 2.09 2.15 1.69 1.74 C1.29 1.32 0.73 0.75 0 0" class="ps01"/>
</g>
</g>
<path d="M76.989 74.121 L90.359 74.121 L90.359 87.481 L76.989 87.481 Z" class="ps04 ps10"/>
<path d="M76.989 74.121 L90.359 74.121 L90.359 87.481 L76.989 87.481 Z" class="ps03 ps10"/>
<g id="q62" class="ps03 ps10">
<g id="xfrm63" transform="matrix(1 0 0 1 83.181 77.862)">
<path d="M0 0 L3.74 0 L3.74 -0.89 L-1.29 -0.89 L-1.29 0 C-0.88 0.42 -0.33 0.99 0.37 1.69 C1.08 2.41 1.52 2.86 1.69 3.07 C2.04 3.45 2.28 3.78 2.42 4.04 C2.55 4.31 2.62 4.57 2.62 4.83 C2.62 5.25 2.48 5.59 2.18 5.86 C1.88 6.13 1.49 6.26 1.02 6.26 C0.69 6.26 0.34 6.19 -0.04 6.08 C-0.41 5.97 -0.81 5.79 -1.23 5.55 L-1.23 6.64 C-0.79 6.81 -0.39 6.94 -0.03 7.02 C0.35 7.11 0.69 7.16 1 7.16 C1.82 7.16 2.48 6.96 2.96 6.55 C3.45 6.14 3.69 5.59 3.69 4.89 C3.69 4.58 3.64 4.26 3.52 3.98 C3.39 3.68 3.17 3.34 2.85 2.94 C2.76 2.84 2.48 2.55 2 2.06 C1.53 1.56 0.86 0.88 0 0" class="ps01"/>
</g>
</g>
<g id="q64" class="ps03 ps10">
<g id="xfrm65" transform="matrix(1 0 0 1 29.786 8.18)">
<path d="M0 0 C-0.39 -0.69 -0.71 -1.37 -0.89 -2.04 C-1.09 -2.71 -1.19 -3.39 -1.19 -4.09 C-1.19 -4.78 -1.09 -5.46 -0.89 -6.14 C-0.69 -6.82 -0.39 -7.49 0 -8.18 L-0.72 -8.18 C-1.17 -7.48 -1.51 -6.79 -1.73 -6.11 C-1.95 -5.43 -2.06 -4.76 -2.06 -4.09 C-2.06 -3.42 -1.95 -2.75 -1.73 -2.08 C-1.51 -1.39 -1.17 -0.71 -0.72 0 L0 0 ZM3.96 -4.44 C3.28 -4.44 2.82 -4.52 2.57 -4.67 C2.31 -4.83 2.18 -5.09 2.18 -5.46 C2.18 -5.75 2.28 -5.98 2.47 -6.16 C2.66 -6.32 2.93 -6.41 3.26 -6.41 C3.71 -6.41 4.08 -6.25 4.35 -5.93 C4.63 -5.59 4.77 -5.17 4.77 -4.63 L4.77 -4.44 L3.96 -4.44 ZM5.59 -4.11 L5.59 -6.97 L4.77 -6.97 L4.77 -6.21 C4.58 -6.51 4.35 -6.74 4.07 -6.89 C3.79 -7.03 3.44 -7.09 3.04 -7.09 C2.52 -7.09 2.11 -6.96 1.81 -6.67 C1.51 -6.38 1.36 -5.99 1.36 -5.51 C1.36 -4.94 1.55 -4.52 1.93 -4.23 C2.29 -3.94 2.87 -3.79 3.62 -3.79 L4.77 -3.79 L4.77 -3.72 C4.77 -3.34 4.65 -3.05 4.39 -2.84 C4.15 -2.63 3.79 -2.53 3.35 -2.53 C3.06 -2.53 2.78 -2.56 2.51 -2.63 C2.24 -2.69 1.97 -2.79 1.72 -2.94 L1.72 -2.17 C2.02 -2.06 2.31 -1.97 2.59 -1.91 C2.89 -1.85 3.16 -1.82 3.43 -1.82 C4.16 -1.82 4.69 -2.01 5.06 -2.39 C5.42 -2.77 5.59 -3.34 5.59 -4.11 ZM7.28 0 L7.99 0 C8.44 -0.71 8.78 -1.39 9 -2.08 C9.22 -2.75 9.33 -3.42 9.33 -4.09 C9.33 -4.76 9.22 -5.43 9 -6.11 C8.78 -6.79 8.44 -7.48 7.99 -8.18 L7.28 -8.18 C7.67 -7.49 7.97 -6.82 8.17 -6.14 C8.36 -5.46 8.46 -4.78 8.46 -4.09 C8.46 -3.39 8.36 -2.71 8.17 -2.04 C7.97 -1.37 7.67 -0.69 7.28 0" class="ps01"/>
</g>
</g>
<g id="q66" class="ps03 ps10">
<g id="xfrm67" transform="matrix(1 0 0 1 72.954 8.18)">
<path d="M0 0 C-0.39 -0.69 -0.69 -1.37 -0.89 -2.04 C-1.09 -2.71 -1.19 -3.39 -1.19 -4.09 C-1.19 -4.78 -1.09 -5.46 -0.89 -6.14 C-0.69 -6.82 -0.39 -7.49 0 -8.18 L-0.72 -8.18 C-1.17 -7.48 -1.51 -6.79 -1.73 -6.11 C-1.95 -5.43 -2.06 -4.76 -2.06 -4.09 C-2.06 -3.42 -1.95 -2.75 -1.73 -2.08 C-1.51 -1.39 -1.17 -0.71 -0.72 0 L0 0 ZM5.27 -4.47 C5.27 -3.86 5.15 -3.38 4.89 -3.04 C4.65 -2.69 4.31 -2.51 3.87 -2.51 C3.44 -2.51 3.09 -2.69 2.84 -3.04 C2.59 -3.38 2.47 -3.86 2.47 -4.47 C2.47 -5.07 2.59 -5.55 2.84 -5.89 C3.09 -6.24 3.44 -6.41 3.87 -6.41 C4.31 -6.41 4.65 -6.24 4.89 -5.89 C5.15 -5.55 5.27 -5.07 5.27 -4.47 ZM2.47 -2.71 C2.64 -2.41 2.86 -2.19 3.13 -2.04 C3.39 -1.89 3.71 -1.82 4.07 -1.82 C4.68 -1.82 5.18 -2.07 5.56 -2.55 C5.94 -3.04 6.14 -3.67 6.14 -4.47 C6.14 -5.25 5.94 -5.89 5.56 -6.38 C5.18 -6.86 4.68 -7.09 4.07 -7.09 C3.71 -7.09 3.39 -7.03 3.13 -6.89 C2.86 -6.74 2.64 -6.51 2.47 -6.21 L2.47 -6.97 L1.64 -6.97 L1.64 0.01 L2.47 0.01 L2.47 -2.71 ZM7.48 0 L8.19 0 C8.65 -0.71 8.98 -1.39 9.19 -2.08 C9.42 -2.75 9.53 -3.42 9.53 -4.09 C9.53 -4.76 9.42 -5.43 9.19 -6.11 C8.98 -6.79 8.65 -7.48 8.19 -8.18 L7.48 -8.18 C7.87 -7.49 8.17 -6.82 8.37 -6.14 C8.56 -5.46 8.66 -4.78 8.66 -4.09 C8.66 -3.39 8.56 -2.71 8.37 -2.04 C8.17 -1.37 7.87 -0.69 7.48 0" class="ps01"/>
</g>
</g>
<path d="M163.71 94.169 L177.08 94.169 L177.08 107.53 L163.71 107.53 Z" class="ps02 ps10"/>
<path d="M163.71 94.169 L177.08 94.169 L177.08 107.53 L163.71 107.53 Z" class="ps03 ps10"/>
<g id="q68" class="ps03 ps10">
<g id="xfrm69" transform="matrix(1 0 0 1 169.165 97.91)">
<path d="M0 0 L1.76 0 L1.76 6.04 L-0.15 5.66 L-0.15 6.64 L1.74 7.02 L2.81 7.02 L2.81 0 L4.56 0 L4.56 -0.89 L0 -0.89" class="ps01"/>
</g>
</g>
<path d="M163.71 74.121 L177.08 74.121 L177.08 87.481 L163.71 87.481 Z" class="ps02 ps10"/>
<path d="M163.71 74.121 L177.08 74.121 L177.08 87.481 L163.71 87.481 Z" class="ps03 ps10"/>
<g id="q70" class="ps03 ps10">
<g id="xfrm71" transform="matrix(1 0 0 1 169.165 77.862)">
<path d="M0 0 L1.76 0 L1.76 6.04 L-0.15 5.66 L-0.15 6.64 L1.74 7.02 L2.81 7.02 L2.81 0 L4.56 0 L4.56 -0.89 L0 -0.89" class="ps01"/>
</g>
</g>
<path d="M163.71 54.072 L177.08 54.072 L177.08 67.442 L163.71 67.442 Z" class="ps02 ps10"/>
<path d="M163.71 54.072 L177.08 54.072 L177.08 67.442 L163.71 67.442 Z" class="ps03 ps10"/>
<g id="q72" class="ps03 ps10">
<g id="xfrm73" transform="matrix(1 0 0 1 169.165 57.813)">
<path d="M0 0 L1.76 0 L1.76 6.04 L-0.15 5.66 L-0.15 6.64 L1.74 7.02 L2.81 7.02 L2.81 0 L4.56 0 L4.56 -0.89 L0 -0.89" class="ps01"/>
</g>
</g>
<path d="M163.71 34.024 L177.08 34.024 L177.08 47.384 L163.71 47.384 Z" class="ps02 ps10"/>
<path d="M163.71 34.024 L177.08 34.024 L177.08 47.384 L163.71 47.384 Z" class="ps03 ps10"/>
<g id="q74" class="ps03 ps10">
<g id="xfrm75" transform="matrix(1 0 0 1 169.165 37.765)">
<path d="M0 0 L1.76 0 L1.76 6.04 L-0.15 5.66 L-0.15 6.64 L1.74 7.02 L2.81 7.02 L2.81 0 L4.56 0 L4.56 -0.89 L0 -0.89" class="ps01"/>
</g>
</g>
<path d="M177.08 13.976 L190.44 13.976 L190.44 27.336 L177.08 27.336 Z" class="ps05 ps10"/>
<path d="M177.08 13.976 L190.44 13.976 L190.44 27.336 L177.08 27.336 Z" class="ps03 ps10"/>
<g id="q76" class="ps03 ps10">
<g id="xfrm77" transform="matrix(1 0 0 1 185.591 21.084)">
<path d="M0 0 C0.51 -0.11 0.91 -0.34 1.19 -0.69 C1.49 -1.03 1.63 -1.45 1.63 -1.96 C1.63 -2.75 1.36 -3.35 0.82 -3.79 C0.29 -4.21 -0.48 -4.42 -1.46 -4.42 C-1.79 -4.42 -2.13 -4.39 -2.49 -4.32 C-2.84 -4.26 -3.19 -4.16 -3.58 -4.03 L-3.58 -2.99 C-3.28 -3.17 -2.96 -3.29 -2.61 -3.39 C-2.25 -3.48 -1.88 -3.52 -1.49 -3.52 C-0.83 -3.52 -0.31 -3.39 0.04 -3.13 C0.39 -2.86 0.57 -2.47 0.57 -1.96 C0.57 -1.49 0.41 -1.13 0.08 -0.87 C-0.25 -0.61 -0.69 -0.48 -1.29 -0.48 L-2.21 -0.48 L-2.21 0.41 L-1.25 0.41 C-0.72 0.41 -0.32 0.51 -0.04 0.72 C0.24 0.93 0.39 1.24 0.39 1.63 C0.39 2.04 0.24 2.35 -0.05 2.57 C-0.34 2.78 -0.75 2.89 -1.29 2.89 C-1.58 2.89 -1.89 2.86 -2.23 2.79 C-2.57 2.73 -2.94 2.63 -3.34 2.49 L-3.34 3.45 C-2.93 3.57 -2.55 3.65 -2.19 3.71 C-1.84 3.76 -1.51 3.79 -1.19 3.79 C-0.38 3.79 0.26 3.61 0.74 3.24 C1.21 2.87 1.45 2.37 1.45 1.74 C1.45 1.29 1.32 0.93 1.07 0.63 C0.82 0.33 0.46 0.12 0 0" class="ps01"/>
</g>
</g>
<path d="M163.71 13.976 L177.08 13.976 L177.08 27.336 L163.71 27.336 Z" class="ps02 ps10"/>
<path d="M163.71 13.976 L177.08 13.976 L177.08 27.336 L163.71 27.336 Z" class="ps03 ps10"/>
<g id="q78" class="ps03 ps10">
<g id="xfrm79" transform="matrix(1 0 0 1 169.165 17.717)">
<path d="M0 0 L1.76 0 L1.76 6.04 L-0.15 5.66 L-0.15 6.64 L1.74 7.02 L2.81 7.02 L2.81 0 L4.56 0 L4.56 -0.89 L0 -0.89" class="ps01"/>
</g>
</g>
<g id="q80" class="ps03 ps10">
<g id="xfrm81" transform="matrix(1 0 0 1 168.859 114.48)">
<path d="M0 0 L1.48 0 L1.48 5.11 L-0.13 4.78 L-0.13 5.61 L1.47 5.93 L2.38 5.93 L2.38 0 L3.86 0 L3.86 -0.76 L0 -0.76" class="ps01"/>
</g>
</g>
<g id="q82" class="ps03 ps10">
<g id="xfrm83" transform="matrix(1 0 0 1 182.639 114.48)">
<path d="M0 0 L3.17 0 L3.17 -0.76 L-1.09 -0.76 L-1.09 0 C-0.75 0.36 -0.28 0.83 0.31 1.43 C0.91 2.03 1.28 2.42 1.44 2.59 C1.73 2.92 1.93 3.19 2.04 3.42 C2.16 3.65 2.22 3.87 2.22 4.09 C2.22 4.44 2.09 4.73 1.84 4.95 C1.59 5.18 1.27 5.29 0.87 5.29 C0.58 5.29 0.28 5.24 -0.03 5.14 C-0.35 5.05 -0.68 4.89 -1.04 4.69 L-1.04 5.61 C-0.68 5.76 -0.34 5.87 -0.02 5.95 C0.29 6.02 0.59 6.06 0.85 6.06 C1.54 6.06 2.09 5.88 2.51 5.54 C2.92 5.19 3.13 4.73 3.13 4.14 C3.13 3.87 3.07 3.61 2.97 3.36 C2.87 3.11 2.68 2.82 2.41 2.49 C2.33 2.39 2.09 2.15 1.69 1.74 C1.29 1.32 0.73 0.75 0 0" class="ps01"/>
</g>
</g>
<g id="q84" class="ps03 ps10">
<g id="xfrm85" transform="matrix(1 0 0 1 197.89 117.326)">
<path d="M0 0 C0.43 -0.09 0.77 -0.29 1.02 -0.58 C1.26 -0.87 1.38 -1.23 1.38 -1.67 C1.38 -2.33 1.15 -2.84 0.69 -3.19 C0.24 -3.56 -0.39 -3.74 -1.23 -3.74 C-1.52 -3.74 -1.81 -3.71 -2.11 -3.66 C-2.41 -3.59 -2.71 -3.52 -3.03 -3.41 L-3.03 -2.53 C-2.78 -2.68 -2.49 -2.79 -2.19 -2.87 C-1.89 -2.94 -1.59 -2.98 -1.27 -2.98 C-0.69 -2.98 -0.26 -2.87 0.03 -2.64 C0.33 -2.42 0.48 -2.09 0.48 -1.67 C0.48 -1.27 0.34 -0.96 0.06 -0.74 C-0.21 -0.51 -0.59 -0.39 -1.09 -0.39 L-1.87 -0.39 L-1.87 0.35 L-1.05 0.35 C-0.61 0.35 -0.27 0.43 -0.03 0.61 C0.21 0.79 0.33 1.05 0.33 1.38 C0.33 1.73 0.19 1.99 -0.04 2.17 C-0.29 2.36 -0.63 2.45 -1.09 2.45 C-1.34 2.45 -1.59 2.42 -1.89 2.36 C-2.17 2.31 -2.48 2.23 -2.83 2.12 L-2.83 2.92 C-2.48 3.02 -2.16 3.09 -1.86 3.14 C-1.56 3.19 -1.28 3.21 -1 3.21 C-0.32 3.21 0.22 3.05 0.63 2.74 C1.03 2.43 1.23 2.01 1.23 1.48 C1.23 1.09 1.12 0.79 0.91 0.54 C0.69 0.28 0.39 0.09 0 0" class="ps01"/>
</g>
</g>
<g id="q86" class="ps03 ps10">
<g id="xfrm87" transform="matrix(1 0 0 1 179.893 8.18)">
<path d="M0 0 C-0.41 -0.69 -0.69 -1.37 -0.89 -2.04 C-1.09 -2.71 -1.19 -3.39 -1.19 -4.09 C-1.19 -4.78 -1.09 -5.46 -0.89 -6.14 C-0.69 -6.82 -0.39 -7.49 0 -8.18 L-0.72 -8.18 C-1.17 -7.48 -1.51 -6.79 -1.73 -6.11 C-1.95 -5.43 -2.06 -4.76 -2.06 -4.09 C-2.06 -3.42 -1.95 -2.75 -1.73 -2.08 C-1.51 -1.39 -1.17 -0.71 -0.72 0 L0 0 ZM4.97 -2.71 L4.97 0.01 L5.79 0.01 L5.79 -6.97 L4.97 -6.97 L4.97 -6.21 C4.79 -6.51 4.59 -6.74 4.32 -6.89 C4.06 -7.03 3.74 -7.09 3.37 -7.09 C2.76 -7.09 2.26 -6.86 1.88 -6.38 C1.49 -5.89 1.31 -5.25 1.31 -4.47 C1.31 -3.67 1.49 -3.04 1.88 -2.55 C2.26 -2.07 2.76 -1.82 3.37 -1.82 C3.74 -1.82 4.06 -1.89 4.32 -2.04 C4.59 -2.19 4.79 -2.41 4.97 -2.71 ZM2.16 -4.47 C2.16 -5.07 2.29 -5.55 2.53 -5.89 C2.78 -6.24 3.13 -6.41 3.57 -6.41 C4.01 -6.41 4.35 -6.24 4.59 -5.89 C4.85 -5.55 4.97 -5.07 4.97 -4.47 C4.97 -3.86 4.85 -3.38 4.59 -3.04 C4.35 -2.69 4.01 -2.51 3.57 -2.51 C3.13 -2.51 2.78 -2.69 2.53 -3.04 C2.29 -3.38 2.16 -3.86 2.16 -4.47 ZM7.48 0 L8.19 0 C8.64 -0.71 8.98 -1.39 9.19 -2.08 C9.43 -2.75 9.53 -3.42 9.53 -4.09 C9.53 -4.76 9.43 -5.43 9.19 -6.11 C8.98 -6.79 8.64 -7.48 8.19 -8.18 L7.48 -8.18 C7.88 -7.49 8.17 -6.82 8.37 -6.14 C8.56 -5.46 8.66 -4.78 8.66 -4.09 C8.66 -3.39 8.56 -2.71 8.37 -2.04 C8.17 -1.37 7.88 -0.69 7.48 0" class="ps01"/>
</g>
</g>
<path d="M106.78 93.968 L120.14 93.968 L120.14 107.33 L106.78 107.33 Z" class="ps02 ps10"/>
<path d="M106.78 93.968 L120.14 93.968 L120.14 107.33 L106.78 107.33 Z" class="ps03 ps10"/>
<g id="q88" class="ps03 ps10">
<g id="xfrm89" transform="matrix(1 0 0 1 112.232 97.708)">
<path d="M0 0 L1.76 0 L1.76 6.04 L-0.15 5.66 L-0.15 6.64 L1.74 7.02 L2.81 7.02 L2.81 0 L4.56 0 L4.56 -0.89 L0 -0.89" class="ps01"/>
</g>
</g>
<path d="M120.15 93.968 L133.51 93.968 L133.51 107.33 L120.15 107.33 Z" class="ps04 ps10"/>
<path d="M120.15 93.968 L133.51 93.968 L133.51 107.33 L120.15 107.33 Z" class="ps03 ps10"/>
<g id="q90" class="ps03 ps10">
<g id="xfrm91" transform="matrix(1 0 0 1 126.335 97.708)">
<path d="M0 0 L3.74 0 L3.74 -0.89 L-1.29 -0.89 L-1.29 0 C-0.88 0.42 -0.33 0.99 0.37 1.69 C1.08 2.41 1.52 2.86 1.69 3.07 C2.04 3.45 2.28 3.77 2.41 4.04 C2.55 4.31 2.62 4.57 2.62 4.83 C2.62 5.25 2.48 5.59 2.18 5.86 C1.88 6.12 1.49 6.26 1.02 6.26 C0.69 6.26 0.33 6.19 -0.04 6.08 C-0.41 5.96 -0.81 5.79 -1.23 5.55 L-1.23 6.64 C-0.79 6.81 -0.39 6.93 -0.03 7.02 C0.35 7.11 0.69 7.16 1 7.16 C1.82 7.16 2.48 6.95 2.96 6.55 C3.45 6.14 3.69 5.59 3.69 4.89 C3.69 4.58 3.64 4.26 3.52 3.97 C3.39 3.68 3.17 3.34 2.85 2.94 C2.76 2.84 2.48 2.55 2 2.06 C1.53 1.56 0.86 0.88 0 0" class="ps01"/>
</g>
</g>
<path d="M133.51 93.968 L146.87 93.968 L146.87 107.33 L133.51 107.33 Z" class="ps06 ps10"/>
<path d="M133.51 93.968 L146.87 93.968 L146.87 107.33 L133.51 107.33 Z" class="ps03 ps10"/>
<g id="q92" class="ps03 ps10">
<g id="xfrm93" transform="matrix(1 0 0 1 141.724 103.791)">
<path d="M0 0 L-2.69 -4.22 L0 -4.22 L0 0 ZM-0.28 0.93 L1.06 0.93 L1.06 -4.22 L2.19 -4.22 L2.19 -5.12 L1.06 -5.12 L1.06 -6.98 L0 -6.98 L0 -5.12 L-3.58 -5.12 L-3.58 -4.09" class="ps01"/>
</g>
</g>
<path d="M120.27 13.976 L133.64 13.976 L133.64 27.336 L120.27 27.336 Z" class="ps05 ps10"/>
<path d="M120.27 13.976 L133.64 13.976 L133.64 27.336 L120.27 27.336 Z" class="ps03 ps10"/>
<g id="q94" class="ps03 ps10">
<g id="xfrm95" transform="matrix(1 0 0 1 128.788 21.084)">
<path d="M0 0 C0.51 -0.11 0.91 -0.34 1.19 -0.69 C1.49 -1.03 1.63 -1.45 1.63 -1.96 C1.63 -2.75 1.36 -3.35 0.82 -3.79 C0.29 -4.21 -0.48 -4.42 -1.46 -4.42 C-1.79 -4.42 -2.13 -4.39 -2.49 -4.32 C-2.84 -4.26 -3.19 -4.16 -3.58 -4.03 L-3.58 -2.99 C-3.28 -3.17 -2.96 -3.29 -2.61 -3.39 C-2.25 -3.48 -1.88 -3.52 -1.49 -3.52 C-0.83 -3.52 -0.31 -3.39 0.04 -3.13 C0.39 -2.86 0.57 -2.47 0.57 -1.96 C0.57 -1.49 0.39 -1.13 0.08 -0.87 C-0.25 -0.61 -0.69 -0.48 -1.29 -0.48 L-2.21 -0.48 L-2.21 0.41 L-1.25 0.41 C-0.72 0.41 -0.32 0.51 -0.04 0.72 C0.24 0.93 0.39 1.24 0.39 1.63 C0.39 2.04 0.24 2.35 -0.05 2.57 C-0.34 2.78 -0.75 2.89 -1.29 2.89 C-1.58 2.89 -1.89 2.86 -2.23 2.79 C-2.57 2.73 -2.94 2.63 -3.34 2.49 L-3.34 3.45 C-2.94 3.57 -2.55 3.65 -2.19 3.71 C-1.84 3.76 -1.51 3.79 -1.19 3.79 C-0.38 3.79 0.26 3.61 0.74 3.24 C1.21 2.87 1.45 2.37 1.45 1.74 C1.45 1.29 1.32 0.93 1.07 0.63 C0.82 0.33 0.46 0.12 0 0" class="ps01"/>
</g>
</g>
<path d="M106.91 74.121 L120.27 74.121 L120.27 87.481 L106.91 87.481 Z" class="ps02 ps10"/>
<path d="M106.91 74.121 L120.27 74.121 L120.27 87.481 L106.91 87.481 Z" class="ps03 ps10"/>
<g id="q96" class="ps03 ps10">
<g id="xfrm97" transform="matrix(1 0 0 1 112.361 77.862)">
<path d="M0 0 L1.76 0 L1.76 6.04 L-0.15 5.66 L-0.15 6.64 L1.74 7.02 L2.81 7.02 L2.81 0 L4.56 0 L4.56 -0.89 L0 -0.89" class="ps01"/>
</g>
</g>
<path d="M106.91 54.072 L120.27 54.072 L120.27 67.442 L106.91 67.442 Z" class="ps02 ps10"/>
<path d="M106.91 54.072 L120.27 54.072 L120.27 67.442 L106.91 67.442 Z" class="ps03 ps10"/>
<g id="q98" class="ps03 ps10">
<g id="xfrm99" transform="matrix(1 0 0 1 112.361 57.813)">
<path d="M0 0 L1.76 0 L1.76 6.04 L-0.15 5.66 L-0.15 6.64 L1.74 7.02 L2.81 7.02 L2.81 0 L4.56 0 L4.56 -0.89 L0 -0.89" class="ps01"/>
</g>
</g>
<path d="M106.91 34.024 L120.27 34.024 L120.27 47.384 L106.91 47.384 Z" class="ps02 ps10"/>
<path d="M106.91 34.024 L120.27 34.024 L120.27 47.384 L106.91 47.384 Z" class="ps03 ps10"/>
<g id="q100" class="ps03 ps10">
<g id="xfrm101" transform="matrix(1 0 0 1 112.361 37.765)">
<path d="M0 0 L1.76 0 L1.76 6.04 L-0.15 5.66 L-0.15 6.64 L1.74 7.02 L2.81 7.02 L2.81 0 L4.56 0 L4.56 -0.89 L0 -0.89" class="ps01"/>
</g>
</g>
<path d="M106.91 13.976 L120.27 13.976 L120.27 27.336 L106.91 27.336 Z" class="ps02 ps10"/>
<path d="M106.91 13.976 L120.27 13.976 L120.27 27.336 L106.91 27.336 Z" class="ps03 ps10"/>
<g id="q102" class="ps03 ps10">
<g id="xfrm103" transform="matrix(1 0 0 1 112.361 17.717)">
<path d="M0 0 L1.76 0 L1.76 6.04 L-0.15 5.66 L-0.15 6.64 L1.74 7.02 L2.81 7.02 L2.81 0 L4.56 0 L4.56 -0.89 L0 -0.89" class="ps01"/>
</g>
</g>
<g id="q104" class="ps03 ps10">
<g id="xfrm105" transform="matrix(1 0 0 1 112.056 114.48)">
<path d="M0 0 L1.48 0 L1.48 5.11 L-0.13 4.78 L-0.13 5.61 L1.47 5.93 L2.38 5.93 L2.38 0 L3.86 0 L3.86 -0.76 L0 -0.76" class="ps01"/>
</g>
</g>
<g id="q106" class="ps03 ps10">
<g id="xfrm107" transform="matrix(1 0 0 1 125.835 114.48)">
<path d="M0 0 L3.17 0 L3.17 -0.76 L-1.09 -0.76 L-1.09 0 C-0.75 0.36 -0.28 0.83 0.31 1.43 C0.91 2.03 1.28 2.42 1.44 2.59 C1.73 2.92 1.93 3.19 2.04 3.42 C2.16 3.65 2.22 3.87 2.22 4.09 C2.22 4.44 2.09 4.73 1.84 4.95 C1.59 5.18 1.27 5.29 0.87 5.29 C0.58 5.29 0.28 5.24 -0.03 5.14 C-0.35 5.05 -0.68 4.89 -1.04 4.69 L-1.04 5.61 C-0.68 5.76 -0.34 5.87 -0.02 5.95 C0.29 6.02 0.59 6.06 0.85 6.06 C1.54 6.06 2.09 5.88 2.51 5.54 C2.92 5.19 3.13 4.73 3.13 4.14 C3.13 3.87 3.07 3.61 2.97 3.36 C2.87 3.11 2.68 2.82 2.41 2.49 C2.33 2.39 2.09 2.15 1.69 1.74 C1.29 1.32 0.73 0.75 0 0" class="ps01"/>
</g>
</g>
<path d="M120.43 74.121 L133.8 74.121 L133.8 87.481 L120.43 87.481 Z" class="ps04 ps10"/>
<path d="M120.43 74.121 L133.8 74.121 L133.8 87.481 L120.43 87.481 Z" class="ps03 ps10"/>
<g id="q108" class="ps03 ps10">
<g id="xfrm109" transform="matrix(1 0 0 1 126.619 77.862)">
<path d="M0 0 L3.74 0 L3.74 -0.89 L-1.29 -0.89 L-1.29 0 C-0.88 0.42 -0.33 0.99 0.37 1.69 C1.08 2.41 1.52 2.86 1.69 3.07 C2.04 3.45 2.28 3.78 2.41 4.04 C2.55 4.31 2.62 4.57 2.62 4.83 C2.62 5.25 2.48 5.59 2.18 5.86 C1.88 6.13 1.49 6.26 1.02 6.26 C0.69 6.26 0.33 6.19 -0.04 6.08 C-0.41 5.97 -0.81 5.79 -1.23 5.55 L-1.23 6.64 C-0.79 6.81 -0.39 6.94 -0.03 7.02 C0.35 7.11 0.69 7.16 1 7.16 C1.82 7.16 2.48 6.96 2.96 6.55 C3.45 6.14 3.69 5.59 3.69 4.89 C3.69 4.58 3.64 4.26 3.52 3.98 C3.39 3.68 3.17 3.34 2.85 2.94 C2.76 2.84 2.48 2.55 2 2.06 C1.53 1.56 0.86 0.88 0 0" class="ps01"/>
</g>
</g>
<path d="M120.27 54.072 L133.64 54.072 L133.64 67.442 L120.27 67.442 Z" class="ps04 ps10"/>
<path d="M120.27 54.072 L133.64 54.072 L133.64 67.442 L120.27 67.442 Z" class="ps03 ps10"/>
<g id="q110" class="ps03 ps10">
<g id="xfrm111" transform="matrix(1 0 0 1 126.464 57.813)">
<path d="M0 0 L3.74 0 L3.74 -0.89 L-1.29 -0.89 L-1.29 0 C-0.88 0.42 -0.33 0.99 0.37 1.69 C1.08 2.41 1.52 2.86 1.69 3.07 C2.04 3.45 2.28 3.78 2.41 4.04 C2.55 4.31 2.62 4.57 2.62 4.83 C2.62 5.25 2.48 5.59 2.18 5.86 C1.88 6.13 1.49 6.26 1.02 6.26 C0.69 6.26 0.33 6.19 -0.04 6.08 C-0.41 5.97 -0.81 5.79 -1.23 5.55 L-1.23 6.64 C-0.79 6.81 -0.39 6.94 -0.03 7.02 C0.35 7.11 0.69 7.16 1 7.16 C1.82 7.16 2.48 6.96 2.96 6.55 C3.45 6.14 3.69 5.59 3.69 4.89 C3.69 4.58 3.64 4.26 3.52 3.98 C3.39 3.68 3.17 3.34 2.85 2.94 C2.76 2.84 2.48 2.55 2 2.06 C1.53 1.56 0.86 0.88 0 0" class="ps01"/>
</g>
</g>
<path d="M121.72 69.36 L132.19 69.36 C134.06 69.36 135.56 67.85 135.56 65.99 L135.56 55.53 C135.56 53.67 134.06 52.15 132.19 52.15 L121.72 52.15 C119.85 52.15 118.35 53.67 118.35 55.53 L118.35 65.99 C118.35 67.85 119.85 69.36 121.72 69.36 Z" class="ps07 ps11"/>
<g id="q112" class="ps07 ps11">
<g id="xfrm113" transform="matrix(1 0 0 1 123.466 8.18)">
<path d="M0 0 C-0.39 -0.69 -0.69 -1.37 -0.89 -2.04 C-1.09 -2.71 -1.19 -3.39 -1.19 -4.09 C-1.19 -4.78 -1.09 -5.46 -0.89 -6.14 C-0.69 -6.82 -0.39 -7.49 0 -8.18 L-0.72 -8.18 C-1.17 -7.48 -1.51 -6.79 -1.73 -6.11 C-1.95 -5.43 -2.06 -4.76 -2.06 -4.09 C-2.06 -3.42 -1.95 -2.75 -1.73 -2.08 C-1.51 -1.39 -1.17 -0.71 -0.72 0 L0 0 ZM5.29 -2.14 L5.29 -2.91 C5.05 -2.78 4.82 -2.69 4.58 -2.62 C4.35 -2.56 4.11 -2.53 3.87 -2.53 C3.34 -2.53 2.92 -2.69 2.63 -3.04 C2.33 -3.38 2.18 -3.85 2.18 -4.47 C2.18 -5.08 2.33 -5.55 2.63 -5.89 C2.92 -6.23 3.34 -6.39 3.87 -6.39 C4.11 -6.39 4.35 -6.37 4.58 -6.31 C4.82 -6.24 5.05 -6.14 5.29 -6.02 L5.29 -6.78 C5.06 -6.88 4.82 -6.97 4.57 -7.02 C4.32 -7.07 4.06 -7.09 3.79 -7.09 C3.03 -7.09 2.43 -6.87 1.98 -6.39 C1.53 -5.91 1.31 -5.27 1.31 -4.47 C1.31 -3.64 1.54 -2.99 1.99 -2.53 C2.44 -2.06 3.06 -1.82 3.84 -1.82 C4.09 -1.82 4.34 -1.85 4.58 -1.89 C4.83 -1.95 5.06 -2.03 5.29 -2.14 ZM6.69 0 L7.41 0 C7.86 -0.71 8.19 -1.39 8.42 -2.08 C8.64 -2.75 8.75 -3.42 8.75 -4.09 C8.75 -4.76 8.64 -5.43 8.42 -6.11 C8.19 -6.79 7.86 -7.48 7.41 -8.18 L6.69 -8.18 C7.09 -7.49 7.39 -6.82 7.58 -6.14 C7.78 -5.46 7.88 -4.78 7.88 -4.09 C7.88 -3.39 7.78 -2.71 7.58 -2.04 C7.39 -1.37 7.09 -0.69 6.69 0" class="ps01"/>
</g>
</g>
<g id="q114" class="ps07 ps11">
<g id="xfrm115" transform="matrix(1 0 0 1 141.086 117.326)">
<path d="M0 0 C0.43 -0.09 0.77 -0.29 1.02 -0.58 C1.26 -0.87 1.38 -1.23 1.38 -1.67 C1.38 -2.33 1.15 -2.84 0.69 -3.19 C0.25 -3.56 -0.39 -3.74 -1.23 -3.74 C-1.52 -3.74 -1.81 -3.71 -2.11 -3.66 C-2.41 -3.59 -2.71 -3.52 -3.03 -3.41 L-3.03 -2.53 C-2.78 -2.68 -2.49 -2.79 -2.19 -2.87 C-1.89 -2.94 -1.59 -2.98 -1.27 -2.98 C-0.69 -2.98 -0.26 -2.87 0.03 -2.64 C0.33 -2.42 0.48 -2.09 0.48 -1.67 C0.48 -1.27 0.34 -0.96 0.07 -0.74 C-0.21 -0.51 -0.59 -0.39 -1.09 -0.39 L-1.87 -0.39 L-1.87 0.35 L-1.05 0.35 C-0.61 0.35 -0.27 0.43 -0.03 0.61 C0.21 0.79 0.33 1.05 0.33 1.38 C0.33 1.73 0.19 1.99 -0.04 2.17 C-0.29 2.36 -0.63 2.45 -1.09 2.45 C-1.34 2.45 -1.59 2.42 -1.89 2.36 C-2.17 2.31 -2.48 2.23 -2.83 2.12 L-2.83 2.92 C-2.48 3.02 -2.16 3.09 -1.86 3.14 C-1.56 3.19 -1.28 3.21 -1 3.21 C-0.32 3.21 0.23 3.05 0.63 2.74 C1.03 2.43 1.23 2.01 1.23 1.48 C1.23 1.09 1.12 0.79 0.91 0.54 C0.69 0.28 0.39 0.09 0 0" class="ps01"/>
</g>
</g>
<path d="M220.52 94.169 L233.88 94.169 L233.88 107.53 L220.52 107.53 Z" class="ps02 ps11"/>
<path d="M220.52 94.169 L233.88 94.169 L233.88 107.53 L220.52 107.53 Z" class="ps03 ps10"/>
<g id="q116" class="ps03 ps10">
<g id="xfrm117" transform="matrix(1 0 0 1 225.968 97.91)">
<path d="M0 0 L1.76 0 L1.76 6.04 L-0.15 5.66 L-0.15 6.64 L1.74 7.02 L2.81 7.02 L2.81 0 L4.56 0 L4.56 -0.89 L0 -0.89" class="ps01"/>
</g>
</g>
<path d="M233.88 94.169 L247.24 94.169 L247.24 107.53 L233.88 107.53 Z" class="ps04 ps10"/>
<path d="M233.88 94.169 L247.24 94.169 L247.24 107.53 L233.88 107.53 Z" class="ps03 ps10"/>
<g id="q118" class="ps03 ps10">
<g id="xfrm119" transform="matrix(1 0 0 1 240.071 97.91)">
<path d="M0 0 L3.74 0 L3.74 -0.89 L-1.29 -0.89 L-1.29 0 C-0.88 0.42 -0.33 0.99 0.37 1.69 C1.08 2.41 1.52 2.86 1.69 3.07 C2.04 3.45 2.28 3.78 2.41 4.04 C2.55 4.31 2.62 4.57 2.62 4.83 C2.62 5.25 2.48 5.59 2.18 5.86 C1.88 6.13 1.49 6.26 1.02 6.26 C0.69 6.26 0.33 6.19 -0.04 6.08 C-0.41 5.97 -0.81 5.79 -1.23 5.55 L-1.23 6.64 C-0.79 6.81 -0.39 6.94 -0.03 7.02 C0.35 7.11 0.69 7.16 1 7.16 C1.82 7.16 2.48 6.96 2.96 6.55 C3.45 6.14 3.69 5.59 3.69 4.89 C3.69 4.58 3.64 4.26 3.52 3.98 C3.39 3.68 3.17 3.34 2.85 2.94 C2.76 2.84 2.48 2.55 2 2.06 C1.53 1.56 0.86 0.88 0 0" class="ps01"/>
</g>
</g>
<path d="M247.25 94.169 L260.62 94.169 L260.62 107.53 L247.25 107.53 Z" class="ps06 ps10"/>
<path d="M247.25 94.169 L260.62 94.169 L260.62 107.53 L247.25 107.53 Z" class="ps03 ps10"/>
<g id="q120" class="ps03 ps10">
<g id="xfrm121" transform="matrix(1 0 0 1 255.459 103.993)">
<path d="M0 0 L-2.69 -4.22 L0 -4.22 L0 0 ZM-0.28 0.93 L1.06 0.93 L1.06 -4.22 L2.19 -4.22 L2.19 -5.12 L1.06 -5.12 L1.06 -6.98 L0 -6.98 L0 -5.12 L-3.58 -5.12 L-3.58 -4.09" class="ps01"/>
</g>
</g>
<path d="M233.88 13.976 L247.24 13.976 L247.24 27.336 L233.88 27.336 Z" class="ps05 ps10"/>
<path d="M233.88 13.976 L247.24 13.976 L247.24 27.336 L233.88 27.336 Z" class="ps03 ps10"/>
<g id="q122" class="ps03 ps10">
<g id="xfrm123" transform="matrix(1 0 0 1 242.394 21.084)">
<path d="M0 0 C0.51 -0.11 0.91 -0.34 1.19 -0.69 C1.49 -1.03 1.63 -1.45 1.63 -1.96 C1.63 -2.75 1.36 -3.35 0.82 -3.79 C0.29 -4.21 -0.48 -4.42 -1.46 -4.42 C-1.79 -4.42 -2.13 -4.39 -2.49 -4.32 C-2.84 -4.26 -3.19 -4.16 -3.58 -4.03 L-3.58 -2.99 C-3.28 -3.17 -2.96 -3.29 -2.61 -3.39 C-2.25 -3.48 -1.88 -3.52 -1.49 -3.52 C-0.83 -3.52 -0.31 -3.39 0.04 -3.13 C0.39 -2.86 0.57 -2.47 0.57 -1.96 C0.57 -1.49 0.41 -1.13 0.08 -0.87 C-0.25 -0.61 -0.69 -0.48 -1.29 -0.48 L-2.21 -0.48 L-2.21 0.41 L-1.25 0.41 C-0.72 0.41 -0.32 0.51 -0.04 0.72 C0.24 0.93 0.39 1.24 0.39 1.63 C0.39 2.04 0.24 2.35 -0.05 2.57 C-0.34 2.78 -0.75 2.89 -1.29 2.89 C-1.58 2.89 -1.89 2.86 -2.23 2.79 C-2.57 2.73 -2.94 2.63 -3.34 2.49 L-3.34 3.45 C-2.93 3.57 -2.55 3.65 -2.19 3.71 C-1.84 3.76 -1.51 3.79 -1.19 3.79 C-0.38 3.79 0.26 3.61 0.74 3.24 C1.21 2.87 1.45 2.37 1.45 1.74 C1.45 1.29 1.32 0.93 1.07 0.63 C0.82 0.33 0.47 0.12 0 0" class="ps01"/>
</g>
</g>
<path d="M220.52 74.121 L233.88 74.121 L233.88 87.481 L220.52 87.481 Z" class="ps02 ps10"/>
<path d="M220.52 74.121 L233.88 74.121 L233.88 87.481 L220.52 87.481 Z" class="ps03 ps10"/>
<g id="q124" class="ps03 ps10">
<g id="xfrm125" transform="matrix(1 0 0 1 225.968 77.862)">
<path d="M0 0 L1.76 0 L1.76 6.04 L-0.15 5.66 L-0.15 6.64 L1.74 7.02 L2.81 7.02 L2.81 0 L4.56 0 L4.56 -0.89 L0 -0.89" class="ps01"/>
</g>
</g>
<path d="M220.52 54.072 L233.88 54.072 L233.88 67.442 L220.52 67.442 Z" class="ps02 ps10"/>
<path d="M220.52 54.072 L233.88 54.072 L233.88 67.442 L220.52 67.442 Z" class="ps03 ps10"/>
<g id="q126" class="ps03 ps10">
<g id="xfrm127" transform="matrix(1 0 0 1 225.968 57.813)">
<path d="M0 0 L1.76 0 L1.76 6.04 L-0.15 5.66 L-0.15 6.64 L1.74 7.02 L2.81 7.02 L2.81 0 L4.56 0 L4.56 -0.89 L0 -0.89" class="ps01"/>
</g>
</g>
<path d="M220.52 34.024 L233.88 34.024 L233.88 47.384 L220.52 47.384 Z" class="ps02 ps10"/>
<path d="M220.52 34.024 L233.88 34.024 L233.88 47.384 L220.52 47.384 Z" class="ps03 ps10"/>
<g id="q128" class="ps03 ps10">
<g id="xfrm129" transform="matrix(1 0 0 1 225.968 37.765)">
<path d="M0 0 L1.76 0 L1.76 6.04 L-0.15 5.66 L-0.15 6.64 L1.74 7.02 L2.81 7.02 L2.81 0 L4.56 0 L4.56 -0.89 L0 -0.89" class="ps01"/>
</g>
</g>
<path d="M220.52 13.976 L233.88 13.976 L233.88 27.336 L220.52 27.336 Z" class="ps02 ps10"/>
<path d="M220.52 13.976 L233.88 13.976 L233.88 27.336 L220.52 27.336 Z" class="ps03 ps10"/>
<g id="q130" class="ps03 ps10">
<g id="xfrm131" transform="matrix(1 0 0 1 225.968 17.717)">
<path d="M0 0 L1.76 0 L1.76 6.04 L-0.15 5.66 L-0.15 6.64 L1.74 7.02 L2.81 7.02 L2.81 0 L4.56 0 L4.56 -0.89 L0 -0.89" class="ps01"/>
</g>
</g>
<g id="q132" class="ps03 ps10">
<g id="xfrm133" transform="matrix(1 0 0 1 225.662 114.48)">
<path d="M0 0 L1.48 0 L1.48 5.11 L-0.13 4.78 L-0.13 5.61 L1.47 5.93 L2.38 5.93 L2.38 0 L3.86 0 L3.86 -0.76 L0 -0.76" class="ps01"/>
</g>
</g>
<g id="q134" class="ps03 ps10">
<g id="xfrm135" transform="matrix(1 0 0 1 239.442 114.48)">
<path d="M0 0 L3.17 0 L3.17 -0.76 L-1.09 -0.76 L-1.09 0 C-0.75 0.36 -0.28 0.83 0.31 1.43 C0.91 2.03 1.28 2.42 1.44 2.59 C1.73 2.92 1.93 3.19 2.04 3.42 C2.16 3.65 2.22 3.87 2.22 4.09 C2.22 4.44 2.09 4.73 1.84 4.95 C1.59 5.18 1.27 5.29 0.87 5.29 C0.58 5.29 0.28 5.24 -0.03 5.14 C-0.35 5.05 -0.68 4.89 -1.04 4.69 L-1.04 5.61 C-0.68 5.76 -0.34 5.87 -0.02 5.95 C0.29 6.02 0.59 6.06 0.85 6.06 C1.54 6.06 2.09 5.88 2.51 5.54 C2.92 5.19 3.13 4.73 3.13 4.14 C3.13 3.87 3.07 3.61 2.97 3.36 C2.87 3.11 2.68 2.82 2.41 2.49 C2.33 2.39 2.09 2.15 1.69 1.74 C1.29 1.32 0.73 0.75 0 0" class="ps01"/>
</g>
</g>
<g id="q136" class="ps03 ps10">
<g id="xfrm137" transform="matrix(1 0 0 1 254.693 117.326)">
<path d="M0 0 C0.43 -0.09 0.77 -0.29 1.02 -0.58 C1.26 -0.87 1.38 -1.23 1.38 -1.67 C1.38 -2.33 1.15 -2.84 0.69 -3.19 C0.25 -3.56 -0.39 -3.74 -1.23 -3.74 C-1.52 -3.74 -1.81 -3.71 -2.11 -3.66 C-2.41 -3.59 -2.71 -3.52 -3.03 -3.41 L-3.03 -2.53 C-2.78 -2.68 -2.49 -2.79 -2.19 -2.87 C-1.89 -2.94 -1.59 -2.98 -1.27 -2.98 C-0.69 -2.98 -0.26 -2.87 0.03 -2.64 C0.33 -2.42 0.48 -2.09 0.48 -1.67 C0.48 -1.27 0.34 -0.96 0.06 -0.74 C-0.21 -0.51 -0.59 -0.39 -1.09 -0.39 L-1.87 -0.39 L-1.87 0.35 L-1.05 0.35 C-0.61 0.35 -0.27 0.43 -0.03 0.61 C0.21 0.79 0.33 1.05 0.33 1.38 C0.33 1.73 0.19 1.99 -0.04 2.17 C-0.29 2.36 -0.63 2.45 -1.09 2.45 C-1.34 2.45 -1.59 2.42 -1.89 2.36 C-2.17 2.31 -2.48 2.23 -2.83 2.12 L-2.83 2.92 C-2.48 3.02 -2.16 3.09 -1.86 3.14 C-1.56 3.19 -1.28 3.21 -1 3.21 C-0.32 3.21 0.22 3.05 0.63 2.74 C1.03 2.43 1.23 2.01 1.23 1.48 C1.23 1.09 1.12 0.79 0.91 0.54 C0.69 0.28 0.39 0.09 0 0" class="ps01"/>
</g>
</g>
<path d="M234.03 74.121 L247.39 74.121 L247.39 87.481 L234.03 87.481 Z" class="ps04 ps10"/>
<path d="M234.03 74.121 L247.39 74.121 L247.39 87.481 L234.03 87.481 Z" class="ps03 ps10"/>
<g id="q138" class="ps03 ps10">
<g id="xfrm139" transform="matrix(1 0 0 1 240.226 77.862)">
<path d="M0 0 L3.74 0 L3.74 -0.89 L-1.29 -0.89 L-1.29 0 C-0.88 0.42 -0.33 0.99 0.37 1.69 C1.08 2.41 1.52 2.86 1.69 3.07 C2.04 3.45 2.28 3.78 2.41 4.04 C2.55 4.31 2.62 4.57 2.62 4.83 C2.62 5.25 2.48 5.59 2.18 5.86 C1.88 6.13 1.49 6.26 1.02 6.26 C0.69 6.26 0.33 6.19 -0.04 6.08 C-0.41 5.97 -0.81 5.79 -1.23 5.55 L-1.23 6.64 C-0.79 6.81 -0.39 6.94 -0.03 7.02 C0.35 7.11 0.69 7.16 1 7.16 C1.82 7.16 2.48 6.96 2.96 6.55 C3.45 6.14 3.69 5.59 3.69 4.89 C3.69 4.58 3.64 4.26 3.52 3.98 C3.39 3.68 3.17 3.34 2.85 2.94 C2.76 2.84 2.48 2.55 2 2.06 C1.53 1.56 0.86 0.88 0 0" class="ps01"/>
</g>
</g>
<path d="M233.88 54.072 L247.24 54.072 L247.24 67.442 L233.88 67.442 Z" class="ps04 ps10"/>
<path d="M233.88 54.072 L247.24 54.072 L247.24 67.442 L233.88 67.442 Z" class="ps03 ps10"/>
<g id="q140" class="ps03 ps10">
<g id="xfrm141" transform="matrix(1 0 0 1 240.071 57.813)">
<path d="M0 0 L3.74 0 L3.74 -0.89 L-1.29 -0.89 L-1.29 0 C-0.88 0.42 -0.33 0.99 0.37 1.69 C1.08 2.41 1.52 2.86 1.69 3.07 C2.04 3.45 2.28 3.78 2.41 4.04 C2.55 4.31 2.62 4.57 2.62 4.83 C2.62 5.25 2.48 5.59 2.18 5.86 C1.88 6.13 1.49 6.26 1.02 6.26 C0.69 6.26 0.33 6.19 -0.04 6.08 C-0.41 5.97 -0.81 5.79 -1.23 5.55 L-1.23 6.64 C-0.79 6.81 -0.39 6.94 -0.03 7.02 C0.35 7.11 0.69 7.16 1 7.16 C1.82 7.16 2.48 6.96 2.96 6.55 C3.45 6.14 3.69 5.59 3.69 4.89 C3.69 4.58 3.64 4.26 3.52 3.98 C3.39 3.68 3.17 3.34 2.85 2.94 C2.76 2.84 2.48 2.55 2 2.06 C1.53 1.56 0.86 0.88 0 0" class="ps01"/>
</g>
</g>
<path d="M248.7 69.36 L259.16 69.36 C261.03 69.36 262.53 67.85 262.53 65.99 L262.53 55.53 C262.53 53.67 261.03 52.15 259.16 52.15 L248.7 52.15 C246.83 52.15 245.33 53.67 245.33 55.53 L245.33 65.99 C245.33 67.85 246.83 69.36 248.7 69.36 Z" class="ps07 ps11"/>
<path d="M247.25 74.121 L260.62 74.121 L260.62 87.481 L247.25 87.481 Z" class="ps06 ps11"/>
<path d="M247.25 74.121 L260.62 74.121 L260.62 87.481 L247.25 87.481 Z" class="ps03 ps10"/>
<g id="q142" class="ps03 ps10">
<g id="xfrm143" transform="matrix(1 0 0 1 255.459 83.944)">
<path d="M0 0 L-2.69 -4.22 L0 -4.22 L0 0 ZM-0.28 0.93 L1.06 0.93 L1.06 -4.22 L2.19 -4.22 L2.19 -5.12 L1.06 -5.12 L1.06 -6.98 L0 -6.98 L0 -5.12 L-3.58 -5.12 L-3.58 -4.09" class="ps01"/>
</g>
</g>
<path d="M247.25 54.072 L260.62 54.072 L260.62 67.442 L247.25 67.442 Z" class="ps06 ps10"/>
<path d="M247.25 54.072 L260.62 54.072 L260.62 67.442 L247.25 67.442 Z" class="ps03 ps12"/>
<g id="q144" class="ps03 ps12">
<g id="xfrm145" transform="matrix(1 0 0 1 255.459 63.896)">
<path d="M0 0 L-2.69 -4.22 L0 -4.22 L0 0 ZM-0.28 0.93 L1.06 0.93 L1.06 -4.22 L2.19 -4.22 L2.19 -5.12 L1.06 -5.12 L1.06 -6.98 L0 -6.98 L0 -5.12 L-3.58 -5.12 L-3.58 -4.09" class="ps01"/>
</g>
</g>
<g id="q146" class="ps03 ps12">
<g id="xfrm147" transform="matrix(1 0 0 1 236.788 8.18)">
<path d="M0 0 C-0.41 -0.69 -0.71 -1.37 -0.89 -2.04 C-1.09 -2.71 -1.19 -3.39 -1.19 -4.09 C-1.19 -4.78 -1.09 -5.46 -0.89 -6.14 C-0.69 -6.82 -0.39 -7.49 0 -8.18 L-0.72 -8.18 C-1.17 -7.48 -1.51 -6.79 -1.73 -6.11 C-1.95 -5.43 -2.06 -4.76 -2.06 -4.09 C-2.06 -3.42 -1.95 -2.75 -1.73 -2.08 C-1.51 -1.39 -1.17 -0.71 -0.72 0 L0 0 ZM5.96 -4.25 L5.96 -4.65 L2.17 -4.65 C2.21 -5.22 2.38 -5.66 2.68 -5.96 C2.99 -6.26 3.42 -6.39 3.97 -6.39 C4.28 -6.39 4.59 -6.36 4.89 -6.29 C5.18 -6.21 5.48 -6.09 5.78 -5.93 L5.78 -6.72 C5.48 -6.84 5.18 -6.94 4.86 -7 C4.55 -7.07 4.24 -7.09 3.92 -7.09 C3.12 -7.09 2.48 -6.87 2.01 -6.39 C1.54 -5.93 1.31 -5.29 1.31 -4.51 C1.31 -3.68 1.53 -3.03 1.98 -2.55 C2.42 -2.06 3.02 -1.82 3.77 -1.82 C4.45 -1.82 4.99 -2.04 5.38 -2.47 C5.77 -2.91 5.96 -3.49 5.96 -4.25 ZM5.14 -4.01 C5.13 -3.56 5.01 -3.19 4.76 -2.93 C4.51 -2.66 4.19 -2.53 3.79 -2.53 C3.32 -2.53 2.95 -2.66 2.68 -2.92 C2.39 -3.18 2.24 -3.54 2.19 -4.01 L5.14 -4.01 ZM7.29 0 L8.01 0 C8.46 -0.71 8.79 -1.39 9.02 -2.08 C9.24 -2.75 9.35 -3.42 9.35 -4.09 C9.35 -4.76 9.24 -5.43 9.02 -6.11 C8.79 -6.79 8.46 -7.48 8.01 -8.18 L7.29 -8.18 C7.69 -7.49 7.99 -6.82 8.18 -6.14 C8.38 -5.46 8.48 -4.78 8.48 -4.09 C8.48 -3.39 8.38 -2.71 8.18 -2.04 C7.99 -1.37 7.69 -0.69 7.29 0" class="ps01"/>
</g>
</g>
<path d="M177.08 34.024 L190.44 34.024 L190.44 47.384 L177.08 47.384 Z" class="ps05 ps12"/>
<path d="M177.08 34.024 L190.44 34.024 L190.44 47.384 L177.08 47.384 Z" class="ps03 ps10"/>
<g id="q148" class="ps03 ps10">
<g id="xfrm149" transform="matrix(1 0 0 1 185.591 41.133)">
<path d="M0 0 C0.51 -0.11 0.91 -0.34 1.19 -0.69 C1.49 -1.03 1.63 -1.45 1.63 -1.97 C1.63 -2.75 1.36 -3.36 0.82 -3.79 C0.29 -4.21 -0.48 -4.42 -1.46 -4.42 C-1.79 -4.42 -2.13 -4.39 -2.49 -4.32 C-2.84 -4.26 -3.19 -4.16 -3.58 -4.03 L-3.58 -2.99 C-3.28 -3.17 -2.96 -3.29 -2.61 -3.39 C-2.25 -3.48 -1.88 -3.52 -1.49 -3.52 C-0.83 -3.52 -0.31 -3.39 0.04 -3.13 C0.39 -2.86 0.57 -2.47 0.57 -1.97 C0.57 -1.49 0.41 -1.13 0.08 -0.87 C-0.25 -0.61 -0.69 -0.48 -1.29 -0.48 L-2.21 -0.48 L-2.21 0.39 L-1.25 0.39 C-0.72 0.39 -0.32 0.51 -0.04 0.72 C0.24 0.93 0.39 1.24 0.39 1.63 C0.39 2.04 0.24 2.35 -0.05 2.56 C-0.34 2.78 -0.75 2.89 -1.29 2.89 C-1.58 2.89 -1.89 2.86 -2.23 2.79 C-2.57 2.73 -2.94 2.63 -3.34 2.49 L-3.34 3.45 C-2.93 3.57 -2.55 3.65 -2.19 3.71 C-1.84 3.76 -1.51 3.79 -1.19 3.79 C-0.38 3.79 0.26 3.61 0.74 3.24 C1.21 2.87 1.45 2.37 1.45 1.74 C1.45 1.29 1.32 0.93 1.07 0.63 C0.82 0.33 0.46 0.12 0 0" class="ps01"/>
</g>
</g>
<path d="M177.08 54.072 L190.44 54.072 L190.44 67.442 L177.08 67.442 Z" class="ps05 ps10"/>
<path d="M177.08 54.072 L190.44 54.072 L190.44 67.442 L177.08 67.442 Z" class="ps03 ps10"/>
<g id="q150" class="ps03 ps10">
<g id="xfrm151" transform="matrix(1 0 0 1 185.591 61.181)">
<path d="M0 0 C0.51 -0.11 0.91 -0.34 1.19 -0.69 C1.49 -1.03 1.63 -1.45 1.63 -1.96 C1.63 -2.75 1.36 -3.35 0.82 -3.79 C0.29 -4.21 -0.48 -4.42 -1.46 -4.42 C-1.79 -4.42 -2.13 -4.39 -2.49 -4.32 C-2.84 -4.26 -3.19 -4.16 -3.58 -4.03 L-3.58 -2.99 C-3.28 -3.17 -2.96 -3.29 -2.61 -3.39 C-2.25 -3.48 -1.88 -3.52 -1.49 -3.52 C-0.83 -3.52 -0.31 -3.39 0.04 -3.13 C0.39 -2.86 0.57 -2.47 0.57 -1.96 C0.57 -1.49 0.41 -1.13 0.08 -0.87 C-0.25 -0.61 -0.69 -0.48 -1.29 -0.48 L-2.21 -0.48 L-2.21 0.41 L-1.25 0.41 C-0.72 0.41 -0.32 0.51 -0.04 0.72 C0.24 0.93 0.39 1.24 0.39 1.63 C0.39 2.04 0.24 2.35 -0.05 2.57 C-0.34 2.78 -0.75 2.89 -1.29 2.89 C-1.58 2.89 -1.89 2.86 -2.23 2.79 C-2.57 2.73 -2.94 2.63 -3.34 2.49 L-3.34 3.45 C-2.93 3.57 -2.55 3.65 -2.19 3.71 C-1.84 3.76 -1.51 3.79 -1.19 3.79 C-0.38 3.79 0.26 3.61 0.74 3.24 C1.21 2.87 1.45 2.37 1.45 1.74 C1.45 1.29 1.32 0.93 1.07 0.63 C0.82 0.33 0.46 0.12 0 0" class="ps01"/>
</g>
</g>
<path d="M178.53 69.36 L188.99 69.36 C190.86 69.36 192.36 67.85 192.36 65.99 L192.36 55.53 C192.36 53.67 190.86 52.15 188.99 52.15 L178.53 52.15 C176.66 52.15 175.16 53.67 175.16 55.53 L175.16 65.99 C175.16 67.85 176.66 69.36 178.53 69.36 Z" class="ps07 ps11"/>
<path d="M177.08 74.121 L190.44 74.121 L190.44 87.481 L177.08 87.481 Z" class="ps05 ps11"/>
<path d="M177.08 74.121 L190.44 74.121 L190.44 87.481 L177.08 87.481 Z" class="ps03 ps10"/>
<g id="q152" class="ps03 ps10">
<g id="xfrm153" transform="matrix(1 0 0 1 185.591 81.229)">
<path d="M0 0 C0.51 -0.11 0.91 -0.34 1.19 -0.69 C1.49 -1.03 1.63 -1.45 1.63 -1.96 C1.63 -2.75 1.36 -3.35 0.82 -3.79 C0.29 -4.21 -0.48 -4.42 -1.46 -4.42 C-1.79 -4.42 -2.13 -4.39 -2.49 -4.32 C-2.84 -4.26 -3.19 -4.16 -3.58 -4.03 L-3.58 -2.99 C-3.28 -3.17 -2.96 -3.29 -2.61 -3.39 C-2.25 -3.48 -1.88 -3.52 -1.49 -3.52 C-0.83 -3.52 -0.31 -3.39 0.04 -3.13 C0.39 -2.86 0.57 -2.47 0.57 -1.96 C0.57 -1.49 0.41 -1.13 0.08 -0.87 C-0.25 -0.61 -0.69 -0.48 -1.29 -0.48 L-2.21 -0.48 L-2.21 0.41 L-1.25 0.41 C-0.72 0.41 -0.32 0.51 -0.04 0.72 C0.24 0.93 0.39 1.24 0.39 1.63 C0.39 2.04 0.24 2.35 -0.05 2.57 C-0.34 2.78 -0.75 2.89 -1.29 2.89 C-1.58 2.89 -1.89 2.86 -2.23 2.79 C-2.57 2.73 -2.94 2.63 -3.34 2.49 L-3.34 3.45 C-2.93 3.57 -2.55 3.65 -2.19 3.71 C-1.84 3.76 -1.51 3.79 -1.19 3.79 C-0.38 3.79 0.26 3.61 0.74 3.24 C1.21 2.87 1.45 2.37 1.45 1.74 C1.45 1.29 1.32 0.93 1.07 0.63 C0.82 0.33 0.46 0.12 0 0" class="ps01"/>
</g>
</g>
<path d="M177.08 94.169 L190.44 94.169 L190.44 107.53 L177.08 107.53 Z" class="ps05 ps10"/>
<path d="M177.08 94.169 L190.44 94.169 L190.44 107.53 L177.08 107.53 Z" class="ps03 ps10"/>
<g id="q154" class="ps03 ps10">
<g id="xfrm155" transform="matrix(1 0 0 1 185.591 101.278)">
<path d="M0 0 C0.51 -0.11 0.91 -0.34 1.19 -0.69 C1.49 -1.03 1.63 -1.45 1.63 -1.96 C1.63 -2.75 1.36 -3.35 0.82 -3.79 C0.29 -4.21 -0.48 -4.42 -1.46 -4.42 C-1.79 -4.42 -2.13 -4.39 -2.49 -4.32 C-2.84 -4.26 -3.19 -4.16 -3.58 -4.03 L-3.58 -2.99 C-3.28 -3.17 -2.96 -3.29 -2.61 -3.39 C-2.25 -3.48 -1.88 -3.52 -1.49 -3.52 C-0.83 -3.52 -0.31 -3.39 0.04 -3.13 C0.39 -2.86 0.57 -2.47 0.57 -1.96 C0.57 -1.49 0.41 -1.13 0.08 -0.87 C-0.25 -0.61 -0.69 -0.48 -1.29 -0.48 L-2.21 -0.48 L-2.21 0.41 L-1.25 0.41 C-0.72 0.41 -0.32 0.51 -0.04 0.72 C0.24 0.93 0.39 1.24 0.39 1.63 C0.39 2.04 0.24 2.35 -0.05 2.57 C-0.34 2.78 -0.75 2.89 -1.29 2.89 C-1.58 2.89 -1.89 2.86 -2.23 2.79 C-2.57 2.73 -2.94 2.63 -3.34 2.49 L-3.34 3.45 C-2.93 3.57 -2.55 3.65 -2.19 3.71 C-1.84 3.76 -1.51 3.79 -1.19 3.79 C-0.38 3.79 0.26 3.61 0.74 3.24 C1.21 2.87 1.45 2.37 1.45 1.74 C1.45 1.29 1.32 0.93 1.07 0.63 C0.82 0.33 0.46 0.12 0 0" class="ps01"/>
</g>
</g>
<path d="M178.53 49.312 L188.99 49.312 C190.86 49.312 192.36 47.802 192.36 45.942 L192.36 35.482 C192.36 33.622 190.86 32.102 188.99 32.102 L178.53 32.102 C176.66 32.102 175.16 33.622 175.16 35.482 L175.16 45.942 C175.16 47.802 176.66 49.312 178.53 49.312 ZM178.53 89.402 L188.99 89.402 C190.86 89.402 192.36 87.902 192.36 86.032 L192.36 75.572 C192.36 73.702 190.86 72.202 188.99 72.202 L178.53 72.202 C176.66 72.202 175.16 73.702 175.16 75.572 L175.16 86.032 C175.16 87.902 176.66 89.402 178.53 89.402 ZM178.53 109.46 L188.99 109.46 C190.86 109.46 192.36 107.95 192.36 106.08 L192.36 95.622 C192.36 93.752 190.86 92.252 188.99 92.252 L178.53 92.252 C176.66 92.252 175.16 93.752 175.16 95.622 L175.16 106.08 C175.16 107.95 176.66 109.46 178.53 109.46 Z" class="ps07 ps11"/>
<g id="q156" class="ps07 ps13">
<g id="xfrm157" transform="matrix(1 0 0 1 188.524 25.419)">
<path d="M0 0 C11.26 6.67 15.39 14.16 5.35 26.06" class="ps07"/>
</g>
</g>
<g id="q158" class="ps07 ps13">
<g id="xfrm159" transform="matrix(1 0 0 1 195.499 45.536)">
<path d="M0 0 L-2.55 7.02 L3.94 3.33 C2.06 3.19 0.47 1.85 0 0" class="ps08"/>
</g>
</g>
<g id="q160" class="ps07 ps14">
<g id="xfrm161" transform="matrix(1 0 0 1 195.499 45.536)">
<path d="M0 0 L-2.55 7.02 L3.94 3.33 C2.06 3.19 0.47 1.85 0 0 Z" class="ps07"/>
</g>
</g>
<g id="q162" class="ps07 ps15">
<g id="xfrm163" transform="matrix(1 0 0 1 20.033 94.169)">
<path d="M0 0M0 0 L26.73 0 L26.73 13.36 L0 13.36 Z" class="ps03"/>
<g id="xfrm164" transform="matrix(1 0 0 1 43.55 -80.29)">
<path d="M0 0M0 0 L26.73 0 L26.73 13.35 L0 13.35 Z" class="ps03"/>
<g id="xfrm165" transform="matrix(1 0 0 1 43.2 80.1)">
<path d="M0 0M0 0 L40.09 0 L40.09 13.35 L0 13.35 Z" class="ps03"/>
<g id="xfrm166" transform="matrix(1 0 0 1 56.93 -80)">
<path d="M0 0M0 0 L26.73 0 L26.73 13.36 L0 13.36 Z" class="ps03"/>
<g id="xfrm167" transform="matrix(1 0 0 1 56.67 80)">
<path d="M0 0M0 0 L40.1 0 L40.1 13.35 L0 13.35 Z" class="ps03"/>
</g>
</g>
</g>
</g>
</g>
</g>
<g id="q168" class="ps07 ps13">
<g id="xfrm169" transform="matrix(1 0 0 1 258.025 96.341)">
<path d="M0 0 C11.26 -6.67 15.39 -14.16 5.35 -26.06" class="ps07"/>
</g>
</g>
<g id="q170" class="ps07 ps13">
<g id="xfrm171" transform="matrix(1 0 0 1 268.955 72.884)">
<path d="M0 0 L-6.49 -3.69 L-3.94 3.33 C-3.49 1.49 -1.89 0.15 0 0" class="ps08"/>
</g>
</g>
<g id="q172" class="ps07 ps14">
<g id="xfrm173" transform="matrix(1 0 0 1 268.955 72.884)">
<path d="M0 0 L-6.49 -3.69 L-3.94 3.33 C-3.49 1.49 -1.89 0.15 0 0 Z" class="ps07"/>
</g>
</g>
<g id="q174" class="ps07 ps13">
<g id="xfrm175" transform="matrix(1 0 0 1 131.053 96.341)">
<path d="M0 0 C11.26 -6.67 15.39 -14.16 5.35 -26.06" class="ps07"/>
</g>
</g>
<g id="q176" class="ps07 ps13">
<g id="xfrm177" transform="matrix(1 0 0 1 141.982 72.884)">
<path d="M0 0 L-6.49 -3.69 L-3.94 3.33 C-3.49 1.49 -1.89 0.15 0 0" class="ps08"/>
</g>
</g>
<g id="q178" class="ps07 ps14">
<g id="xfrm179" transform="matrix(1 0 0 1 141.982 72.884)">
<path d="M0 0 L-6.49 -3.69 L-3.94 3.33 C-3.49 1.49 -1.89 0.15 0 0 Z" class="ps07"/>
</g>
</g>
<g id="q180" class="ps07 ps13">
<g id="xfrm181" transform="matrix(1 0 0 1 188.524 25.419)">
<path d="M0 0 C11.26 6.67 15.39 14.16 5.35 26.06" class="ps07"/>
</g>
</g>
<g id="q182" class="ps07 ps13">
<g id="xfrm183" transform="matrix(1 0 0 1 195.499 45.536)">
<path d="M0 0 L-2.55 7.02 L3.94 3.33 C2.06 3.19 0.47 1.85 0 0" class="ps08"/>
</g>
</g>
<g id="q184" class="ps07 ps14">
<g id="xfrm185" transform="matrix(1 0 0 1 195.499 45.536)">
<path d="M0 0 L-2.55 7.02 L3.94 3.33 C2.06 3.19 0.47 1.85 0 0 Z" class="ps07"/>
</g>
</g>
<g id="q186" class="ps07 ps13">
<g id="xfrm187" transform="matrix(1 0 0 1 188.524 25.419)">
<path d="M0 0 C25.52 8.67 18.96 34.43 5.57 46.33" class="ps07"/>
</g>
</g>
<g id="q188" class="ps07 ps13">
<g id="xfrm189" transform="matrix(1 0 0 1 196.553 66.1)">
<path d="M0 0 L-3.53 6.59 L3.43 3.85 C1.58 3.46 0.19 1.89 0 0" class="ps08"/>
</g>
</g>
<g id="q190" class="ps07 ps14">
<g id="xfrm191" transform="matrix(1 0 0 1 196.553 66.1)">
<path d="M0 0 L-3.53 6.59 L3.43 3.85 C1.58 3.46 0.19 1.89 0 0 Z" class="ps07"/>
</g>
</g>
<g id="q192" class="ps07 ps13">
<g id="xfrm193" transform="matrix(1 0 0 1 188.524 25.419)">
<path d="M0 0 C19.95 1.09 34.77 35.54 5.12 66.38" class="ps07"/>
</g>
</g>
<g id="q194" class="ps07 ps13">
<g id="xfrm195" transform="matrix(1 0 0 1 195.659 85.974)">
<path d="M0 0 L-3 6.84 L3.72 3.57 C1.84 3.33 0.35 1.88 0 0" class="ps08"/>
</g>
</g>
<g id="q196" class="ps07 ps14">
<g id="xfrm197" transform="matrix(1 0 0 1 195.659 85.974)">
<path d="M0 0 L-3 6.84 L3.72 3.57 C1.84 3.33 0.35 1.88 0 0 Z" class="ps07"/>
</g>
</g>
<g id="q198" class="ps07 ps13">
<g id="xfrm199" transform="matrix(1 0 0 1 188.524 25.419)">
<path d="M0 0 C2.79 4.66 1.58 5.24 -0.67 10.02" class="ps07"/>
</g>
</g>
<g id="q200" class="ps07 ps13">
<g id="xfrm201" transform="matrix(1 0 0 1 187.898 29.278)">
<path d="M0 0 L-0.65 7.44 L4.67 2.19 C2.81 2.56 0.93 1.67 0 0" class="ps08"/>
</g>
</g>
<g id="q202" class="ps07 ps14">
<g id="xfrm203" transform="matrix(1 0 0 1 187.898 29.278)">
<path d="M0 0 L-0.65 7.44 L4.67 2.19 C2.81 2.56 0.93 1.67 0 0 Z" class="ps07"/>
</g>
</g>
<g id="q204" class="ps07 ps13">
<g id="xfrm205" transform="matrix(1 0 0 1 258.025 96.53)">
<path d="M0 0 C2.79 -4.66 1.58 -5.25 -0.67 -10.02" class="ps07"/>
</g>
</g>
<g id="q206" class="ps07 ps13">
<g id="xfrm207" transform="matrix(1 0 0 1 262.08 90.462)">
<path d="M0 0 L-5.32 -5.24 L-4.66 2.19 C-3.76 0.54 -1.88 -0.35 0 0" class="ps08"/>
</g>
</g>
<g id="q208" class="ps07 ps14">
<g id="xfrm209" transform="matrix(1 0 0 1 262.08 90.462)">
<path d="M0 0 L-5.32 -5.24 L-4.66 2.19 C-3.76 0.53 -1.88 -0.35 0 0 Z" class="ps07"/>
</g>
</g>
<path d="M248.7 89.409 L259.16 89.409 C261.03 89.409 262.53 87.899 262.53 86.039 L262.53 75.579 C262.53 73.719 261.03 72.199 259.16 72.199 L248.7 72.199 C246.83 72.199 245.33 73.719 245.33 75.579 L245.33 86.039 C245.33 87.899 246.83 89.409 248.7 89.409 Z" class="ps07 ps11"/>
</g>
</svg>
