<svg xmlns="http://www.w3.org/2000/svg" xmlns:xlink="http://www.w3.org/1999/xlink" width="877.392" height="367.037" viewBox="0 0 658.044 275.278"><path stroke-width="1.003" stroke-linecap="round" stroke-linejoin="round" fill="none" stroke="#231f20" d="m69.531 83.632-41.12 56.29M30.042 130.284l-1.64 9.64 8.72-4.49M91 83.632l43 56.29M125.227 135.635l8.78 4.29-1.84-9.62"/><path stroke-width="1.003" stroke-linecap="round" stroke-dasharray="7.024,5.017" stroke-linejoin="round" fill="none" stroke="#231f20" d="m28.406 161.369 41.12 61.99"/><path stroke-width="1.003" stroke-linecap="round" stroke-linejoin="round" fill="none" stroke="#231f20" d="m61.063 218.482 8.47 4.89-1.2-9.73"/><path stroke-width="1.003" stroke-linecap="round" stroke-dasharray="7.024,5.017" stroke-linejoin="round" fill="none" stroke="#231f20" d="m134.002 161.369-43 61.99"/><path stroke-width="1.003" stroke-linecap="round" stroke-linejoin="round" fill="none" stroke="#231f20" d="m92.393 213.684-1.39 9.68 8.58-4.7"/><symbol id="a"><path d="M.501.442.481.373H.323C.369.335.392.293.392.245A.24.24 0 0 0 .319.076.228.228 0 0 0 .147 0a.147.147 0 0 0-.109.039A.144.144 0 0 0 0 .144c0 .041.01.085.03.13A.259.259 0 0 0 .214.43a.943.943 0 0 0 .172.01H.5M.299.374C.217.373.159.343.125.285a.35.35 0 0 1-.05-.177c0-.057.024-.086.074-.086.047 0 .087.032.12.095s.05.123.05.178c0 .033-.007.06-.02.078z"/></symbol><use xlink:href="#a" transform="matrix(16.052 0 0 -16.052 31.792 111.104)" fill="#231f20"/><symbol id="b"><path d="M.007 0h.276v.015C.206.015.189.026.188.074v.6L.18.676 0 .585V.571a.303.303 0 0 0 .072.022c.021 0 .03-.015.03-.047V.093C.1.03.083.016.007.015V0z"/></symbol><use xlink:href="#b" transform="matrix(7.827 0 0 -7.8269 40.153 112.641)" fill="#231f20"/><use xlink:href="#a" transform="matrix(16.052 0 0 -16.052 120.301 111.104)" fill="#231f20"/><symbol id="c"><path d="M.445.137.432.142C.395.084.384.077.337.076H.098l.168.176c.089.093.128.169.128.247 0 .1-.081.177-.185.177A.195.195 0 0 1 .065.614C.033.58.018.548.001.477L.022.472c.04.098.075.13.145.13.085 0 .141-.057.141-.141C.308.382.262.29.178.201L0 .012V0h.39l.055.137z"/></symbol><use xlink:href="#c" transform="matrix(7.827 0 0 -7.8269 128.026 112.641)" fill="#231f20"/><use xlink:href="#a" transform="matrix(16.052 0 0 -16.052 31.787 204.028)" fill="#231f20"/><use xlink:href="#c" transform="matrix(7.827 0 0 -7.8269 39.519 205.547)" fill="#231f20"/><use xlink:href="#a" transform="matrix(16.052 0 0 -16.052 120.301 204.033)" fill="#231f20"/><use xlink:href="#b" transform="matrix(7.827 0 0 -7.8269 128.66 205.547)" fill="#231f20"/><path d="M65.087 72.908c0-8.38 6.79-15.17 15.17-15.17 8.38 0 15.19 6.79 15.19 15.17 0 8.38-6.81 15.17-15.19 15.17-8.38 0-15.17-6.79-15.17-15.17" fill="#fff" fill-rule="evenodd"/><path stroke-width=".321" stroke-linecap="round" stroke-linejoin="round" fill="none" stroke="#231f20" d="M65.087 72.908c0-8.38 6.79-15.17 15.17-15.17 8.38 0 15.19 6.79 15.19 15.17 0 8.38-6.81 15.17-15.19 15.17-8.38 0-15.17-6.79-15.17-15.17z"/><symbol id="d"><path d="m.586.483.037.199H.602C.594.666.584.66.564.66a.188.188 0 0 0-.041.007.5.5 0 0 1-.117.017C.192.684 0 .484 0 .261A.25.25 0 0 1 .261 0c.103 0 .183.043.273.149L.517.163C.427.075.369.045.287.045.176.045.112.12.112.25c0 .119.048.24.126.321a.248.248 0 0 0 .177.077C.507.648.558.594.568.486L.586.483z"/></symbol><use xlink:href="#d" transform="matrix(14.725 0 0 -14.725 74.99 77.596)" fill="#231f20"/><path d="M129.56 150.648c0-8.38 6.81-15.17 15.19-15.17 8.36 0 15.17 6.79 15.17 15.17 0 8.38-6.81 15.17-15.17 15.17-8.38 0-15.19-6.79-15.19-15.17" fill="#fff" fill-rule="evenodd"/><path stroke-width=".321" stroke-linecap="round" stroke-linejoin="round" fill="none" stroke="#231f20" d="M129.56 150.648c0-8.38 6.81-15.17 15.19-15.17 8.36 0 15.17 6.79 15.17 15.17 0 8.38-6.81 15.17-15.17 15.17-8.38 0-15.19-6.79-15.19-15.17z"/><use xlink:href="#d" transform="matrix(14.725 0 0 -14.725 138.425 155.335)" fill="#231f20"/><use xlink:href="#c" transform="matrix(9.5737 0 0 -9.5735 147.558 157.192)" fill="#231f20"/><path d="M2.515 150.648c0-8.38 6.79-15.17 15.17-15.17 8.38 0 15.16 6.79 15.16 15.17 0 8.38-6.78 15.17-15.16 15.17-8.38 0-15.17-6.79-15.17-15.17" fill="#fff" fill-rule="evenodd"/><path stroke-width=".321" stroke-linecap="round" stroke-linejoin="round" fill="none" stroke="#231f20" d="M2.515 150.648c0-8.38 6.79-15.17 15.17-15.17 8.38 0 15.16 6.79 15.16 15.17 0 8.38-6.78 15.17-15.16 15.17-8.38 0-15.17-6.79-15.17-15.17z"/><use xlink:href="#d" transform="matrix(14.725 0 0 -14.725 11.358 155.335)" fill="#231f20"/><use xlink:href="#b" transform="matrix(9.5737 0 0 -9.5735 21.266 157.192)" fill="#231f20"/><path d="M65.087 234.092c0-8.38 6.79-15.17 15.17-15.17 8.38 0 15.19 6.79 15.19 15.17 0 8.38-6.81 15.17-15.19 15.17-8.38 0-15.17-6.79-15.17-15.17" fill="#fff" fill-rule="evenodd"/><path stroke-width=".321" stroke-linecap="round" stroke-linejoin="round" fill="none" stroke="#231f20" d="M65.087 234.092c0-8.38 6.79-15.17 15.17-15.17 8.38 0 15.19 6.79 15.19 15.17 0 8.38-6.81 15.17-15.19 15.17-8.38 0-15.17-6.79-15.17-15.17z"/><use xlink:href="#d" transform="matrix(14.725 0 0 -14.725 73.952 238.778)" fill="#231f20"/><symbol id="e"><path d="M.11.344A.277.277 0 0 0 .215.333.152.152 0 0 0 .316.185C.316.1.26.036.186.036.158.036.138.043.101.067.072.085.055.092.038.092.015.092 0 .078 0 .057 0 .022.043 0 .113 0c.076 0 .155.026.203.067a.214.214 0 0 1 .072.166.192.192 0 0 1-.044.129.224.224 0 0 1-.083.053c.068.047.093.084.093.138C.354.635.291.69.198.69a.191.191 0 0 1-.13-.049.24.24 0 0 1-.066-.113L.017.524C.057.598.102.63.165.63c.066 0 .11-.043.11-.107a.141.141 0 0 0-.04-.097.29.29 0 0 0-.126-.069L.11.344z"/></symbol><use xlink:href="#e" transform="matrix(9.5737 0 0 -9.5735 83.209 240.748)" fill="#231f20"/><path stroke-width="1.003" stroke-linecap="round" stroke-linejoin="round" fill="none" stroke="#231f20" d="m259.789 83.632-41.12 56.29M220.3 130.284l-1.64 9.64 8.72-4.49M281.258 83.632l43 56.29M315.484 135.635l8.78 4.29-1.84-9.62"/><path stroke-width="1.003" stroke-linecap="round" stroke-dasharray="7.024,5.017" stroke-linejoin="round" fill="none" stroke="#231f20" d="m218.662 161.369 41.12 61.99"/><path stroke-width="1.003" stroke-linecap="round" stroke-linejoin="round" fill="none" stroke="#231f20" d="m251.321 218.482 8.47 4.89-1.2-9.73M324.262 161.372l-43 61.99M282.651 213.684l-1.39 9.68 8.57-4.7"/><symbol id="f"><path d="M.327.12C.255.061.224.045.18.045.124.045.087.081.087.136c0 .015.002.029.01.061l.028.004c.15.021.256.097.256.183 0 .042-.03.068-.08.068C.157.452 0 .288 0 .137 0 .056.054 0 .132 0a.29.29 0 0 1 .207.108L.327.12M.121.263C.155.352.229.429.28.429.301.429.315.414.315.39.315.359.296.323.265.293.228.258.19.24.104.219l.017.044z"/></symbol><symbol id="g"><path d="M.021 0C.08.127.109.2.109.216c0 .016-.014.029-.032.029C.053.245.028.226.023.204A1.914 1.914 0 0 1 0 0h.021z"/></symbol><use xlink:href="#f" transform="matrix(16.052 0 0 -16.052 224.49 111.093)" fill="#231f20"/><use xlink:href="#f" transform="matrix(16.052 0 0 -16.052 311.265 111.093)" fill="#231f20"/><use xlink:href="#g" transform="matrix(16.052 0 0 -16.052 320.02 104.158)" fill="#231f20"/><use xlink:href="#f" transform="matrix(16.052 0 0 -16.052 312.97 204.018)" fill="#231f20"/><use xlink:href="#f" transform="matrix(16.052 0 0 -16.052 220.638 203.6)" fill="#231f20"/><use xlink:href="#g" transform="matrix(16.052 0 0 -16.052 229.394 196.666)" fill="#231f20"/><path d="M255.345 72.908c0-8.38 6.79-15.17 15.17-15.17 8.38 0 15.19 6.79 15.19 15.17 0 8.38-6.81 15.17-15.19 15.17-8.38 0-15.17-6.79-15.17-15.17" fill="#fff" fill-rule="evenodd"/><path stroke-width=".321" stroke-linecap="round" stroke-linejoin="round" fill="none" stroke="#231f20" d="M255.345 72.908c0-8.38 6.79-15.17 15.17-15.17 8.38 0 15.19 6.79 15.19 15.17 0 8.38-6.81 15.17-15.19 15.17-8.38 0-15.17-6.79-15.17-15.17z"/><use xlink:href="#d" transform="matrix(14.725 0 0 -14.725 262.862 77.596)" fill="#231f20"/><symbol id="h"><path d="M.23.69A.18.18 0 0 1 .096.638C.038.582 0 .467 0 .35 0 .24.033.124.08.068A.186.186 0 0 1 .226 0c.051 0 .094.017.13.052.058.055.096.171.096.292C.452.549.361.69.23.69M.227.664C.311.664.356.551.356.342.356.133.312.026.226.026c-.086 0-.13.107-.13.315 0 .213.045.323.131.323z"/></symbol><use xlink:href="#h" transform="matrix(9.5737 0 0 -9.5735 271.937 79.565)" fill="#231f20"/><path d="M319.818 150.648c0-8.38 6.81-15.17 15.19-15.17 8.36 0 15.17 6.79 15.17 15.17 0 8.38-6.81 15.17-15.17 15.17-8.38 0-15.19-6.79-15.19-15.17" fill="#fff" fill-rule="evenodd"/><path stroke-width=".321" stroke-linecap="round" stroke-linejoin="round" fill="none" stroke="#231f20" d="M319.818 150.648c0-8.38 6.81-15.17 15.19-15.17 8.36 0 15.17 6.79 15.17 15.17 0 8.38-6.81 15.17-15.17 15.17-8.38 0-15.19-6.79-15.19-15.17z"/><use xlink:href="#d" transform="matrix(14.726 0 0 -14.725 328.683 155.335)" fill="#231f20"/><symbol id="i"><path d="m0 .597.161.079h.016v-.56C.177.08.18.057.182.048a.037.037 0 0 1 .02-.02A.164.164 0 0 1 .26.017V0H.01v.018c.032 0 .052.003.061.008.01.005.016.011.02.019a.262.262 0 0 1 .005.072v.357c0 .048-.002.08-.005.093A.038.038 0 0 1 .079.59a.032.032 0 0 1-.021.007.13.13 0 0 1-.05-.015L0 .597z"/></symbol><use xlink:href="#i" transform="matrix(9.5738 0 0 -9.5737 338.655 157.192)" fill="#231f20"/><path d="M192.773 150.648c0-8.38 6.79-15.17 15.17-15.17 8.38 0 15.16 6.79 15.16 15.17 0 8.38-6.78 15.17-15.16 15.17-8.38 0-15.17-6.79-15.17-15.17" fill="#fff" fill-rule="evenodd"/><path stroke-width=".321" stroke-linecap="round" stroke-linejoin="round" fill="none" stroke="#231f20" d="M192.773 150.648c0-8.38 6.79-15.17 15.17-15.17 8.38 0 15.16 6.79 15.16 15.17 0 8.38-6.78 15.17-15.16 15.17-8.38 0-15.17-6.79-15.17-15.17z"/><symbol id="j"><path d="M.138.637C.201.631.215.623.215.596A.267.267 0 0 0 .204.532L.081.09C.063.032.056.026 0 .016V0h.253C.37 0 .477.031.554.087a.37.37 0 0 1 .154.297c0 .164-.114.269-.292.269H.138V.637M.321.594c.006.022.021.029.061.029A.236.236 0 0 0 .521.586C.57.551.597.487.597.409A.42.42 0 0 0 .487.12.326.326 0 0 0 .243.03C.197.03.178.041.178.067.178.08.183.1.2.162l.121.432z"/></symbol><use xlink:href="#j" transform="matrix(14.726 0 0 -14.725 200.13 155.07)" fill="#231f20"/><symbol id="k"><path d="M0 .339c0 .075.011.14.034.195a.273.273 0 0 0 .091.122c.03.02.06.031.09.031C.268.688.313.662.354.61A.41.41 0 0 0 .428.35.514.514 0 0 0 .395.152.26.26 0 0 0 .31.036.173.173 0 0 0 .21 0C.149 0 .096.037.054.112A.455.455 0 0 0 0 .339M.096.327c0-.091.01-.166.033-.223C.148.055.176.03.212.03.23.03.248.039.267.054a.152.152 0 0 1 .043.08.965.965 0 0 1 .023.237.648.648 0 0 1-.024.189.168.168 0 0 1-.045.08.077.077 0 0 1-.107-.014.249.249 0 0 1-.049-.128A1.185 1.185 0 0 1 .096.327z"/></symbol><use xlink:href="#k" transform="matrix(9.5738 0 0 -9.5737 211.227 157.304)" fill="#231f20"/><path d="M255.345 234.092c0-8.38 6.79-15.17 15.17-15.17 8.38 0 15.19 6.79 15.19 15.17 0 8.38-6.81 15.17-15.19 15.17-8.38 0-15.17-6.79-15.17-15.17" fill="#fff" fill-rule="evenodd"/><path stroke-width=".321" stroke-linecap="round" stroke-linejoin="round" fill="none" stroke="#231f20" d="M255.345 234.092c0-8.38 6.79-15.17 15.17-15.17 8.38 0 15.19 6.79 15.19 15.17 0 8.38-6.81 15.17-15.19 15.17-8.38 0-15.17-6.79-15.17-15.17z"/><use xlink:href="#j" transform="matrix(14.725 0 0 -14.725 262.7 238.513)" fill="#231f20"/><use xlink:href="#b" transform="matrix(9.5737 0 0 -9.5735 274.516 240.614)" fill="#231f20"/><path stroke-width=".972" stroke-linecap="round" stroke-linejoin="round" fill="none" stroke="#231f20" d="m457.263 26.267-44.96 54.53M414.42 71.547l-2.12 9.25 8.69-3.86"/><path stroke-width=".972" stroke-linecap="round" stroke-dasharray=".972,1.945" stroke-linejoin="round" fill="none" stroke="#231f20" d="M467.682 30.541v109.88"/><path stroke-width=".972" stroke-linecap="round" stroke-linejoin="round" fill="none" stroke="#231f20" d="m463.444 131.946 4.24 8.48 4.24-8.48"/><use xlink:href="#f" transform="matrix(15.576 0 0 -15.576 423.062 52.858)" fill="#231f20"/><use xlink:href="#f" transform="matrix(15.576 0 0 -15.576 586.423 203.494)" fill="#231f20"/><path stroke-width=".972" stroke-linecap="round" stroke-linejoin="round" fill="none" stroke="#231f20" d="m478.066 26.267 141.32 54.53M609.95 81.72l9.43-.92-6.36-6.99"/><use xlink:href="#f" transform="matrix(15.576 0 0 -15.576 507.158 32.267)" fill="#231f20"/><use xlink:href="#g" transform="matrix(15.576 0 0 -15.576 515.669 25.539)" fill="#231f20"/><use xlink:href="#f" transform="matrix(15.576 0 0 -15.576 586.409 63.84)" fill="#231f20"/><path stroke-width=".972" stroke-linecap="round" stroke-linejoin="round" fill="none" stroke="#231f20" d="m478.066 26.267 51.11 19.71M519.743 46.894l9.43-.92-6.39-6.99"/><path stroke-width=".972" stroke-linecap="round" stroke-dasharray="6.807,4.862" stroke-linejoin="round" fill="none" stroke="#231f20" d="m478.066 165.535 141.32 58.95"/><path stroke-width=".972" stroke-linecap="round" stroke-linejoin="round" fill="none" stroke="#231f20" d="m609.95 225.12 9.43-.64-6.18-7.2"/><use xlink:href="#f" transform="matrix(15.576 0 0 -15.576 507.158 170.826)" fill="#231f20"/><use xlink:href="#g" transform="matrix(15.576 0 0 -15.576 515.669 164.098)" fill="#231f20"/><path stroke-width=".972" stroke-linecap="round" stroke-dasharray="6.807,4.862" stroke-linejoin="round" fill="none" stroke="#231f20" d="m478.066 165.535 50.54 21.09"/><path stroke-width=".972" stroke-linecap="round" stroke-linejoin="round" fill="none" stroke="#231f20" d="m519.143 187.257 9.47-.64-6.18-7.2"/><path stroke-width=".972" stroke-linecap="round" stroke-dasharray=".972,1.945" stroke-linejoin="round" fill="none" stroke="#231f20" d="M629.8 105.916v114.26"/><path stroke-width=".972" stroke-linecap="round" stroke-linejoin="round" fill="none" stroke="#231f20" d="m625.562 211.698 4.24 8.48 4.24-8.48"/><path stroke-width=".972" stroke-linecap="round" stroke-dasharray=".972,1.945" stroke-linejoin="round" fill="none" stroke="#231f20" d="M401.917 105.916v114.26"/><path stroke-width=".972" stroke-linecap="round" stroke-linejoin="round" fill="none" stroke="#231f20" d="m397.678 211.698 4.24 8.48 4.24-8.48"/><path stroke-width=".972" stroke-linecap="round" stroke-dasharray="6.807,4.862" stroke-linejoin="round" fill="none" stroke="#231f20" d="m457.263 165.535-44.96 58.95"/><path stroke-width=".972" stroke-linecap="round" stroke-linejoin="round" fill="none" stroke="#231f20" d="m414.067 215.159-1.77 9.32 8.52-4.16"/><use xlink:href="#f" transform="matrix(15.576 0 0 -15.576 439.379 201.484)" fill="#231f20"/><use xlink:href="#a" transform="matrix(15.576 0 0 -15.576 388.934 160.001)" fill="#231f20"/><use xlink:href="#a" transform="matrix(15.576 0 0 -15.576 475.677 96.077)" fill="#231f20"/><use xlink:href="#a" transform="matrix(15.576 0 0 -15.576 633.415 160.001)" fill="#231f20"/><path d="M387.224 91.186c0-8.09 6.57-14.69 14.69-14.69 8.13 0 14.7 6.6 14.7 14.69 0 8.12-6.57 14.73-14.7 14.73-8.12 0-14.69-6.61-14.69-14.73" fill="#fff" fill-rule="evenodd"/><path stroke-width=".311" stroke-linecap="round" stroke-linejoin="round" fill="none" stroke="#231f20" d="M387.224 91.186c0-8.09 6.57-14.69 14.69-14.69 8.13 0 14.7 6.6 14.7 14.69 0 8.12-6.57 14.73-14.7 14.73-8.12 0-14.69-6.61-14.69-14.73z"/><use xlink:href="#j" transform="matrix(14.269 0 0 -14.269 394.35 95.495)" fill="#231f20"/><use xlink:href="#h" transform="matrix(9.2538 0 0 -9.2537 405 97.673)" fill="#231f20"/><path d="M615.072 91.186c0-8.09 6.61-14.69 14.73-14.69 8.12 0 14.69 6.6 14.69 14.69 0 8.12-6.57 14.73-14.69 14.73s-14.73-6.61-14.73-14.73" fill="#fff" fill-rule="evenodd"/><path stroke-width=".311" stroke-linecap="round" stroke-linejoin="round" fill="none" stroke="#231f20" d="M615.072 91.186c0-8.09 6.61-14.69 14.73-14.69 8.12 0 14.69 6.6 14.69 14.69 0 8.12-6.57 14.73-14.69 14.73s-14.73-6.61-14.73-14.73z"/><use xlink:href="#j" transform="matrix(14.269 0 0 -14.269 622.234 95.495)" fill="#231f20"/><use xlink:href="#b" transform="matrix(9.2538 0 0 -9.2537 633.653 97.543)" fill="#231f20"/><path d="M615.072 234.867c0-8.12 6.61-14.69 14.73-14.69 8.12 0 14.69 6.57 14.69 14.69 0 8.13-6.57 14.69-14.69 14.69s-14.73-6.56-14.73-14.69" fill="#fff" fill-rule="evenodd"/><path stroke-width=".311" stroke-linecap="round" stroke-linejoin="round" fill="none" stroke="#231f20" d="M615.072 234.867c0-8.12 6.61-14.69 14.73-14.69 8.12 0 14.69 6.57 14.69 14.69 0 8.13-6.57 14.69-14.69 14.69s-14.73-6.56-14.73-14.69z"/><symbol id="l"><path d="M.635.653H.138V.637C.2.631.215.623.215.596A.373.373 0 0 0 .204.532L.081.09C.064.033.056.026 0 .016V0h.507l.062.162L.553.17C.506.105.48.08.437.06A.488.488 0 0 0 .256.033C.2.033.177.043.177.067c0 .012.012.059.036.146l.032.115.047-.002.046-.001C.366.324.39.319.397.313.406.306.408.299.408.279A.207.207 0 0 0 .401.227l.02-.005.068.232-.018.004C.433.373.423.366.333.363L.254.361.32.594C.326.617.336.62.394.62.55.62.585.607.585.547L.583.502.604.5l.031.153z"/></symbol><use xlink:href="#l" transform="matrix(14.269 0 0 -14.269 623.11 239.176)" fill="#231f20"/><use xlink:href="#b" transform="matrix(9.2538 0 0 -9.2537 632.876 241.189)" fill="#231f20"/><path d="M528.715 190.224c0-8.12 6.57-14.73 14.69-14.73 8.13 0 14.73 6.61 14.73 14.73 0 8.09-6.6 14.69-14.73 14.69-8.12 0-14.69-6.6-14.69-14.69" fill="#fff" fill-rule="evenodd"/><path stroke-width=".311" stroke-linecap="round" stroke-linejoin="round" fill="none" stroke="#231f20" d="M528.715 190.224c0-8.12 6.57-14.73 14.69-14.73 8.13 0 14.73 6.61 14.73 14.73 0 8.09-6.6 14.69-14.73 14.69-8.12 0-14.69-6.6-14.69-14.69z"/><path d="M528.715 51.662c0-8.12 6.57-14.69 14.69-14.69 8.13 0 14.73 6.57 14.73 14.69s-6.6 14.69-14.73 14.69c-8.12 0-14.69-6.57-14.69-14.69" fill="#fff" fill-rule="evenodd"/><path stroke-width=".311" stroke-linecap="round" stroke-linejoin="round" fill="none" stroke="#231f20" d="M528.715 51.662c0-8.12 6.57-14.69 14.69-14.69 8.13 0 14.73 6.57 14.73 14.69s-6.6 14.69-14.73 14.69c-8.12 0-14.69-6.57-14.69-14.69z"/><use xlink:href="#d" transform="matrix(14.269 0 0 -14.269 536.014 56.194)" fill="#231f20"/><use xlink:href="#b" transform="matrix(9.2538 0 0 -9.2537 545.6 57.985)" fill="#231f20"/><path d="M452.989 15.848c0-8.12 6.57-14.69 14.69-14.69 8.13 0 14.7 6.57 14.7 14.69s-6.57 14.69-14.7 14.69c-8.12 0-14.69-6.57-14.69-14.69" fill="#fff" fill-rule="evenodd"/><path stroke-width=".311" stroke-linecap="round" stroke-linejoin="round" fill="none" stroke="#231f20" d="M452.989 15.848c0-8.12 6.57-14.69 14.69-14.69 8.13 0 14.7 6.57 14.7 14.69s-6.57 14.69-14.7 14.69c-8.12 0-14.69-6.57-14.69-14.69z"/><use xlink:href="#d" transform="matrix(14.269 0 0 -14.269 460.253 20.415)" fill="#231f20"/><use xlink:href="#h" transform="matrix(9.2538 0 0 -9.2537 469.07 22.336)" fill="#231f20"/><path d="M452.989 155.116c0-8.12 6.57-14.69 14.69-14.69 8.13 0 14.7 6.57 14.7 14.69s-6.57 14.73-14.7 14.73c-8.12 0-14.69-6.61-14.69-14.73" fill="#fff" fill-rule="evenodd"/><path stroke-width=".311" stroke-linecap="round" stroke-linejoin="round" fill="none" stroke="#231f20" d="M452.989 155.116c0-8.12 6.57-14.69 14.69-14.69 8.13 0 14.7 6.57 14.7 14.69s-6.57 14.73-14.7 14.73c-8.12 0-14.69-6.61-14.69-14.73z"/><symbol id="m"><path d="M.615.016C.558.021.552.029.539.102L.445.668H.419l-.29-.5C.05.035.04.024 0 .016V0h.187v.016C.136.021.128.026.128.051c0 .019.003.028.02.062l.057.113h.22l.02-.131.002-.026C.447.031.433.022.369.016V0h.246v.016M.226.262l.15.26.044-.26H.226z"/></symbol><use xlink:href="#m" transform="matrix(14.269 0 0 -14.269 461.303 159.424)" fill="#231f20"/><path d="M387.224 234.867c0-8.12 6.57-14.69 14.69-14.69 8.13 0 14.7 6.57 14.7 14.69 0 8.13-6.57 14.69-14.7 14.69-8.12 0-14.69-6.56-14.69-14.69" fill="#fff" fill-rule="evenodd"/><path stroke-width=".311" stroke-linecap="round" stroke-linejoin="round" fill="none" stroke="#231f20" d="M387.224 234.867c0-8.12 6.57-14.69 14.69-14.69 8.13 0 14.7 6.57 14.7 14.69 0 8.13-6.57 14.69-14.7 14.69-8.12 0-14.69-6.56-14.69-14.69z"/><use xlink:href="#l" transform="matrix(14.269 0 0 -14.269 395.227 239.176)" fill="#231f20"/><use xlink:href="#h" transform="matrix(9.2538 0 0 -9.2537 404.187 241.319)" fill="#231f20"/><symbol id="n"><path d="M.676.895.723.852.688.816A19.628 19.628 0 0 0 .655.063C.654.03.647.017.636.02.63.02.62.046.61.098L.06.074C.06.024.057 0 .047 0L.004.074a.147.147 0 0 1 .012.059L.012.77C.012.819.008.86 0 .895l.016.007.039-.078.59.04.03.03M.056.106c.28.016.45.028.507.036L.614.109C.621.128.626.221.63.391L.489.367C.495.372.446.42.338.507A.93.93 0 0 0 .067.333L.06.348C.147.395.233.456.316.53A.818.818 0 0 0 .23.61.874.874 0 0 0 .125.49L.109.5C.188.591.25.691.297.8L.05.786l.004-.68m.394.618L.492.68.461.66A.568.568 0 0 0 .363.531.834.834 0 0 1 .5.426.294.294 0 0 1 .633.41l.02.414-.34-.023.03-.043C.334.755.324.746.314.73a1.109 1.109 0 0 0-.04-.058l.149.023.027.028M.402.227a.431.431 0 0 0 0-.082C.358.19.3.245.227.305L.242.32C.31.28.363.247.402.227m-.129.39C.273.61.28.6.293.59A.533.533 0 0 0 .336.55a.661.661 0 0 1 .078.11A3.511 3.511 0 0 1 .285.63l-.02.027L.243.617h.031M.27.434C.324.402.368.38.402.367a.316.316 0 0 0 0-.07 6.083 6.083 0 0 1-.144.117l.012.02z"/></symbol><symbol id="o"><path d="M0 0z"/></symbol><symbol id="p"><path d="M.313.504C.313.55.302.586.28.609.261.635.23.65.187.65A.13.13 0 0 1 .105.62.074.074 0 0 1 .075.56c0-.016.003-.03.01-.04C.097.51.103.5.103.49A.042.042 0 0 0 .09.456C.085.452.076.449.063.449a.063.063 0 0 0-.04.012C.016.47.012.487.012.508c0 .054.02.096.058.125.04.028.081.043.125.043C.258.676.303.66.332.629A.159.159 0 0 0 .379.512.208.208 0 0 0 .355.418.259.259 0 0 0 .29.328a3.462 3.462 0 0 1-.176-.18.578.578 0 0 1-.07-.09h.23c.024 0 .043.01.059.028a.16.16 0 0 1 .031.082h.024L.363 0H0v.05a.728.728 0 0 0 .063.09c.03.037.071.08.12.13a.548.548 0 0 1 .098.125C.302.434.312.47.312.504z"/></symbol><symbol id="q"><path d="M.172.68V.086c0-.02.006-.037.02-.047A.085.085 0 0 1 .245.023h.04V0H0v.023h.035C.061.023.08.03.09.04c.013.01.02.026.02.047v.473c0 .01-.005.018-.012.023C.092.59.083.594.07.594H0v.023h.035A.15.15 0 0 1 .11.633C.13.643.146.659.156.68h.016z"/></symbol><symbol id="r"><path d="M.379.188A.19.19 0 0 0 .324.054.206.206 0 0 0 .172 0 .193.193 0 0 0 .05.04C.017.064 0 .094 0 .128c0 .016.005.029.016.039.01.013.02.02.03.02.017 0 .027-.007.032-.02C.086.158.09.148.09.141A.078.078 0 0 0 .082.105.042.042 0 0 1 .074.082c0-.016.01-.029.028-.039A.147.147 0 0 1 .168.027c.047 0 .082.013.105.04C.297.094.31.137.31.194a.162.162 0 0 1-.04.114C.247.337.202.352.134.352v.027c.052 0 .09.012.113.035.026.026.04.061.04.106 0 .036-.011.067-.032.093C.236.642.206.656.164.656A.132.132 0 0 1 .105.641C.085.633.075.618.075.598c0-.021.002-.034.007-.04A.026.026 0 0 0 .09.54.056.056 0 0 0 .082.508C.077.5.068.496.055.496.045.496.034.5.023.508.016.516.012.53.012.55c0 .039.017.07.05.094C.097.67.136.684.18.684A.162.162 0 0 0 .305.633.142.142 0 0 0 .352.53C.352.492.342.458.32.43A.165.165 0 0 0 .23.37C.288.351.327.323.348.29a.192.192 0 0 0 .03-.101z"/></symbol><use xlink:href="#n" transform="matrix(12 0 0 -12 260.639 271.107)" fill="#221f1f"/><use xlink:href="#o" transform="matrix(12 0 0 -12 270.67 269.841)" fill="#221f1f"/><use xlink:href="#p" transform="matrix(12 0 0 -12 277.233 269.841)" fill="#221f1f"/><use xlink:href="#n" transform="matrix(12 0 0 -12 70.523 271.107)" fill="#221f1f"/><use xlink:href="#o" transform="matrix(12 0 0 -12 80.554 269.841)" fill="#221f1f"/><use xlink:href="#q" transform="matrix(12 0 0 -12 87.867 269.841)" fill="#221f1f"/><use xlink:href="#n" transform="matrix(12 0 0 -12 488.23 271.107)" fill="#221f1f"/><use xlink:href="#o" transform="matrix(12 0 0 -12 498.262 269.841)" fill="#221f1f"/><use xlink:href="#r" transform="matrix(12 0 0 -12 504.918 269.935)" fill="#221f1f"/></svg>