<svg xmlns="http://www.w3.org/2000/svg" xmlns:xlink="http://www.w3.org/1999/xlink" width="877.392" height="367.037" viewBox="0 0 658.044 275.278"><path stroke-width="1.003" stroke-linecap="round" stroke-linejoin="round" fill="none" stroke="#231f20" d="m69.531 83.632-41.12 56.29M30.042 130.284l-1.64 9.64 8.72-4.49M91 83.632l43 56.29M125.227 135.635l8.78 4.29-1.84-9.62"/><path stroke-width="1.003" stroke-linecap="round" stroke-dasharray="7.024,5.017" stroke-linejoin="round" fill="none" stroke="#231f20" d="m28.406 161.369 41.12 61.99"/><path stroke-width="1.003" stroke-linecap="round" stroke-linejoin="round" fill="none" stroke="#231f20" d="m61.063 218.482 8.47 4.89-1.2-9.73"/><path stroke-width="1.003" stroke-linecap="round" stroke-dasharray="7.024,5.017" stroke-linejoin="round" fill="none" stroke="#231f20" d="m134.002 161.369-43 61.99"/><path stroke-width="1.003" stroke-linecap="round" stroke-linejoin="round" fill="none" stroke="#231f20" d="m92.393 213.684-1.39 9.68 8.58-4.7"/><symbol id="a"><path d="M.501.442.481.373H.323C.369.335.392.293.392.245A.24.24 0 0 0 .319.076.228.228 0 0 0 .147 0a.147.147 0 0 0-.109.039A.144.144 0 0 0 0 .144c0 .041.01.085.03.13A.259.259 0 0 0 .214.43a.943.943 0 0 0 .172.01H.5M.299.374C.217.373.159.343.125.285a.35.35 0 0 1-.05-.177c0-.057.024-.086.074-.086.047 0 .087.032.12.095s.05.123.05.178c0 .033-.007.06-.02.078z"/></symbol><use xlink:href="#a" transform="matrix(16.052 0 0 -16.052 31.792 111.104)" fill="#231f20"/><symbol id="b"><path d="M.007 0h.276v.015C.206.015.189.026.188.074v.6L.18.676 0 .585V.571a.303.303 0 0 0 .072.022c.021 0 .03-.015.03-.047V.093C.1.03.083.016.007.015V0z"/></symbol><use xlink:href="#b" transform="matrix(7.827 0 0 -7.8269 40.153 112.641)" fill="#231f20"/><use xlink:href="#a" transform="matrix(16.052 0 0 -16.052 120.301 111.104)" fill="#231f20"/><symbol id="c"><path d="M.445.137.432.142C.395.084.384.077.337.076H.098l.168.176c.089.093.128.169.128.247 0 .1-.081.177-.185.177A.195.195 0 0 1 .065.614C.033.58.018.548.001.477L.022.472c.04.098.075.13.145.13.085 0 .141-.057.141-.141C.308.382.262.29.178.201L0 .012V0h.39l.055.137z"/></symbol><use xlink:href="#c" transform="matrix(7.827 0 0 -7.8269 128.026 112.641)" fill="#231f20"/><use xlink:href="#a" transform="matrix(16.052 0 0 -16.052 31.787 204.028)" fill="#231f20"/><use xlink:href="#c" transform="matrix(7.827 0 0 -7.8269 39.519 205.547)" fill="#231f20"/><use xlink:href="#a" transform="matrix(16.052 0 0 -16.052 120.301 204.033)" fill="#231f20"/><use xlink:href="#b" transform="matrix(7.827 0 0 -7.8269 128.66 205.547)" fill="#231f20"/><path d="M65.087 72.908c0-8.38 6.79-15.17 15.17-15.17 8.38 0 15.19 6.79 15.19 15.17 0 8.38-6.81 15.17-15.19 15.17-8.38 0-15.17-6.79-15.17-15.17" fill="#fff" fill-rule="evenodd"/><path stroke-width=".321" stroke-linecap="round" stroke-linejoin="round" fill="none" stroke="#231f20" d="M65.087 72.908c0-8.38 6.79-15.17 15.17-15.17 8.38 0 15.19 6.79 15.19 15.17 0 8.38-6.81 15.17-15.19 15.17-8.38 0-15.17-6.79-15.17-15.17z"/><symbol id="d"><path d="m.586.483.037.199H.602C.594.666.584.66.564.66a.188.188 0 0 0-.041.007.5.5 0 0 1-.117.017C.192.684 0 .484 0 .261A.25.25 0 0 1 .261 0c.103 0 .183.043.273.149L.517.163C.427.075.369.045.287.045.176.045.112.12.112.25c0 .119.048.24.126.321a.248.248 0 0 0 .177.077C.507.648.558.594.568.486L.586.483z"/></symbol><use xlink:href="#d" transform="matrix(14.725 0 0 -14.725 74.99 77.596)" fill="#231f20"/><path d="M129.56 150.648c0-8.38 6.81-15.17 15.19-15.17 8.36 0 15.17 6.79 15.17 15.17 0 8.38-6.81 15.17-15.17 15.17-8.38 0-15.19-6.79-15.19-15.17" fill="#fff" fill-rule="evenodd"/><path stroke-width=".321" stroke-linecap="round" stroke-linejoin="round" fill="none" stroke="#231f20" d="M129.56 150.648c0-8.38 6.81-15.17 15.19-15.17 8.36 0 15.17 6.79 15.17 15.17 0 8.38-6.81 15.17-15.17 15.17-8.38 0-15.19-6.79-15.19-15.17z"/><use xlink:href="#d" transform="matrix(14.725 0 0 -14.725 138.425 155.335)" fill="#231f20"/><use xlink:href="#c" transform="matrix(9.5737 0 0 -9.5735 147.558 157.192)" fill="#231f20"/><path d="M2.515 150.648c0-8.38 6.79-15.17 15.17-15.17 8.38 0 15.16 6.79 15.16 15.17 0 8.38-6.78 15.17-15.16 15.17-8.38 0-15.17-6.79-15.17-15.17" fill="#fff" fill-rule="evenodd"/><path stroke-width=".321" stroke-linecap="round" stroke-linejoin="round" fill="none" stroke="#231f20" d="M2.515 150.648c0-8.38 6.79-15.17 15.17-15.17 8.38 0 15.16 6.79 15.16 15.17 0 8.38-6.78 15.17-15.16 15.17-8.38 0-15.17-6.79-15.17-15.17z"/><use xlink:href="#d" transform="matrix(14.725 0 0 -14.725 11.358 155.335)" fill="#231f20"/><use xlink:href="#b" transform="matrix(9.5737 0 0 -9.5735 21.266 157.192)" fill="#231f20"/><path d="M65.087 234.092c0-8.38 6.79-15.17 15.17-15.17 8.38 0 15.19 6.79 15.19 15.17 0 8.38-6.81 15.17-15.19 15.17-8.38 0-15.17-6.79-15.17-15.17" fill="#fff" fill-rule="evenodd"/><path stroke-width=".321" stroke-linecap="round" stroke-linejoin="round" fill="none" stroke="#231f20" d="M65.087 234.092c0-8.38 6.79-15.17 15.17-15.17 8.38 0 15.19 6.79 15.19 15.17 0 8.38-6.81 15.17-15.19 15.17-8.38 0-15.17-6.79-15.17-15.17z"/><use xlink:href="#d" transform="matrix(14.725 0 0 -14.725 73.952 238.778)" fill="#231f20"/><symbol id="e"><path d="M.11.344A.277.277 0 0 0 .215.333.152.152 0 0 0 .316.185C.316.1.26.036.186.036.158.036.138.043.101.067.072.085.055.092.038.092.015.092 0 .078 0 .057 0 .022.043 0 .113 0c.076 0 .155.026.203.067a.214.214 0 0 1 .072.166.192.192 0 0 1-.044.129.224.224 0 0 1-.083.053c.068.047.093.084.093.138C.354.635.291.69.198.69a.191.191 0 0 1-.13-.049.24.24 0 0 1-.066-.113L.017.524C.057.598.102.63.165.63c.066 0 .11-.043.11-.107a.141.141 0 0 0-.04-.097.29.29 0 0 0-.126-.069L.11.344z"/></symbol><use xlink:href="#e" transform="matrix(9.5737 0 0 -9.5735 83.209 240.748)" fill="#231f20"/><path stroke-width="1.003" stroke-linecap="round" stroke-linejoin="round" fill="none" stroke="#231f20" d="m259.789 83.632-41.12 56.29M220.3 130.284l-1.64 9.64 8.72-4.49M281.258 83.632l43 56.29M315.484 135.635l8.78 4.29-1.84-9.62"/><path stroke-width="1.003" stroke-linecap="round" stroke-dasharray="7.024,5.017" stroke-linejoin="round" fill="none" stroke="#231f20" d="m218.662 161.369 41.12 61.99"/><path stroke-width="1.003" stroke-linecap="round" stroke-linejoin="round" fill="none" stroke="#231f20" d="m251.321 218.482 8.47 4.89-1.2-9.73M324.262 161.372l-43 61.99M282.651 213.684l-1.39 9.68 8.57-4.7"/><symbol id="f"><path d="M.327.12C.255.061.224.045.18.045.124.045.087.081.087.136c0 .015.002.029.01.061l.028.004c.15.021.256.097.256.183 0 .042-.03.068-.08.068C.157.452 0 .288 0 .137 0 .056.054 0 .132 0a.29.29 0 0 1 .207.108L.327.12M.121.263C.155.352.229.429.28.429.301.429.315.414.315.39.315.359.296.323.265.293.228.258.19.24.104.219l.017.044z"/></symbol><symbol id="g"><path d="M.021 0C.08.127.109.2.109.216c0 .016-.014.029-.032.029C.053.245.028.226.023.204A1.914 1.914 0 0 1 0 0h.021z"/></symbol><use xlink:href="#f" transform="matrix(16.052 0 0 -16.052 224.49 111.093)" fill="#231f20"/><use xlink:href="#f" transform="matrix(16.052 0 0 -16.052 311.265 111.093)" fill="#231f20"/><use xlink:href="#g" transform="matrix(16.052 0 0 -16.052 320.02 104.158)" fill="#231f20"/><use xlink:href="#f" transform="matrix(16.052 0 0 -16.052 312.97 204.018)" fill="#231f20"/><use xlink:href="#f" transform="matrix(16.052 0 0 -16.052 220.638 203.6)" fill="#231f20"/><use xlink:href="#g" transform="matrix(16.052 0 0 -16.052 229.394 196.666)" fill="#231f20"/><path d="M255.345 72.908c0-8.38 6.79-15.17 15.17-15.17 8.38 0 15.19 6.79 15.19 15.17 0 8.38-6.81 15.17-15.19 15.17-8.38 0-15.17-6.79-15.17-15.17" fill="#fff" fill-rule="evenodd"/><path stroke-width=".321" stroke-linecap="round" stroke-linejoin="round" fill="none" stroke="#231f20" d="M255.345 72.908c0-8.38 6.79-15.17 15.17-15.17 8.38 0 15.19 6.79 15.19 15.17 0 8.38-6.81 15.17-15.19 15.17-8.38 0-15.17-6.79-15.17-15.17z"/><use xlink:href="#d" transform="matrix(14.725 0 0 -14.725 262.862 77.596)" fill="#231f20"/><symbol id="h"><path d="M.23.69A.18.18 0 0 1 .096.638C.038.582 0 .467 0 .35 0 .24.033.124.08.068A.186.186 0 0 1 .226 0c.051 0 .094.017.13.052.058.055.096.171.096.292C.452.549.361.69.23.69M.227.664C.311.664.356.551.356.342.356.133.312.026.226.026c-.086 0-.13.107-.13.315 0 .213.045.323.131.323z"/></symbol><use xlink:href="#h" transform="matrix(9.5737 0 0 -9.5735 271.937 79.565)" fill="#231f20"/><path d="M319.818 150.648c0-8.38 6.81-15.17 15.19-15.17 8.36 0 15.17 6.79 15.17 15.17 0 8.38-6.81 15.17-15.17 15.17-8.38 0-15.19-6.79-15.19-15.17" fill="#fff" fill-rule="evenodd"/><path stroke-width=".321" stroke-linecap="round" stroke-linejoin="round" fill="none" stroke="#231f20" d="M319.818 150.648c0-8.38 6.81-15.17 15.19-15.17 8.36 0 15.17 6.79 15.17 15.17 0 8.38-6.81 15.17-15.17 15.17-8.38 0-15.19-6.79-15.19-15.17z"/><use xlink:href="#d" transform="matrix(14.726 0 0 -14.725 328.683 155.335)" fill="#231f20"/><symbol id="i"><path d="m0 .597.161.079h.016v-.56C.177.08.18.057.182.048a.037.037 0 0 1 .02-.02A.164.164 0 0 1 .26.017V0H.01v.018c.032 0 .052.003.061.008.01.005.016.011.02.019a.262.262 0 0 1 .005.072v.357c0 .048-.002.08-.005.093A.038.038 0 0 1 .079.59a.032.032 0 0 1-.021.007.13.13 0 0 1-.05-.015L0 .597z"/></symbol><use xlink:href="#i" transform="matrix(9.5738 0 0 -9.5737 338.655 157.192)" fill="#231f20"/><path d="M192.773 150.648c0-8.38 6.79-15.17 15.17-15.17 8.38 0 15.16 6.79 15.16 15.17 0 8.38-6.78 15.17-15.16 15.17-8.38 0-15.17-6.79-15.17-15.17" fill="#fff" fill-rule="evenodd"/><path stroke-width=".321" stroke-linecap="round" stroke-linejoin="round" fill="none" stroke="#231f20" d="M192.773 150.648c0-8.38 6.79-15.17 15.17-15.17 8.38 0 15.16 6.79 15.16 15.17 0 8.38-6.78 15.17-15.16 15.17-8.38 0-15.17-6.79-15.17-15.17z"/><symbol id="j"><path d="M.138.637C.201.631.215.623.215.596A.267.267 0 0 0 .204.532L.081.09C.063.032.056.026 0 .016V0h.253C.37 0 .477.031.554.087a.37.37 0 0 1 .154.297c0 .164-.114.269-.292.269H.138V.637M.321.594c.006.022.021.029.061.029A.236.236 0 0 0 .521.586C.57.551.597.487.597.409A.42.42 0 0 0 .487.12.326.326 0 0 0 .243.03C.197.03.178.041.178.067.178.08.183.1.2.162l.121.432z"/></symbol><use xlink:href="#j" transform="matrix(14.726 0 0 -14.725 200.13 155.07)" fill="#231f20"/><symbol id="k"><path d="M0 .339c0 .075.011.14.034.195a.273.273 0 0 0 .091.122c.03.02.06.031.09.031C.268.688.313.662.354.61A.41.41 0 0 0 .428.35.514.514 0 0 0 .395.152.26.26 0 0 0 .31.036.173.173 0 0 0 .21 0C.149 0 .096.037.054.112A.455.455 0 0 0 0 .339M.096.327c0-.091.01-.166.033-.223C.148.055.176.03.212.03.23.03.248.039.267.054a.152.152 0 0 1 .043.08.965.965 0 0 1 .023.237.648.648 0 0 1-.024.189.168.168 0 0 1-.045.08.077.077 0 0 1-.107-.014.249.249 0 0 1-.049-.128A1.185 1.185 0 0 1 .096.327z"/></symbol><use xlink:href="#k" transform="matrix(9.5738 0 0 -9.5737 211.227 157.304)" fill="#231f20"/><path d="M255.345 234.092c0-8.38 6.79-15.17 15.17-15.17 8.38 0 15.19 6.79 15.19 15.17 0 8.38-6.81 15.17-15.19 15.17-8.38 0-15.17-6.79-15.17-15.17" fill="#fff" fill-rule="evenodd"/><path stroke-width=".321" stroke-linecap="round" stroke-linejoin="round" fill="none" stroke="#231f20" d="M255.345 234.092c0-8.38 6.79-15.17 15.17-15.17 8.38 0 15.19 6.79 15.19 15.17 0 8.38-6.81 15.17-15.19 15.17-8.38 0-15.17-6.79-15.17-15.17z"/><use xlink:href="#j" transform="matrix(14.725 0 0 -14.725 262.7 238.513)" fill="#231f20"/><use xlink:href="#b" transform="matrix(9.5737 0 0 -9.5735 274.516 240.614)" fill="#231f20"/><path stroke-width=".972" stroke-linecap="round" stroke-linejoin="round" fill="none" stroke="#231f20" d="m457.263 26.267-44.96 54.53M414.42 71.547l-2.12 9.25 8.69-3.86"/><path stroke-width=".972" stroke-linecap="round" stroke-dasharray=".972,1.945" stroke-linejoin="round" fill="none" stroke="#231f20" d="M467.682 30.541v109.88"/><path stroke-width=".972" stroke-linecap="round" stroke-linejoin="round" fill="none" stroke="#231f20" d="m463.444 131.946 4.24 8.48 4.24-8.48"/><use xlink:href="#f" transform="matrix(15.576 0 0 -15.576 423.062 52.858)" fill="#231f20"/><use xlink:href="#f" transform="matrix(15.576 0 0 -15.576 586.423 203.494)" fill="#231f20"/><path stroke-width=".972" stroke-linecap="round" stroke-linejoin="round" fill="none" stroke="#231f20" d="m478.066 26.267 141.32 54.53M609.95 81.72l9.43-.92-6.36-6.99"/><use xlink:href="#f" transform="matrix(15.576 0 0 -15.576 507.158 32.267)" fill="#231f20"/><use xlink:href="#g" transform="matrix(15.576 0 0 -15.576 515.669 25.539)" fill="#231f20"/><use xlink:href="#f" transform="matrix(15.576 0 0 -15.576 586.409 63.84)" fill="#231f20"/><path stroke-width=".972" stroke-linecap="round" stroke-linejoin="round" fill="none" stroke="#231f20" d="m478.066 26.267 51.11 19.71M519.743 46.894l9.43-.92-6.39-6.99"/><path stroke-width=".972" stroke-linecap="round" stroke-dasharray="6.807,4.862" stroke-linejoin="round" fill="none" stroke="#231f20" d="m478.066 165.535 141.32 58.95"/><path stroke-width=".972" stroke-linecap="round" stroke-linejoin="round" fill="none" stroke="#231f20" d="m609.95 225.12 9.43-.64-6.18-7.2"/><use xlink:href="#f" transform="matrix(15.576 0 0 -15.576 507.158 170.826)" fill="#231f20"/><use xlink:href="#g" transform="matrix(15.576 0 0 -15.576 515.669 164.098)" fill="#231f20"/><path stroke-width=".972" stroke-linecap="round" stroke-dasharray="6.807,4.862" stroke-linejoin="round" fill="none" stroke="#231f20" d="m478.066 165.535 50.54 21.09"/><path stroke-width=".972" stroke-linecap="round" stroke-linejoin="round" fill="none" stroke="#231f20" d="m519.143 187.257 9.47-.64-6.18-7.2"/><path stroke-width=".972" stroke-linecap="round" stroke-dasharray=".972,1.945" stroke-linejoin="round" fill="none" stroke="#231f20" d="M629.8 105.916v114.26"/><path stroke-width=".972" stroke-linecap="round" stroke-linejoin="round" fill="none" stroke="#231f20" d="m625.562 211.698 4.24 8.48 4.24-8.48"/><path stroke-width=".972" stroke-linecap="round" stroke-dasharray=".972,1.945" stroke-linejoin="round" fill="none" stroke="#231f20" d="M401.917 105.916v114.26"/><path stroke-width=".972" stroke-linecap="round" stroke-linejoin="round" fill="none" stroke="#231f20" d="m397.678 211.698 4.24 8.48 4.24-8.48"/><path stroke-width=".972" stroke-linecap="round" stroke-dasharray="6.807,4.862" stroke-linejoin="round" fill="none" stroke="#231f20" d="m457.263 165.535-44.96 58.95"/><path stroke-width=".972" stroke-linecap="round" stroke-linejoin="round" fill="none" stroke="#231f20" d="m414.067 215.159-1.77 9.32 8.52-4.16"/><use xlink:href="#f" transform="matrix(15.576 0 0 -15.576 439.379 201.484)" fill="#231f20"/><use xlink:href="#a" transform="matrix(15.576 0 0 -15.576 388.934 160.001)" fill="#231f20"/><use xlink:href="#a" transform="matrix(15.576 0 0 -15.576 475.677 96.077)" fill="#231f20"/><use xlink:href="#a" transform="matrix(15.576 0 0 -15.576 633.415 160.001)" fill="#231f20"/><path d="M387.224 91.186c0-8.09 6.57-14.69 14.69-14.69 8.13 0 14.7 6.6 14.7 14.69 0 8.12-6.57 14.73-14.7 14.73-8.12 0-14.69-6.61-14.69-14.73" fill="#fff" fill-rule="evenodd"/><path stroke-width=".311" stroke-linecap="round" stroke-linejoin="round" fill="none" stroke="#231f20" d="M387.224 91.186c0-8.09 6.57-14.69 14.69-14.69 8.13 0 14.7 6.6 14.7 14.69 0 8.12-6.57 14.73-14.7 14.73-8.12 0-14.69-6.61-14.69-14.73z"/><use xlink:href="#j" transform="matrix(14.269 0 0 -14.269 394.35 95.495)" fill="#231f20"/><use xlink:href="#h" transform="matrix(9.2538 0 0 -9.2537 405 97.673)" fill="#231f20"/><path d="M615.072 91.186c0-8.09 6.61-14.69 14.73-14.69 8.12 0 14.69 6.6 14.69 14.69 0 8.12-6.57 14.73-14.69 14.73s-14.73-6.61-14.73-14.73" fill="#fff" fill-rule="evenodd"/><path stroke-width=".311" stroke-linecap="round" stroke-linejoin="round" fill="none" stroke="#231f20" d="M615.072 91.186c0-8.09 6.61-14.69 14.73-14.69 8.12 0 14.69 6.6 14.69 14.69 0 8.12-6.57 14.73-14.69 14.73s-14.73-6.61-14.73-14.73z"/><use xlink:href="#j" transform="matrix(14.269 0 0 -14.269 622.234 95.495)" fill="#231f20"/><use xlink:href="#b" transform="matrix(9.2538 0 0 -9.2537 633.653 97.543)" fill="#231f20"/><path d="M615.072 234.867c0-8.12 6.61-14.69 14.73-14.69 8.12 0 14.69 6.57 14.69 14.69 0 8.13-6.57 14.69-14.69 14.69s-14.73-6.56-14.73-14.69" fill="#fff" fill-rule="evenodd"/><path stroke-width=".311" stroke-linecap="round" stroke-linejoin="round" fill="none" stroke="#231f20" d="M615.072 234.867c0-8.12 6.61-14.69 14.73-14.69 8.12 0 14.69 6.57 14.69 14.69 0 8.13-6.57 14.69-14.69 14.69s-14.73-6.56-14.73-14.69z"/><symbol id="l"><path d="M.635.653H.138V.637C.2.631.215.623.215.596A.373.373 0 0 0 .204.532L.081.09C.064.033.056.026 0 .016V0h.507l.062.162L.553.17C.506.105.48.08.437.06A.488.488 0 0 0 .256.033C.2.033.177.043.177.067c0 .012.012.059.036.146l.032.115.047-.002.046-.001C.366.324.39.319.397.313.406.306.408.299.408.279A.207.207 0 0 0 .401.227l.02-.005.068.232-.018.004C.433.373.423.366.333.363L.254.361.32.594C.326.617.336.62.394.62.55.62.585.607.585.547L.583.502.604.5l.031.153z"/></symbol><use xlink:href="#l" transform="matrix(14.269 0 0 -14.269 623.11 239.176)" fill="#231f20"/><use xlink:href="#b" transform="matrix(9.2538 0 0 -9.2537 632.876 241.189)" fill="#231f20"/><path d="M528.715 190.224c0-8.12 6.57-14.73 14.69-14.73 8.13 0 14.73 6.61 14.73 14.73 0 8.09-6.6 14.69-14.73 14.69-8.12 0-14.69-6.6-14.69-14.69" fill="#fff" fill-rule="evenodd"/><path stroke-width=".311" stroke-linecap="round" stroke-linejoin="round" fill="none" stroke="#231f20" d="M528.715 190.224c0-8.12 6.57-14.73 14.69-14.73 8.13 0 14.73 6.61 14.73 14.73 0 8.09-6.6 14.69-14.73 14.69-8.12 0-14.69-6.6-14.69-14.69z"/><path d="M528.715 51.662c0-8.12 6.57-14.69 14.69-14.69 8.13 0 14.73 6.57 14.73 14.69s-6.6 14.69-14.73 14.69c-8.12 0-14.69-6.57-14.69-14.69" fill="#fff" fill-rule="evenodd"/><path stroke-width=".311" stroke-linecap="round" stroke-linejoin="round" fill="none" stroke="#231f20" d="M528.715 51.662c0-8.12 6.57-14.69 14.69-14.69 8.13 0 14.73 6.57 14.73 14.69s-6.6 14.69-14.73 14.69c-8.12 0-14.69-6.57-14.69-14.69z"/><use xlink:href="#d" transform="matrix(14.269 0 0 -14.269 536.014 56.194)" fill="#231f20"/><use xlink:href="#b" transform="matrix(9.2538 0 0 -9.2537 545.6 57.985)" fill="#231f20"/><path d="M452.989 15.848c0-8.12 6.57-14.69 14.69-14.69 8.13 0 14.7 6.57 14.7 14.69s-6.57 14.69-14.7 14.69c-8.12 0-14.69-6.57-14.69-14.69" fill="#fff" fill-rule="evenodd"/><path stroke-width=".311" stroke-linecap="round" stroke-linejoin="round" fill="none" stroke="#231f20" d="M452.989 15.848c0-8.12 6.57-14.69 14.69-14.69 8.13 0 14.7 6.57 14.7 14.69s-6.57 14.69-14.7 14.69c-8.12 0-14.69-6.57-14.69-14.69z"/><use xlink:href="#d" transform="matrix(14.269 0 0 -14.269 460.253 20.415)" fill="#231f20"/><use xlink:href="#h" transform="matrix(9.2538 0 0 -9.2537 469.07 22.336)" fill="#231f20"/><path d="M452.989 155.116c0-8.12 6.57-14.69 14.69-14.69 8.13 0 14.7 6.57 14.7 14.69s-6.57 14.73-14.7 14.73c-8.12 0-14.69-6.61-14.69-14.73" fill="#fff" fill-rule="evenodd"/><path stroke-width=".311" stroke-linecap="round" stroke-linejoin="round" fill="none" stroke="#231f20" d="M452.989 155.116c0-8.12 6.57-14.69 14.69-14.69 8.13 0 14.7 6.57 14.7 14.69s-6.57 14.73-14.7 14.73c-8.12 0-14.69-6.61-14.69-14.73z"/><symbol id="m"><path d="M.615.016C.558.021.552.029.539.102L.445.668H.419l-.29-.5C.05.035.04.024 0 .016V0h.187v.016C.136.021.128.026.128.051c0 .019.003.028.02.062l.057.113h.22l.02-.131.002-.026C.447.031.433.022.369.016V0h.246v.016M.226.262l.15.26.044-.26H.226z"/></symbol><use xlink:href="#m" transform="matrix(14.269 0 0 -14.269 461.303 159.424)" fill="#231f20"/><path d="M387.224 234.867c0-8.12 6.57-14.69 14.69-14.69 8.13 0 14.7 6.57 14.7 14.69 0 8.13-6.57 14.69-14.7 14.69-8.12 0-14.69-6.56-14.69-14.69" fill="#fff" fill-rule="evenodd"/><path stroke-width=".311" stroke-linecap="round" stroke-linejoin="round" fill="none" stroke="#231f20" d="M387.224 234.867c0-8.12 6.57-14.69 14.69-14.69 8.13 0 14.7 6.57 14.7 14.69 0 8.13-6.57 14.69-14.7 14.69-8.12 0-14.69-6.56-14.69-14.69z"/><use xlink:href="#l" transform="matrix(14.269 0 0 -14.269 395.227 239.176)" fill="#231f20"/><use xlink:href="#h" transform="matrix(9.2538 0 0 -9.2537 404.187 241.319)" fill="#231f20"/><symbol id="n"><path d="M.192.332V.164c0-.067.003-.106.01-.117C.21.036.229.03.258.03h.035V0A4.227 4.227 0 0 1 0 0v.03h.04c.027 0 .044.006.05.016.007.011.01.05.01.118v.369a.322.322 0 0 1-.01.115C.082.658.063.664.034.664H0v.03L.146.692l.28.006C.457.697.485.695.51.692A.573.573 0 0 1 .493.544H.46A.583.583 0 0 1 .45.635a.53.53 0 0 1-.136.018C.274.653.236.65.198.646A1.264 1.264 0 0 1 .192.531V.376L.25.375c.048 0 .091 0 .128.003.012.001.02.004.025.008.004.005.008.018.011.038L.42.461h.03A3.129 3.129 0 0 1 .446.347V.23h-.03V.27c0 .03-.007.048-.018.055a.444.444 0 0 1-.13.01L.191.331z"/></symbol><symbol id="o"><path d="M.121.69A.052.052 0 0 0 .16.674a.053.053 0 0 0 .016-.04A.053.053 0 0 0 .16.597.053.053 0 0 0 .12.58a.053.053 0 0 0-.039.016.053.053 0 0 0-.016.039c0 .015.005.028.016.039.01.01.024.016.04.016M.16.474.172.467a1.137 1.137 0 0 1-.003-.4c0-.011.004-.02.009-.024C.183.038.194.035.213.033L.246.028V0A2.732 2.732 0 0 1 0 0v.028l.042.005c.016.001.026.004.03.009.004.004.006.02.007.047a4.608 4.608 0 0 1 0 .287C.08.386.076.394.07.398.065.402.054.404.037.404H0v.03c.04.005.069.01.087.015A.65.65 0 0 1 .16.474z"/></symbol><symbol id="p"><path d="M.396.66A.16.16 0 0 0 .407.61.152.152 0 0 0 .381.525.192.192 0 0 0 .306.46.233.233 0 0 0 .2.436H.177A.227.227 0 0 1 .137.4a.04.04 0 0 1-.01-.023c0-.012.007-.022.02-.029a.182.182 0 0 1 .078-.01h.064l.087.003A.113.113 0 0 0 .436.33.096.096 0 0 0 .47.285a.16.16 0 0 0 .015-.07.185.185 0 0 0-.033-.104.232.232 0 0 0-.097-.08A.335.335 0 0 0 .209 0a.24.24 0 0 0-.155.044A.133.133 0 0 0 0 .15c0 .027.01.053.028.08A.575.575 0 0 1 .114.28a.16.16 0 0 0-.052.024.038.038 0 0 0-.011.028c0 .014.004.027.011.04a.1.1 0 0 0 .032.03l.048.034a.175.175 0 0 0-.085.042.129.129 0 0 0-.034.092.166.166 0 0 0 .1.154c.042.02.083.03.122.03A.196.196 0 0 0 .31.743.195.195 0 0 0 .367.71h.041a.95.95 0 0 1 .099.004l.005-.01A.33.33 0 0 1 .486.66h-.09M.322.583c0 .04-.01.073-.031.098a.098.098 0 0 1-.08.037.1.1 0 0 1-.075-.03.118.118 0 0 1-.028-.084c0-.043.01-.077.03-.102A.099.099 0 0 1 .218.465c.031 0 .056.01.075.031.02.02.03.05.03.087M.189.272C.166.272.15.269.142.264a.156.156 0 0 1-.05-.042.127.127 0 0 1-.015-.064C.077.122.09.093.117.07a.161.161 0 0 1 .11-.035c.036 0 .067.007.095.02A.153.153 0 0 1 .385.11a.128.128 0 0 1 .023.072c0 .021-.005.04-.016.056a.07.07 0 0 1-.038.03.23.23 0 0 1-.05.004H.188z"/></symbol><symbol id="q"><path d="m.39.01.006.088L.367.066A.207.207 0 0 0 .298.015.221.221 0 0 0 .212 0a.147.147 0 0 0-.075.019.115.115 0 0 0-.047.047.231.231 0 0 0-.014.094c0 .022 0 .048.002.077l.001.079a.408.408 0 0 1-.005.092C.071.414.061.417.044.417H0v.027a.542.542 0 0 1 .123.024l.04.015C.17.483.171.48.171.471L.168.421A2.932 2.932 0 0 1 .161.23c0-.06.003-.097.007-.114A.077.077 0 0 1 .2.075.098.098 0 0 1 .256.057c.03 0 .058.01.083.03.026.019.042.039.05.058A.45.45 0 0 1 .396.25C.396.346.394.398.39.407.387.414.372.417.346.417H.308v.027a.483.483 0 0 1 .168.04C.482.483.484.48.484.473L.482.43A6.804 6.804 0 0 1 .475.135.23.23 0 0 1 .482.053C.49.043.505.038.53.038h.028V.01L.454.013A.592.592 0 0 1 .39.01z"/></symbol><symbol id="r"><path d="M.17.362A.407.407 0 0 1 .211.41c.018.023.035.04.05.048a.1.1 0 0 0 .05.014.104.104 0 0 0 .041-.007C.358.464.36.461.36.457V.452A.697.697 0 0 1 .35.342H.33a.08.08 0 0 1-.027.034.064.064 0 0 1-.036.01.085.085 0 0 1-.054-.019.096.096 0 0 1-.033-.054.731.731 0 0 1-.008-.139C.17.13.173.091.176.06.178.05.181.042.186.04a.116.116 0 0 1 .055-.01H.27V0A3.105 3.105 0 0 1 0 0v.028l.047.004c.016.002.027.005.031.01.005.004.008.02.009.047C.089.136.09.19.09.256a.537.537 0 0 1-.009.138C.077.403.063.407.041.407H0v.029c.032.003.06.008.084.013a.355.355 0 0 1 .078.026C.165.475.168.474.169.472L.17.458.169.362z"/></symbol><symbol id="s"><path d="M.093.246C.094.182.11.133.143.1A.161.161 0 0 1 .264.05c.023 0 .046.004.068.012A.275.275 0 0 1 .4.095L.408.088.393.047A.35.35 0 0 0 .22 0C.155 0 .1.02.06.063A.236.236 0 0 0 0 .233c0 .055.011.102.034.142.015.026.043.05.083.073.04.023.08.034.118.034a.184.184 0 0 0 .137-.05.192.192 0 0 0 .05-.143V.26A.404.404 0 0 0 .36.25 2.066 2.066 0 0 0 .215.246H.093m.001.037C.144.28.2.279.261.279.286.28.31.28.332.283V.31a.2.2 0 0 1-.017.082.088.088 0 0 1-.038.04.118.118 0 0 1-.062.015.107.107 0 0 1-.087-.04C.106.381.095.34.094.283z"/></symbol><symbol id="t"><path d="M0 0z"/></symbol><symbol id="u"><path d="M0 0v.027l.169.176a.78.78 0 0 1 .128.162C.32.406.33.445.33.48.33.524.317.56.292.586a.132.132 0 0 1-.1.04A.182.182 0 0 1 .118.61.076.076 0 0 1 .083.584a.45.45 0 0 1-.03-.09h-.03C.033.556.04.602.04.63c.024.026.05.044.08.056a.25.25 0 0 0 .095.018.207.207 0 0 0 .15-.054.184.184 0 0 0 .057-.14c0-.05-.017-.1-.05-.148a1.223 1.223 0 0 0-.17-.182L.107.084h.179c.075 0 .132.003.17.007L.46.086a.293.293 0 0 1-.004-.04L.46.004.456 0A6.126 6.126 0 0 1 0 0z"/></symbol><symbol id="v"><path d="M.05 0v.032L.09.033c.044.002.07.008.078.019.01.01.014.056.013.134l.004.271c0 .09-.001.14-.003.15C.18.612.177.615.17.615A1.433 1.433 0 0 1 .01.54C.008.54.005.544.004.55L0 .596C.102.626.19.661.262.7L.276.693.274.638.269.356.266.164A.45.45 0 0 1 .27.072C.275.057.281.047.29.042A.168.168 0 0 1 .353.033L.397.032V0L.223.003C.183.003.126.003.051 0z"/></symbol><symbol id="w"><path d="m.018.522.026.12c.02.024.045.042.074.054.028.012.06.018.096.018a.189.189 0 0 0 .13-.042.135.135 0 0 0 .048-.105.158.158 0 0 0-.02-.079A.365.365 0 0 0 .287.4C.308.4.33.396.352.388a.14.14 0 0 0 .07-.052.14.14 0 0 0 .023-.083.234.234 0 0 0-.084-.175.288.288 0 0 0-.262-.072.324.324 0 0 0-.06.02A.94.94 0 0 1 0 .17l.027.012A.432.432 0 0 1 .077.09.136.136 0 0 1 .124.055.188.188 0 0 1 .198.042c.05 0 .087.015.114.045.028.03.042.073.042.127A.151.151 0 0 1 .319.32a.118.118 0 0 1-.092.038.205.205 0 0 1-.093-.025L.127.338l.01.056A.378.378 0 0 1 .175.391c.04 0 .072.012.097.037a.13.13 0 0 1 .039.097.117.117 0 0 1-.034.088.115.115 0 0 1-.086.033A.156.156 0 0 1 .124.63.132.132 0 0 1 .076.596a.163.163 0 0 1-.017-.04L.048.522h-.03z"/></symbol><use xlink:href="#n" transform="matrix(12 0 0 -12 249.107 270.341)" fill="#221f1f"/><use xlink:href="#o" transform="matrix(12 0 0 -12 255.86 270.341)" fill="#221f1f"/><use xlink:href="#p" transform="matrix(12 0 0 -12 259.544 273.687)" fill="#221f1f"/><use xlink:href="#q" transform="matrix(12 0 0 -12 265.963 270.458)" fill="#221f1f"/><use xlink:href="#r" transform="matrix(12 0 0 -12 273.15 270.341)" fill="#221f1f"/><use xlink:href="#s" transform="matrix(12 0 0 -12 278.03 270.458)" fill="#221f1f"/><use xlink:href="#t" transform="matrix(12 0 0 -12 283.443 270.3)" fill="#221f1f"/><use xlink:href="#u" transform="matrix(12 0 0 -12 286.682 270.341)" fill="#221f1f"/><use xlink:href="#n" transform="matrix(12 0 0 -12 58.99 270.341)" fill="#221f1f"/><use xlink:href="#o" transform="matrix(12 0 0 -12 65.745 270.341)" fill="#221f1f"/><use xlink:href="#p" transform="matrix(12 0 0 -12 69.43 273.687)" fill="#221f1f"/><use xlink:href="#q" transform="matrix(12 0 0 -12 75.85 270.458)" fill="#221f1f"/><use xlink:href="#r" transform="matrix(12 0 0 -12 83.04 270.341)" fill="#221f1f"/><use xlink:href="#s" transform="matrix(12 0 0 -12 87.92 270.458)" fill="#221f1f"/><use xlink:href="#t" transform="matrix(12 0 0 -12 93.334 270.3)" fill="#221f1f"/><use xlink:href="#v" transform="matrix(12 0 0 -12 96.72 270.341)" fill="#221f1f"/><use xlink:href="#n" transform="matrix(12 0 0 -12 474.703 270.341)" fill="#221f1f"/><use xlink:href="#o" transform="matrix(12 0 0 -12 481.457 270.341)" fill="#221f1f"/><use xlink:href="#p" transform="matrix(12 0 0 -12 485.143 273.687)" fill="#221f1f"/><use xlink:href="#q" transform="matrix(12 0 0 -12 491.563 270.458)" fill="#221f1f"/><use xlink:href="#r" transform="matrix(12 0 0 -12 498.752 270.341)" fill="#221f1f"/><use xlink:href="#s" transform="matrix(12 0 0 -12 503.632 270.458)" fill="#221f1f"/><use xlink:href="#t" transform="matrix(12 0 0 -12 509.046 270.3)" fill="#221f1f"/><use xlink:href="#w" transform="matrix(12 0 0 -12 512.21 270.458)" fill="#221f1f"/></svg>