<svg version="1.0" xmlns="http://www.w3.org/2000/svg" width="800.000000" height="800.000000" viewBox="180 180 440 440" preserveAspectRatio="xMidYMid meet">
  <metadata>
    <rdf:RDF xmlns:rdf="http://www.w3.org/1999/02/22-rdf-syntax-ns#" xmlns:rdfs="http://www.w3.org/2000/01/rdf-schema#" xmlns:dc="http://purl.org/dc/elements/1.1/">
      <rdf:Description dc:format="image/svg+xml" dc:Label="1" dc:ContentProducer="001191330110MACRLGPT8B00000" dc:ProduceID="435929498" dc:ReservedCode1="AcznvUIiz96Tpo3eECVBiTxC2BlmIRUOAzbjUyrVyhk=" dc:ContentPropagator="001191330110MACRLGPT8B00000" dc:PropagateID="435929498" dc:ReservedCode2="AcznvUIiz96Tpo3eECVBiTxC2BlmIRUOAzbjUyrVyhk="/>
    </rdf:RDF>
  </metadata>
  <g transform="translate(190.004531,623.353218) scale(0.053834,-0.053834)" fill="#ffffff" stroke="#ffffff" stroke-width="180" stroke-linejoin="round">
    <path d="M2592 7966 c-44 -51 -49 -90 -23 -220 42 -214 229 -708 380 -1006 51 -100 95 -216 88 -232 -3 -7 -29 -25 -59 -40 -29 -14 -113 -56 -187 -93 -181 -89 -280 -158 -482 -332 -187 -161 -368 -365 -495 -559 -64 -97 -187 -320 -256 -464 -28 -58 -52 -107 -53 -108 -2 -2 -70 23 -152 56 -81 33 -254 99 -384 146 -130 46 -314 116 -410 154 -268 108 -330 126 -429 126 -138 1 -130 17 -130 -252 0 -264 -3 -250 134 -602 42 -107 97 -249 123 -315 69 -179 176 -408 329 -705 282 -549 455 -820 722 -1138 52 -62 93 -114 91 -115 -2 -1 -17 -9 -34 -18 -78 -43 -95 -128 -35 -181 27 -25 38 -28 95 -28 36 0 82 7 102 15 19 8 43 15 52 15 8 0 78 -64 154 -142 l138 -142 -105 -100 c-57 -56 -109 -114 -115 -129 -35 -92 23 -169 128 -170 67 -1 117 30 205 124 l76 82 141 -140 142 -140 -26 -64 c-34 -87 -41 -131 -27 -174 14 -43 52 -65 111 -65 38 0 48 5 89 49 l46 49 205 -195 c112 -107 245 -228 296 -269 178 -146 411 -265 625 -321 89 -23 122 -27 248 -26 167 0 241 16 380 80 207 96 328 200 710 613 79 85 182 196 230 245 47 50 133 140 190 201 58 61 110 112 116 113 6 0 40 -34 75 -76 103 -127 400 -417 612 -598 357 -306 472 -368 677 -368 255 1 500 164 619 413 35 74 36 77 36 200 0 114 -2 131 -28 194 -65 159 -161 270 -398 461 -127 103 -374 325 -618 557 l-103 99 413 412 c568 566 769 798 898 1039 109 205 110 439 4 653 -63 128 -83 149 -543 574 -74 69 -191 178 -259 242 l-123 118 65 31 c120 56 160 139 102 208 -54 65 -117 66 -263 7 l-94 -38 -71 69 c-127 123 -157 155 -157 162 0 4 20 24 44 45 64 53 175 195 182 233 8 42 -20 100 -57 119 -39 21 -93 19 -138 -4 -21 -11 -79 -56 -129 -100 -50 -45 -95 -81 -99 -81 -4 0 -64 57 -134 126 l-126 125 29 80 c47 134 33 203 -47 229 -30 10 -41 9 -72 -7 -32 -15 -70 -63 -86 -108 -2 -5 -44 29 -94 76 -278 264 -733 554 -1253 799 -276 130 -360 162 -680 255 -69 20 -226 76 -350 125 -124 48 -286 107 -360 131 -124 39 -146 43 -261 46 l-126 4 -31 -35z m458 -336 c30 -10 118 -43 195 -73 77 -30 244 -89 370 -132 127 -42 280 -100 340 -127 61 -27 171 -76 245 -109 344 -153 552 -266 830 -452 250 -167 374 -267 504 -404 l65 -69 -29 -45 c-15 -25 -64 -116 -109 -202 -87 -168 -97 -208 -66 -268 33 -63 121 -88 178 -50 39 25 90 104 162 250 32 67 62 121 65 121 3 0 43 -38 89 -84 l83 -84 -134 -133 c-75 -74 -147 -153 -162 -176 -28 -45 -35 -108 -16 -144 27 -50 137 -66 200 -28 19 11 91 79 160 150 69 71 130 129 135 129 12 0 161 -148 154 -153 -2 -2 -76 -39 -163 -81 -214 -104 -246 -131 -246 -211 0 -73 51 -115 139 -115 44 0 75 13 246 100 l197 101 341 -335 c615 -601 627 -615 635 -772 5 -89 -11 -161 -55 -249 -76 -152 -343 -448 -942 -1045 -616 -613 -1164 -1169 -1392 -1410 -416 -441 -498 -526 -583 -607 -167 -157 -342 -260 -483 -285 -190 -32 -531 87 -772 271 -171 131 -551 482 -551 510 0 9 33 92 74 183 41 92 87 205 102 252 32 104 28 144 -21 193 -47 47 -100 47 -153 -1 -44 -40 -48 -48 -140 -251 -37 -82 -71 -152 -76 -154 -11 -5 -194 160 -195 175 -1 6 7 18 16 25 20 17 174 199 225 267 66 87 75 142 32 186 -34 33 -94 35 -144 5 -19 -12 -97 -83 -173 -157 l-138 -136 -89 89 c-50 49 -89 94 -87 99 3 8 59 31 301 123 91 34 135 75 143 129 10 77 -44 134 -129 134 -53 0 -173 -34 -339 -95 -85 -31 -162 -59 -172 -62 -22 -7 -59 32 -226 239 -280 347 -475 666 -781 1283 -88 176 -185 383 -216 460 -31 77 -84 210 -119 295 -77 192 -131 370 -112 370 11 0 181 -67 307 -120 80 -34 232 -93 339 -131 106 -38 273 -101 370 -140 252 -102 342 -105 415 -16 18 23 82 137 140 253 177 352 282 508 476 708 191 197 304 277 615 436 284 146 317 164 361 207 56 54 77 105 82 191 6 96 -14 153 -135 402 -127 259 -162 335 -242 528 -67 160 -110 279 -104 285 5 5 58 -9 163 -43z m3643 -5883 c318 -317 482 -487 498 -517 51 -98 18 -229 -76 -305 -82 -67 -120 -80 -230 -80 -90 0 -106 3 -156 28 -64 33 -237 161 -424 315 -134 110 -569 536 -563 551 5 13 462 481 470 481 4 0 220 -213 481 -473z"/>
    <path d="M3695 5904 c-140 -18 -346 -61 -435 -90 -111 -36 -322 -144 -429 -221 -350 -251 -621 -668 -755 -1163 -117 -435 -63 -993 135 -1397 284 -579 785 -941 1454 -1049 153 -25 514 -26 676 -1 248 37 538 127 709 219 395 212 710 582 893 1048 127 324 166 610 121 894 -17 109 -73 353 -104 452 -75 244 -211 479 -378 655 -280 294 -648 502 -1042 587 -372 81 -602 99 -845 66z m472 -314 c178 -24 421 -80 548 -127 345 -127 673 -398 839 -691 107 -190 225 -650 226 -882 0 -253 -155 -678 -348 -950 -83 -116 -248 -285 -364 -371 -178 -132 -399 -223 -663 -271 -104 -20 -154 -23 -370 -22 -335 0 -458 20 -724 120 -361 135 -637 388 -815 749 -71 142 -93 202 -130 345 -42 165 -50 236 -50 430 1 161 4 201 28 314 80 384 239 685 491 929 245 239 520 360 975 430 55 9 283 6 357 -3z"/>
    <path d="M2992 4829 c-80 -40 -152 -162 -225 -380 -61 -182 -72 -250 -72 -474 0 -172 3 -216 23 -310 67 -314 204 -579 401 -777 112 -112 157 -137 246 -138 102 0 145 42 132 128 -5 27 -19 48 -54 81 -238 216 -321 338 -412 606 -54 162 -75 310 -68 480 10 225 53 389 143 545 68 118 71 194 10 234 -41 26 -78 28 -124 5z"/>
  </g>
</svg>
